<svg width="20" height="20" viewBox="0 0 20 20" fill="none" xmlns="http://www.w3.org/2000/svg">
<g id="access_time" clip-path="url(#clip0_19_1749)">
<path id="Vector" d="M9.99169 1.66663C5.39169 1.66663 1.66669 5.39996 1.66669 9.99996C1.66669 14.6 5.39169 18.3333 9.99169 18.3333C14.6 18.3333 18.3334 14.6 18.3334 9.99996C18.3334 5.39996 14.6 1.66663 9.99169 1.66663ZM10 16.6666C6.31669 16.6666 3.33335 13.6833 3.33335 9.99996C3.33335 6.31663 6.31669 3.33329 10 3.33329C13.6834 3.33329 16.6667 6.31663 16.6667 9.99996C16.6667 13.6833 13.6834 16.6666 10 16.6666ZM10.4167 5.83329H9.16669V10.8333L13.5417 13.4583L14.1667 12.4333L10.4167 10.2083V5.83329Z" fill="#666666"/>
</g>
<defs>
<clipPath id="clip0_19_1749">
<rect width="20" height="20" fill="white"/>
</clipPath>
</defs>
</svg>
