<svg width="82" height="82" viewBox="0 0 82 82" fill="none" xmlns="http://www.w3.org/2000/svg">
<g id="button">
<g id="Rectangle 4" filter="url(#filter0_d_169_3620)">
<path d="M6 41C6 21.67 21.67 6 41 6C60.33 6 76 21.67 76 41C76 60.33 60.33 76 41 76C21.67 76 6 60.33 6 41Z" fill="white"/>
<path d="M6.25 41C6.25 21.8081 21.8081 6.25 41 6.25C60.1919 6.25 75.75 21.8081 75.75 41C75.75 60.1919 60.1919 75.75 41 75.75C21.8081 75.75 6.25 60.1919 6.25 41Z" stroke="#7CA1FF" stroke-width="0.5"/>
</g>
<g id="Group 1472">
<rect id="Rectangle 719" x="37.3057" y="26.2222" width="5.83333" height="31.1111" rx="2.91667" fill="#7CA1FF"/>
<rect id="Rectangle 720" x="24.667" y="44.6945" width="5.83333" height="31.1111" rx="2.91667" transform="rotate(-90 24.667 44.6945)" fill="#7CA1FF"/>
</g>
</g>
<defs>
<filter id="filter0_d_169_3620" x="0" y="0" width="82" height="82" filterUnits="userSpaceOnUse" color-interpolation-filters="sRGB">
<feFlood flood-opacity="0" result="BackgroundImageFix"/>
<feColorMatrix in="SourceAlpha" type="matrix" values="0 0 0 0 0 0 0 0 0 0 0 0 0 0 0 0 0 0 127 0" result="hardAlpha"/>
<feOffset/>
<feGaussianBlur stdDeviation="3"/>
<feColorMatrix type="matrix" values="0 0 0 0 0 0 0 0 0 0 0 0 0 0 0 0 0 0 0.11 0"/>
<feBlend mode="multiply" in2="BackgroundImageFix" result="effect1_dropShadow_169_3620"/>
<feBlend mode="normal" in="SourceGraphic" in2="effect1_dropShadow_169_3620" result="shape"/>
</filter>
</defs>
</svg>
