<svg width="17" height="17" viewBox="0 0 17 17" fill="none" xmlns="http://www.w3.org/2000/svg">
<g id="Group">
<g id="Group_2">
<path id="Vector" d="M12.1667 15.0167H2.16667V4.83341H8V3.16675H2.16667C1.25 3.16675 0.5 3.91675 0.5 4.83341V14.8334C0.5 15.7501 1.25 16.5001 2.16667 16.5001H12.1667C13.0833 16.5001 13.8333 15.7501 13.8333 14.8334V9.00008H12.1667V15.0167Z" fill="#323232"/>
<path id="Vector_2" d="M13.8334 0.666748H12.1667V3.16675H9.66675C9.67508 3.17508 9.66675 4.83342 9.66675 4.83342H12.1667V7.32508C12.1751 7.33342 13.8334 7.32508 13.8334 7.32508V4.83342H16.3334V3.16675H13.8334V0.666748Z" fill="#323232"/>
<path id="Vector_3" d="M10.4999 6.5H3.83325V8.16667H10.4999V6.5Z" fill="#323232"/>
<path id="Vector_4" d="M3.83325 9V10.6667H10.4999V9H7.99992H3.83325Z" fill="#323232"/>
<path id="Vector_5" d="M10.4999 11.5H3.83325V13.1667H10.4999V11.5Z" fill="#323232"/>
</g>
</g>
</svg>
