<svg width="115" height="115" viewBox="0 0 115 115" fill="none" xmlns="http://www.w3.org/2000/svg">
<path id="Vector" d="M79.7548 41.1757C81.9502 41.336 83.3856 38.8923 82.3998 36.9241C81.1004 34.3296 79.8128 31.7577 78.5271 29.1894C75.5134 23.1689 66.9641 23.0542 63.7892 28.9912L59.4858 37.0384C58.476 38.9268 59.845 41.2807 61.9853 41.21C63.0819 41.162 63.4841 41.5359 63.4944 42.6747C63.5976 56.5664 64.708 70.5268 63.6698 84.3294C61.8134 109.026 42.3113 118.428 23.6102 113.903C19.1721 112.83 15.0159 111.06 11.3616 108.288C3.74366 102.512 0.536292 94.5441 0.440037 85.283C0.223461 64.1915 0.185629 43.0931 0.0790605 22.0051C0.0446835 15.6023 0.0183344 9.1995 0 2.79671C0 1.50853 1.04427 0.464259 2.33245 0.464259H12.8546C19.482 0.464259 24.8546 5.83684 24.8546 12.4643V81.8941C24.8546 82.3503 24.8546 82.8064 24.8546 83.2661C24.944 87.6326 27.4845 90.1262 31.8744 90.1262C36.4535 90.1262 38.8598 87.9138 38.9251 83.3964C39.0936 71.5661 39.1899 59.729 39.3239 47.9021C39.4981 32.4142 39.678 16.9251 39.8637 1.43497C39.8637 0.732679 40.4694 0.162093 41.1707 0.124717C41.3654 0.11434 41.5599 0.107529 41.7544 0.107529C55.2783 0.107529 68.8057 -0.180593 82.3193 0.186424C95.0629 0.529431 105.52 5.52361 111.43 17.4637C115.232 25.1573 115.899 33.3792 113.898 41.7142C112.396 48.0221 108.783 53.0575 103.527 56.8065C96.4311 61.8693 88.4625 64.0989 79.7273 63.6495C78.3281 63.5775 77.8813 63.0767 77.895 61.6841C77.9569 55.4551 77.9569 49.2238 77.895 42.9902C77.895 41.5496 78.3454 41.0728 79.7548 41.1757Z" fill="url(#paint0_linear_16_753)"/>
<defs>
<linearGradient id="paint0_linear_16_753" x1="4.64193" y1="24.2275" x2="129.593" y2="46.6901" gradientUnits="userSpaceOnUse">
<stop stop-color="#6A58FB"/>
<stop offset="1" stop-color="#4599F4"/>
</linearGradient>
</defs>
</svg>
