<svg width="29" height="28" viewBox="0 0 29 28" fill="none" xmlns="http://www.w3.org/2000/svg">
<g id="apple">
<path id="bg" d="M26.75 14C26.75 20.762 21.2681 26.25 14.5 26.25C7.73187 26.25 2.25 20.762 2.25 14C2.25 7.23187 7.73187 1.75 14.5 1.75C21.2681 1.75 26.75 7.23187 26.75 14Z" fill="#283544"/>
<path id="apple_2" d="M20.2418 10.9002C20.175 10.9392 18.5837 11.7622 18.5837 13.5869C18.6587 15.6678 20.5918 16.3976 20.625 16.3976C20.5918 16.4366 20.3332 17.3917 19.5668 18.393C18.9587 19.2554 18.2837 20.125 17.2587 20.125C16.2837 20.125 15.9337 19.5502 14.8087 19.5502C13.6005 19.5502 13.2587 20.125 12.3337 20.125C11.3087 20.125 10.5837 19.2089 9.94236 18.3545C9.10921 17.2363 8.40106 15.4815 8.37606 13.7965C8.35921 12.9037 8.5429 12.026 9.00921 11.2805C9.66736 10.2398 10.8424 9.53333 12.1255 9.51004C13.1087 9.47915 13.9837 10.139 14.5837 10.139C15.1587 10.139 16.2337 9.51004 17.45 9.51004C17.975 9.51055 19.375 9.65792 20.2418 10.9002ZM14.5005 9.33177C14.3255 8.51641 14.8087 7.70104 15.2587 7.18093C15.8337 6.55193 16.7418 6.125 17.525 6.125C17.575 6.94037 17.2581 7.74003 16.6918 8.32244C16.1837 8.95144 15.3087 9.42496 14.5005 9.33177Z" fill="white"/>
</g>
</svg>
