<svg width="20" height="20" viewBox="0 0 20 20" fill="none" xmlns="http://www.w3.org/2000/svg">
<g id="arrow / circle_right">
<path id="coolicon" d="M9.99997 18.3333C5.39969 18.3283 1.67169 14.6003 1.66663 9.99997V9.83331C1.75824 5.25375 5.52879 1.6066 10.1089 1.66737C14.6889 1.72814 18.3614 5.47405 18.3315 10.0544C18.3015 14.6348 14.5804 18.3324 9.99997 18.3333ZM9.99997 3.33331C6.31807 3.33331 3.3333 6.31808 3.3333 9.99997C3.3333 13.6819 6.31807 16.6666 9.99997 16.6666C13.6819 16.6666 16.6666 13.6819 16.6666 9.99997C16.6625 6.31979 13.6802 3.33744 9.99997 3.33331ZM9.99997 14.1666L8.82497 12.9916L10.975 10.8333H5.8333V9.16664H10.975L8.82497 7.00831L9.99997 5.83331L14.1666 9.99997L9.99997 14.1666Z" fill="#FF7DA0"/>
</g>
</svg>
