<svg width="20" height="20" viewBox="0 0 20 20" fill="none" xmlns="http://www.w3.org/2000/svg">
<g id="arrow / circle_right">
<path id="coolicon" d="M10 18.3333C5.39974 18.3283 1.67174 14.6003 1.66669 9.99997V9.83331C1.7583 5.25375 5.52884 1.6066 10.1089 1.66737C14.689 1.72814 18.3614 5.47405 18.3315 10.0544C18.3016 14.6348 14.5805 18.3324 10 18.3333ZM10 3.33331C6.31812 3.33331 3.33335 6.31808 3.33335 9.99997C3.33335 13.6819 6.31812 16.6666 10 16.6666C13.6819 16.6666 16.6667 13.6819 16.6667 9.99997C16.6626 6.31979 13.6802 3.33744 10 3.33331ZM10 14.1666L8.82502 12.9916L10.975 10.8333H5.83335V9.16664H10.975L8.82502 7.00831L10 5.83331L14.1667 9.99997L10 14.1666Z" fill="#7CA1FF"/>
</g>
</svg>
