<svg width="37" height="37" viewBox="0 0 37 37" fill="none" xmlns="http://www.w3.org/2000/svg">
<g id="Clipboard list">
<path id="Icon" d="M13.875 7.70833H10.7917C9.0888 7.70833 7.70834 9.08879 7.70834 10.7917V29.2917C7.70834 30.9945 9.0888 32.375 10.7917 32.375H26.2083C27.9112 32.375 29.2917 30.9945 29.2917 29.2917V10.7917C29.2917 9.08879 27.9112 7.70833 26.2083 7.70833H23.125M13.875 7.70833C13.875 9.41121 15.2555 10.7917 16.9583 10.7917H20.0417C21.7446 10.7917 23.125 9.41121 23.125 7.70833M13.875 7.70833C13.875 6.00546 15.2555 4.625 16.9583 4.625H20.0417C21.7446 4.625 23.125 6.00546 23.125 7.70833M18.5 18.5H23.125M18.5 24.6667H23.125M13.875 18.5H13.8904M13.875 24.6667H13.8904" stroke="#111111" stroke-width="2.5" stroke-linecap="round"/>
</g>
</svg>
