<svg width="24" height="24" viewBox="0 0 24 24" fill="none" xmlns="http://www.w3.org/2000/svg">
<g id="Clip">
<path id="Path 16" d="M12.9146 7.96424L14.3288 9.37845L11.8539 11.8533C11.2681 12.4391 11.2681 13.3889 11.8539 13.9746C12.4397 14.5604 13.3895 14.5604 13.9752 13.9746L17.5108 10.4391C18.8776 9.07228 18.8776 6.8562 17.5108 5.48937C16.1439 4.12254 13.9279 4.12253 12.561 5.48937L5.48997 12.5604C4.12314 13.9273 4.12314 16.1433 5.48997 17.5102L5.84352 17.8637C7.0151 19.0353 8.91459 19.0353 10.0862 17.8637L11.5004 19.2779C9.54776 21.2306 6.38193 21.2306 4.42931 19.2779L4.07576 18.9244C1.92787 16.7765 1.92787 13.2941 4.07576 11.1462L11.1468 4.07516C13.2947 1.92727 16.7771 1.92727 18.925 4.07516C21.0729 6.22304 21.0729 9.70544 18.925 11.8533L15.3895 15.3889C14.0226 16.7557 11.8066 16.7557 10.4397 15.3889C9.07288 14.022 9.07288 11.8059 10.4397 10.4391L12.9146 7.96424Z" fill="#D6D6E0"/>
</g>
</svg>
