<svg width="44" height="44" viewBox="0 0 44 44" fill="none" xmlns="http://www.w3.org/2000/svg">
<g id="Frame" clip-path="url(#clip0_196_2510)">
<g id="Group">
<path id="Vector" d="M27.5 37.125H4.125C3.39565 37.125 2.69618 36.8353 2.18046 36.3195C1.66473 35.8038 1.375 35.1043 1.375 34.375V5.5C1.375 4.77065 1.66473 4.07118 2.18046 3.55546C2.69618 3.03973 3.39565 2.75 4.125 2.75H27.5C28.2293 2.75 28.9288 3.03973 29.4445 3.55546C29.9603 4.07118 30.25 4.77065 30.25 5.5V34.375C30.25 35.1043 29.9603 35.8038 29.4445 36.3195C28.9288 36.8353 28.2293 37.125 27.5 37.125Z" fill="#FCD770"/>
<path id="Vector_2" d="M26.8125 34.375H4.8125C4.63016 34.375 4.4553 34.3026 4.32636 34.1736C4.19743 34.0447 4.125 33.8698 4.125 33.6875V6.1875C4.125 6.00516 4.19743 5.8303 4.32636 5.70136C4.4553 5.57243 4.63016 5.5 4.8125 5.5H26.8125C26.9948 5.5 27.1697 5.57243 27.2986 5.70136C27.4276 5.8303 27.5 6.00516 27.5 6.1875V33.6875C27.5 33.8698 27.4276 34.0447 27.2986 34.1736C27.1697 34.3026 26.9948 34.375 26.8125 34.375Z" fill="#E6E9ED"/>
<path id="Vector_3" d="M6.875 26.125H12.375V31.625H6.875V26.125ZM6.875 17.875H12.375V23.375H6.875V17.875Z" fill="#FFEAA7"/>
<path id="Vector_4" d="M12.375 10.3125V15.125H6.875V9.625H12.375V10.3125Z" fill="#B4DD7F"/>
<path id="Vector_5" d="M22 2.75V5.5C22 6.25625 21.3813 6.875 20.625 6.875H11C10.2437 6.875 9.625 6.25625 9.625 5.5V2.75C9.625 1.99375 10.2437 1.375 11 1.375H20.625C21.3813 1.375 22 1.99375 22 2.75Z" fill="#CF9E76"/>
<path id="Vector_6" d="M37.125 11.6875L30.25 18.5625L27.5 21.3125L24.75 24.0625L22.3438 21.6562L34.7188 9.28125L37.125 11.6875Z" fill="#B4DD7F"/>
<path id="Vector_7" d="M34.7188 9.28125L22.3438 21.6562L19.9375 19.25L27.5 11.6875L30.25 8.9375L32.3125 6.875L34.7188 9.28125Z" fill="#FF826E"/>
<path id="Vector_8" d="M39.1875 9.625L37.125 11.6875L34.7188 9.28125L32.3125 6.875L34.375 4.8125L39.1875 9.625Z" fill="#FFEAA7"/>
<path id="Vector_9" d="M42.625 4.77812C42.625 5.67875 42.2675 6.545 41.6281 7.18437L39.1875 9.625L34.375 4.8125L36.8156 2.37188C37.4538 1.73365 38.3193 1.37507 39.2219 1.375C40.1637 1.375 41.0094 1.76 41.6281 2.37188C42.24 2.99063 42.625 3.83625 42.625 4.77812ZM24.75 24.0625L19.4494 26.0494C19.2401 26.1276 19.0127 26.144 18.7944 26.0966C18.5761 26.0492 18.376 25.94 18.218 25.782C18.06 25.624 17.9508 25.4239 17.9034 25.2056C17.856 24.9873 17.8724 24.7599 17.9506 24.5506L19.9375 19.25L22.3438 21.6562L24.75 24.0625Z" fill="#AAB2BD"/>
<path id="Vector_10" d="M41.25 42.625H24.75C24.3853 42.625 24.0356 42.4801 23.7777 42.2223C23.5199 41.9644 23.375 41.6147 23.375 41.25V28.875C23.375 28.5103 23.5199 28.1606 23.7777 27.9027C24.0356 27.6449 24.3853 27.5 24.75 27.5H41.25C41.6147 27.5 41.9644 27.6449 42.2223 27.9027C42.4801 28.1606 42.625 28.5103 42.625 28.875V41.25C42.625 41.6147 42.4801 41.9644 42.2223 42.2223C41.9644 42.4801 41.6147 42.625 41.25 42.625Z" fill="#ECC19C"/>
<path id="Vector_11" d="M30.25 27.5H37.125V31.625H28.875V27.5H30.25Z" fill="#CF9E76"/>
<path id="Vector_12" d="M41.25 26.8125H30.9375V18.8471L42.1142 7.67045C42.4953 7.29155 42.7974 6.84081 43.0031 6.34434C43.2088 5.84787 43.314 5.31553 43.3125 4.77814C43.3112 3.69363 42.8798 2.6539 42.113 1.88704C41.3461 1.12017 40.3064 0.688787 39.2219 0.687514C38.6846 0.68612 38.1523 0.791243 37.6558 0.996808C37.1594 1.20237 36.7086 1.5043 36.3296 1.88514L30.9375 7.2772V5.50001C30.9375 3.60458 29.3954 2.06251 27.5 2.06251H22.561C22.4197 1.66154 22.1577 1.31413 21.8111 1.06795C21.4645 0.821766 21.0501 0.688876 20.625 0.687514H11C10.5749 0.688876 10.1605 0.821766 9.81391 1.06795C9.46729 1.31413 9.20534 1.66154 9.064 2.06251H4.125C2.22956 2.06251 0.6875 3.60458 0.6875 5.50001V34.375C0.6875 36.2705 2.22956 37.8125 4.125 37.8125H22.6875V41.25C22.6875 42.3871 23.6129 43.3125 24.75 43.3125H41.25C42.3871 43.3125 43.3125 42.3871 43.3125 41.25V28.875C43.3125 27.7379 42.3871 26.8125 41.25 26.8125ZM33.6875 29.5625V30.9375H32.3125V29.5625H30.9375V30.9375H29.5625V28.1875H36.4375V30.9375H35.0625V29.5625H33.6875ZM22.6875 28.875V33.6875H4.8125V6.18751H9.064C9.20534 6.58849 9.46729 6.9359 9.81391 7.18208C10.1605 7.42826 10.5749 7.56115 11 7.56251H20.625C21.0501 7.56115 21.4645 7.42826 21.8111 7.18208C22.1577 6.9359 22.4197 6.58849 22.561 6.18751H26.8125V11.4029L19.3462 18.8691L17.3057 24.31C17.1816 24.6428 17.1557 25.0043 17.2312 25.3514C17.3066 25.6984 17.4801 26.0166 17.7312 26.2678C17.9822 26.5191 18.3002 26.6929 18.6472 26.7686C18.9942 26.8444 19.3557 26.8188 19.6886 26.695L25.1302 24.6538L26.8125 22.9721V26.8125H24.75C23.6129 26.8125 22.6875 27.7379 22.6875 28.875ZM24.75 23.0904L23.3159 21.6563L34.7188 10.2534L36.1529 11.6875L24.75 23.0904ZM20.2063 20.491L23.5091 23.7937L19.2053 25.408C18.9138 25.5159 18.5625 25.2808 18.5625 24.9611C18.5625 24.9033 18.5728 24.8476 18.5928 24.7947L20.2063 20.491ZM33.2846 6.87501L34.375 5.78464L38.2154 9.62501L37.125 10.7154L33.2846 6.87501ZM33.7466 9.28126L22.3438 20.6841L20.9096 19.25L32.3125 7.84714L33.7466 9.28126ZM29.5625 26.8125H28.1875V21.5971L29.5625 20.2221V26.8125ZM37.3017 2.85795C37.5533 2.60498 37.8525 2.40443 38.1821 2.26789C38.5117 2.13135 38.8651 2.06155 39.2219 2.06251C39.9418 2.06342 40.632 2.34983 41.1411 2.85891C41.6502 3.36799 41.9366 4.05819 41.9375 4.77814C41.9385 5.1349 41.8687 5.48831 41.7321 5.81791C41.5956 6.14751 41.395 6.44676 41.1421 6.69833L39.1875 8.65289L35.3471 4.81251L37.3017 2.85795ZM29.5625 5.50001V8.6522L28.1875 10.0272V6.18751C28.1875 5.4292 27.5708 4.81251 26.8125 4.81251H22.6875V3.43751H27.5C28.6371 3.43751 29.5625 4.36289 29.5625 5.50001ZM10.3125 2.75001C10.3125 2.3712 10.6205 2.06251 11 2.06251H20.625C21.0045 2.06251 21.3125 2.3712 21.3125 2.75001V5.50001C21.3125 5.87883 21.0045 6.18751 20.625 6.18751H11C10.6205 6.18751 10.3125 5.87883 10.3125 5.50001V2.75001ZM4.125 36.4375C2.98787 36.4375 2.0625 35.5121 2.0625 34.375V5.50001C2.0625 4.36289 2.98787 3.43751 4.125 3.43751H8.9375V4.81251H4.8125C4.05419 4.81251 3.4375 5.4292 3.4375 6.18751V33.6875C3.4375 34.4458 4.05419 35.0625 4.8125 35.0625H22.6875V36.4375H4.125ZM41.9375 41.25C41.9375 41.4324 41.8651 41.6072 41.7361 41.7361C41.6072 41.8651 41.4323 41.9375 41.25 41.9375H24.75C24.5677 41.9375 24.3928 41.8651 24.2639 41.7361C24.1349 41.6072 24.0625 41.4324 24.0625 41.25V28.875C24.0625 28.6927 24.1349 28.5178 24.2639 28.3889C24.3928 28.2599 24.5677 28.1875 24.75 28.1875H28.1875V32.3125H37.8125V28.1875H41.25C41.4323 28.1875 41.6072 28.2599 41.7361 28.3889C41.8651 28.5178 41.9375 28.6927 41.9375 28.875V41.25Z" fill="black"/>
<path id="Vector_13" d="M39.1875 39.1872H40.5625V40.5622H39.1875V39.1872ZM33.6875 39.1872H35.0625V40.5622H33.6875V39.1872ZM36.4375 39.1872H37.8125V40.5622H36.4375V39.1872ZM33.6875 36.4372H40.5625V37.8122H33.6875V36.4372ZM13.9514 7.76367L12.7779 8.93723H6.1875V15.8122H13.0625V10.5969L14.9236 8.7358L13.9514 7.76367ZM11.6875 14.4372H7.5625V10.3122H11.4029L9.625 12.0901L8.73606 11.2012L7.76394 12.1733L9.625 14.0344L11.6875 11.9719V14.4372ZM6.1875 24.0622H13.0625V17.1872H6.1875V24.0622ZM7.5625 18.5622H11.6875V22.6872H7.5625V18.5622ZM6.1875 32.3122H13.0625V25.4372H6.1875V32.3122ZM7.5625 26.8122H11.6875V30.9372H7.5625V26.8122ZM15.8125 8.93723H21.3125V10.3122H15.8125V8.93723ZM15.8125 11.6872H21.3125V13.0622H15.8125V11.6872ZM15.8125 14.4372H21.3125V15.8122H15.8125V14.4372ZM15.8125 28.1872H21.3125V29.5622H15.8125V28.1872ZM15.8125 30.9372H21.3125V32.3122H15.8125V30.9372Z" fill="black"/>
</g>
</g>
<defs>
<clipPath id="clip0_196_2510">
<rect width="44" height="44" fill="white"/>
</clipPath>
</defs>
</svg>
