<svg width="20" height="20" viewBox="0 0 20 20" fill="none" xmlns="http://www.w3.org/2000/svg">
<g id="date_range" clip-path="url(#clip0_19_1746)">
<path id="Vector" d="M5.83333 9.16663H7.5V10.8333H5.83333V9.16663ZM17.5 4.99996V16.6666C17.5 17.5833 16.75 18.3333 15.8333 18.3333H4.16667C3.24167 18.3333 2.5 17.5833 2.5 16.6666L2.50833 4.99996C2.50833 4.08329 3.24167 3.33329 4.16667 3.33329H5V1.66663H6.66667V3.33329H13.3333V1.66663H15V3.33329H15.8333C16.75 3.33329 17.5 4.08329 17.5 4.99996ZM4.16667 6.66663H15.8333V4.99996H4.16667V6.66663ZM15.8333 16.6666V8.33329H4.16667V16.6666H15.8333ZM12.5 10.8333H14.1667V9.16663H12.5V10.8333ZM9.16667 10.8333H10.8333V9.16663H9.16667V10.8333Z" fill="#666666"/>
</g>
<defs>
<clipPath id="clip0_19_1746">
<rect width="20" height="20" fill="white"/>
</clipPath>
</defs>
</svg>
