<svg width="25" height="25" viewBox="0 0 25 25" fill="none" xmlns="http://www.w3.org/2000/svg">
<g id="Dots vertical">
<path id="Icon" d="M12.5003 5.20817L12.5003 5.21859M12.5003 12.4998L12.5003 12.5103M12.5003 19.7915L12.5003 19.8019M12.5003 6.24984C11.925 6.24984 11.4587 5.78347 11.4587 5.20817C11.4587 4.63287 11.925 4.1665 12.5003 4.1665C13.0756 4.1665 13.542 4.63287 13.542 5.20817C13.542 5.78347 13.0756 6.24984 12.5003 6.24984ZM12.5003 13.5415C11.925 13.5415 11.4587 13.0751 11.4587 12.4998C11.4587 11.9245 11.925 11.4582 12.5003 11.4582C13.0756 11.4582 13.542 11.9245 13.542 12.4998C13.542 13.0751 13.0756 13.5415 12.5003 13.5415ZM12.5003 20.8332C11.925 20.8332 11.4587 20.3668 11.4587 19.7915C11.4587 19.2162 11.925 18.7498 12.5003 18.7498C13.0756 18.7498 13.542 19.2162 13.542 19.7915C13.542 20.3668 13.0756 20.8332 12.5003 20.8332Z" stroke="#111827" stroke-width="2" stroke-linecap="round" stroke-linejoin="round"/>
</g>
</svg>
