<svg width="25" height="25" viewBox="0 0 25 25" fill="none" xmlns="http://www.w3.org/2000/svg">
<g id="search 1" clip-path="url(#clip0_10_10761)">
<path id="Vector" d="M5.54053 15.1077L4.67031 18.3564L1.4897 18.4237C0.53916 16.6606 0 14.6435 0 12.4999C0 10.4271 0.504102 8.47245 1.39766 6.7513H1.39834L4.22998 7.27044L5.47041 10.0851C5.21079 10.842 5.06929 11.6545 5.06929 12.4999C5.06938 13.4175 5.2356 14.2967 5.54053 15.1077Z" fill="#FFBC00"/>
<path id="Vector_2" d="M24.7817 10.1648C24.9252 10.9209 25.0001 11.7019 25.0001 12.5C25.0001 13.3949 24.906 14.2678 24.7268 15.1099C24.1183 17.9752 22.5283 20.4773 20.3257 22.2479L20.325 22.2472L16.7584 22.0652L16.2536 18.9141C17.7151 18.057 18.8573 16.7156 19.459 15.1099H12.7749V10.1648H19.5565H24.7817Z" fill="#0086F8"/>
<path id="Vector_3" d="M20.3248 22.2474L20.3255 22.248C18.1833 23.9699 15.4621 25.0001 12.4999 25.0001C7.73962 25.0001 3.6009 22.3394 1.48962 18.4239L5.54045 15.1079C6.59607 17.9252 9.31379 19.9308 12.4999 19.9308C13.8694 19.9308 15.1524 19.5605 16.2533 18.9142L20.3248 22.2474Z" fill="#00A745"/>
<path id="Vector_4" d="M20.4788 2.87773L16.4293 6.19297C15.2899 5.48076 13.943 5.06934 12.5 5.06934C9.2418 5.06934 6.47324 7.16685 5.47051 10.0852L1.39839 6.75137H1.39771C3.47808 2.74038 7.66899 0 12.5 0C15.533 0 18.3139 1.08037 20.4788 2.87773Z" fill="#FF4031"/>
</g>
<defs>
<clipPath id="clip0_10_10761">
<rect width="25" height="25" fill="white"/>
</clipPath>
</defs>
</svg>
