<svg width="50" height="50" viewBox="0 0 50 50" fill="none" xmlns="http://www.w3.org/2000/svg">
<g id="Frame" clip-path="url(#clip0_193_2531)">
<g id="Group">
<g id="Clip path group">
<mask id="mask0_193_2531" style="mask-type:luminance" maskUnits="userSpaceOnUse" x="0" y="0" width="50" height="50">
<g id="a">
<path id="Vector" d="M0 0.000148773H49.9999V50H0V0.000148773Z" fill="white"/>
</g>
</mask>
<g mask="url(#mask0_193_2531)">
<g id="Group_2">
<path id="Vector_2" d="M30.0553 43.2056H19.9447V47.2606C19.9447 48.3717 20.8454 49.2725 21.9565 49.2725H28.0434C29.1545 49.2725 30.0553 48.3717 30.0553 47.2606V43.2056Z" fill="#EAF6FF"/>
<path id="Vector_3" d="M24.8857 49.2725H21.956C20.8456 49.2725 19.9443 48.3721 19.9443 47.2607V43.2051H22.874V47.2607C22.874 48.3721 23.7753 49.2725 24.8857 49.2725Z" fill="#D8ECFE"/>
<path id="Vector_4" d="M31.0668 43.1958H18.933C18.0954 43.1958 17.4164 42.5167 17.4164 41.6791C17.4164 40.8414 18.0954 40.1624 18.933 40.1624H31.0668C31.9044 40.1624 32.5834 40.8414 32.5834 41.6791C32.5834 42.5167 31.9044 43.1958 31.0668 43.1958Z" fill="#EAF6FF"/>
<path id="Vector_5" d="M21.8632 43.1953H18.9335C18.0956 43.1953 17.416 42.5166 17.416 41.6787C17.416 41.2598 17.5859 40.8809 17.8603 40.6065C18.1347 40.332 18.5146 40.1621 18.9335 40.1621H21.8632C21.4443 40.1621 21.0644 40.332 20.79 40.6065C20.6489 40.7471 20.537 40.9142 20.4608 41.0982C20.3845 41.2823 20.3454 41.4795 20.3456 41.6787C20.3456 42.5166 21.0253 43.1953 21.8632 43.1953Z" fill="#D8ECFE"/>
<path id="Vector_6" d="M27.5273 29.5664C27.5273 30.9629 26.3964 32.0947 25 32.0947V39.4502H19.9444V37.9697C19.9444 37.001 19.3916 36.1123 18.5156 35.6973C13.3838 33.2656 9.83301 28.0401 9.83301 21.9844V21.9668H14.8887V21.9834C14.8887 23.379 16.0205 24.5118 17.416 24.5118C18.8125 24.5118 19.9444 23.379 19.9444 21.9834V21.9668H25V27.0391C26.3964 27.0391 27.5273 28.1709 27.5273 29.5664Z" fill="#AEE69C"/>
<path id="Vector_7" d="M21.8974 37.9697V39.4502H19.9443V37.9697C19.9443 37.001 19.3915 36.1123 18.5155 35.6973C13.3837 33.2656 9.83289 28.0401 9.83289 21.9844V21.9668H11.786V21.9844C11.786 28.0401 15.3368 33.2656 20.4686 35.6973C21.3447 36.1123 21.8974 37.001 21.8974 37.9697Z" fill="#89DAA4"/>
<path id="Vector_8" d="M40.1669 21.9669V21.9835C40.1669 28.0371 36.62 33.2617 31.49 35.6944C30.6121 36.1104 30.0555 36.9981 30.0555 37.9697V40.167H24.9998V32.0948C26.3963 32.0948 27.5272 30.9629 27.5272 29.5664C27.5272 28.1709 26.3963 27.0391 24.9998 27.0391V21.9669H30.0555C30.0644 20.5782 31.1932 19.4551 32.5839 19.4551C33.9734 19.4551 35.1024 20.5782 35.1111 21.9669H40.1669Z" fill="#8AC9FE"/>
<path id="Vector_9" d="M40.1669 21.9668H35.1111C35.1024 20.5781 33.9734 19.4551 32.5839 19.4551C31.1932 19.4551 30.0644 20.5781 30.0555 21.9668H24.9998V16.9277C23.6035 16.9277 22.4726 15.7959 22.4726 14.3994C22.4726 13.003 23.6035 11.8721 24.9998 11.8721V6.81645C33.3709 6.81645 40.158 13.5977 40.1669 21.9668Z" fill="#FFE177"/>
<path id="Vector_10" d="M22.4726 14.3994C22.4726 15.7959 23.6035 16.9278 24.9999 16.9278V21.9668H19.9443V21.9834C19.9443 23.3789 18.8124 24.5117 17.416 24.5117C16.0205 24.5117 14.8886 23.3789 14.8886 21.9834V21.9668H9.83289C9.84177 13.5742 16.6074 6.81646 24.9999 6.81646V11.8721C23.6035 11.8721 22.4726 13.003 22.4726 14.3994Z" fill="#FE646F"/>
<path id="Vector_11" d="M24.9999 6.81645V6.94047C17.5352 7.89262 11.7939 14.2364 11.786 21.9668H9.83289C9.84177 13.5742 16.6075 6.81645 24.9999 6.81645Z" fill="#FD4755"/>
</g>
</g>
</g>
</g>
</g>
<defs>
<clipPath id="clip0_193_2531">
<rect width="50" height="50" fill="white"/>
</clipPath>
</defs>
</svg>
