<svg width="50" height="50" viewBox="0 0 50 50" fill="none" xmlns="http://www.w3.org/2000/svg">
<g id="Frame">
<g id="Group">
<path id="Vector" d="M45.7617 22.5679C45.7617 24.9304 45.3633 27.203 44.6258 29.3155C44.3989 29.2749 44.1688 29.2548 43.9383 29.2554H6.06252C5.82346 29.2554 5.5844 29.2757 5.35471 29.3249C4.60843 27.15 4.22775 24.8665 4.22815 22.5671C4.22815 19.896 4.72659 17.3444 5.65315 15.0023C8.42424 7.93585 14.9328 2.75226 22.7672 1.92491C23.5088 1.84522 24.2542 1.80558 25 1.80616C29.0892 1.80227 33.088 3.00925 36.4922 5.27491C38.4714 6.59887 40.2134 8.24664 41.6453 10.1491C43.1337 12.1376 44.2482 14.38 44.9344 16.7671C45.4852 18.6514 45.7638 20.6047 45.7617 22.5679Z" fill="#69D6F4"/>
<path id="Vector_2" d="M5.35394 30.1069C5.19121 30.1068 5.03259 30.0558 4.90023 29.9611C4.76787 29.8664 4.66839 29.7328 4.61566 29.5788C3.84185 27.3224 3.44718 24.9533 3.44769 22.5679C3.44769 19.8382 3.94613 17.1968 4.92816 14.7148C7.8766 7.19288 14.6813 1.99367 22.686 1.14913C23.4545 1.06589 24.227 1.02443 25 1.02492C29.2433 1.02026 33.3929 2.27268 36.925 4.62413C38.9797 5.99484 40.7868 7.70426 42.2696 9.6796C43.8183 11.7431 44.9762 14.0726 45.686 16.553C46.2573 18.5068 46.5462 20.5323 46.5438 22.5679C46.5438 24.9726 46.1461 27.3296 45.3633 29.5733C45.301 29.7486 45.1785 29.896 45.0178 29.9896C44.857 30.0831 44.6683 30.1167 44.4852 30.0843C44.3047 30.052 44.1217 30.0361 43.9383 30.0366H6.06254C5.86097 30.0366 5.67894 30.0538 5.52113 30.0882C5.46632 30.1009 5.41021 30.1072 5.35394 30.1069ZM25 2.58742C24.2719 2.58742 23.55 2.62648 22.8532 2.70226C15.4282 3.48585 9.11722 8.30851 6.38051 15.2882C5.46706 17.6062 5.0018 20.0764 5.00941 22.5679C5.00941 24.5749 5.30863 26.5601 5.90004 28.4773C5.95419 28.4757 6.00836 28.4749 6.06254 28.4749H43.9375L44.0805 28.4765C44.6797 26.5643 44.9832 24.5718 44.9805 22.5679C44.9805 20.6632 44.7125 18.7859 44.1836 16.9866C43.5262 14.6875 42.4533 12.5282 41.018 10.6155C39.6422 8.78219 37.9649 7.19583 36.0578 5.92413C32.7824 3.74417 28.9346 2.58311 25 2.58742Z" fill="black"/>
<g id="Group_2">
<path id="Vector_3" d="M26.236 6.64053C25.618 6.8499 24.7211 6.97959 23.4547 6.86006C21.4813 6.66084 20.2649 7.59756 19.5977 8.38506C19.1391 8.9335 18.4813 9.2124 17.7641 9.22256C16.5383 9.23272 14.4946 9.74053 12.3618 12.3522C9.46097 15.9007 14.2657 18.5819 15.7703 19.2991C16.0334 19.4263 16.3114 19.52 16.5977 19.578C18.3118 19.9765 19.3586 20.864 19.9868 21.7312C20.7047 22.7179 20.425 24.1335 19.4086 24.7913C17.375 26.1171 16.2493 27.7218 15.6414 29.2569H11.1961C11.1274 28.8642 11.0776 28.4685 11.0469 28.071C10.9071 26.2272 9.72113 24.8515 8.89379 24.0944C8.65802 23.8781 8.47653 23.6092 8.36401 23.3097C8.25149 23.0101 8.21111 22.6883 8.24613 22.3702C8.65472 18.7319 7.21957 16.4194 5.65472 15.0046C8.42582 7.93818 14.9344 2.75459 22.7688 1.92725C24.1205 2.8045 25.4003 3.7878 26.5961 4.86787C27.1828 5.40459 26.9938 6.38115 26.236 6.64053ZM45.7618 22.5679C45.7618 24.9304 45.3633 27.203 44.6258 29.3155C44.3989 29.2749 44.1688 29.2548 43.9383 29.2554H30.8508C30.8012 28.8386 30.8855 28.4169 31.0916 28.0513C31.2977 27.6857 31.6147 27.3952 31.9969 27.2218L32.0469 27.2116C32.2195 27.1335 32.3692 27.0125 32.4818 26.8602C32.5943 26.7078 32.666 26.5292 32.69 26.3413C32.714 26.1534 32.6894 25.9625 32.6187 25.7867C32.548 25.611 32.4334 25.4563 32.286 25.3374C31.668 24.839 31.0297 24.1913 30.4422 23.553C29.0868 22.078 29.2563 19.7554 30.7711 18.4601C32.4758 16.9749 34.2 15.9382 35.4657 15.2804C35.6531 15.1841 35.8598 15.1313 36.0704 15.1257C36.281 15.1201 36.4902 15.1618 36.6825 15.2479C36.8748 15.334 37.0453 15.4623 37.1814 15.6231C37.3175 15.784 37.4157 15.9733 37.4688 16.1772C37.5188 16.3866 37.5985 16.5858 37.6782 16.7952C38.4953 18.928 41.2266 19.6163 43.1 18.2702C43.7446 17.8104 44.3574 17.3077 44.9344 16.7655C45.4851 18.6504 45.7637 20.6042 45.7618 22.5679ZM41.6469 10.1507C38.5094 10.9413 35.5954 9.96631 33.8547 9.13584C33.693 9.05801 33.5551 8.9381 33.4556 8.78868C33.3562 8.63927 33.2987 8.46585 33.2893 8.28659C33.2798 8.10733 33.3188 7.92884 33.4021 7.76981C33.4853 7.61079 33.6098 7.47708 33.7625 7.38271C34.7516 6.78975 35.7008 6.01162 36.4914 5.27334C38.4734 6.59581 40.2167 8.245 41.6469 10.1507Z" fill="#B4DD7F"/>
</g>
<path id="Vector_4" d="M15.6414 30.0376H11.1961C11.0121 30.0375 10.8341 29.9725 10.6933 29.8541C10.5525 29.7356 10.4581 29.5712 10.4266 29.3899C10.3533 28.9727 10.3004 28.5521 10.268 28.1298C10.1524 26.6016 9.17035 25.4048 8.36644 24.6696C8.03888 24.3714 7.78678 23.9997 7.63086 23.585C7.47494 23.1704 7.41966 22.7246 7.46956 22.2845C7.77972 19.5212 6.993 17.2673 5.1305 15.5829C5.01281 15.4764 4.93033 15.3366 4.89405 15.1822C4.85776 15.0277 4.86939 14.8658 4.92738 14.7181C7.8766 7.19305 14.6813 1.99383 22.686 1.1493C22.8578 1.13211 23.0407 1.17352 23.1907 1.26961C24.5779 2.1694 25.8911 3.17833 27.118 4.2868C27.6071 4.73446 27.8164 5.38368 27.6821 6.02743C27.6191 6.33772 27.4757 6.626 27.2662 6.86336C27.0567 7.10073 26.7884 7.27882 26.4883 7.37977L26.4868 7.38055C25.6422 7.66649 24.5961 7.75321 23.3813 7.63758C22.0758 7.50633 21.0086 7.92821 20.193 8.88993C19.6047 9.59305 18.7446 9.98993 17.7735 10.0032C16.6289 10.0126 14.8711 10.5126 12.9664 12.8454C12.3438 13.6071 12.1196 14.3243 12.2797 15.0391C12.6821 16.8352 15.3102 18.2134 16.1063 18.5931C16.2938 18.6868 16.5149 18.761 16.761 18.8134C18.4 19.1938 19.7289 20.0431 20.6188 21.272C20.8491 21.5949 21.0117 21.9611 21.0969 22.3485C21.1822 22.7359 21.1882 23.1365 21.1148 23.5263C21.0413 23.9161 20.8898 24.287 20.6694 24.6168C20.4489 24.9466 20.1641 25.2284 19.8321 25.4454C18.1852 26.5196 17.018 27.8985 16.3664 29.5431C16.3093 29.6888 16.2095 29.8139 16.0802 29.9021C15.9509 29.9904 15.798 30.0376 15.6414 30.0376ZM11.8703 28.4751H15.1258C15.925 26.7423 17.2203 25.2845 18.9821 24.136C19.1381 24.0333 19.2717 23.9001 19.3748 23.7443C19.478 23.5886 19.5485 23.4135 19.5821 23.2298C19.6176 23.0502 19.6158 22.8652 19.5768 22.6863C19.5378 22.5074 19.4625 22.3385 19.3555 22.1899C18.6797 21.2571 17.6922 20.6345 16.4211 20.3384C16.0751 20.2668 15.7394 20.1521 15.4219 19.997C14.2078 19.4181 11.2969 17.797 10.7555 15.3798C10.4875 14.1829 10.825 12.997 11.7571 11.8563C14.0453 9.05477 16.2828 8.45165 17.7578 8.43993C18.1125 8.43524 18.6203 8.33446 18.9993 7.8829C19.8055 6.93211 21.2328 5.85008 23.5344 6.08133C24.7641 6.1993 25.5469 6.04774 25.9844 5.90008C26.0276 5.88631 26.0662 5.86109 26.0962 5.82711C26.1262 5.79314 26.1464 5.75167 26.1547 5.70711C26.1648 5.65931 26.1621 5.6097 26.1471 5.56324C26.132 5.51677 26.105 5.47507 26.0688 5.44227C24.9738 4.4538 23.8068 3.54818 22.5774 2.7329C15.4453 3.58446 9.37581 8.17118 6.57816 14.8063C8.01331 16.2688 9.44456 18.7079 9.02347 22.4556C9.00185 22.6498 9.02607 22.8464 9.09418 23.0295C9.16229 23.2127 9.27239 23.3773 9.41566 23.5102C10.4344 24.4423 11.6727 25.9735 11.8266 28.0102C11.836 28.1641 11.8516 28.3188 11.8703 28.4751ZM44.6258 30.097C44.5789 30.097 44.5321 30.0931 44.4844 30.0845C44.3039 30.0522 44.1209 30.0363 43.9375 30.0368H30.8508C30.6597 30.0368 30.4752 29.9668 30.3322 29.84C30.1893 29.7131 30.0978 29.5383 30.075 29.3485C30.0033 28.7663 30.1202 28.1765 30.4084 27.6656C30.6967 27.1548 31.1412 26.7498 31.6766 26.5102C31.7072 26.4962 31.7388 26.4845 31.7711 26.4751C31.8104 26.4502 31.8435 26.4169 31.8683 26.3776C31.893 26.3382 31.9087 26.2939 31.9141 26.2477C31.922 26.1899 31.9145 26.131 31.8924 26.077C31.8703 26.023 31.8344 25.9757 31.7883 25.9399C31.2352 25.4946 30.6227 24.9024 29.868 24.0837C29.4767 23.6596 29.1756 23.1603 28.9832 22.6162C28.7907 22.0722 28.7109 21.4947 28.7485 20.9188C28.7845 20.3348 28.9371 19.7639 29.1973 19.2398C29.4574 18.7157 29.8199 18.249 30.2633 17.8673C31.7416 16.5865 33.3668 15.4858 35.1047 14.5884C35.3956 14.4386 35.7163 14.3559 36.0434 14.3463C36.3704 14.3367 36.6954 14.4005 36.9946 14.5329C37.2935 14.6664 37.5589 14.8651 37.7713 15.1143C37.9836 15.3636 38.1376 15.6571 38.2219 15.9735C38.2664 16.1556 38.3274 16.3079 38.3875 16.4657C38.5297 16.8468 38.7591 17.1894 39.0572 17.4661C39.3554 17.7429 39.7141 17.946 40.1047 18.0595C40.5323 18.1868 40.9833 18.2151 41.4234 18.142C41.8635 18.0688 42.2811 17.8964 42.6446 17.6376C43.2606 17.1985 43.8461 16.7179 44.3969 16.1993C44.4943 16.108 44.6134 16.0431 44.743 16.0108C44.8726 15.9785 45.0082 15.9799 45.1371 16.0148C45.266 16.0497 45.3838 16.117 45.4793 16.2103C45.5748 16.3036 45.6449 16.4197 45.6828 16.5477C46.2547 18.5036 46.5441 20.5311 46.5422 22.5688C46.5422 24.9735 46.1446 27.3306 45.3618 29.5743C45.3084 29.727 45.209 29.8593 45.0771 29.953C44.9453 30.0466 44.7875 30.0969 44.6258 30.097ZM31.7532 28.4751H43.9375L44.0805 28.4766C44.6797 26.5645 44.9832 24.5719 44.9805 22.5681C44.9805 21.0845 44.818 19.6165 44.4961 18.1891C44.1914 18.4368 43.8774 18.6774 43.5547 18.9071C42.9969 19.304 42.356 19.5687 41.6807 19.681C41.0054 19.7934 40.3133 19.7505 39.6571 19.5556C38.3953 19.1774 37.4078 18.2735 36.9493 17.0766C36.8536 16.8438 36.7732 16.6051 36.7086 16.3618C36.684 16.2732 36.6398 16.1912 36.5794 16.1219C36.519 16.0525 36.4438 15.9976 36.3594 15.961C36.2736 15.9232 36.1803 15.9052 36.0866 15.9084C35.9928 15.9117 35.901 15.9361 35.818 15.9798C34.6821 16.5696 32.9664 17.586 31.2844 19.0509C30.9971 19.2947 30.7624 19.5944 30.5945 19.9318C30.4266 20.2692 30.3291 20.6371 30.3078 21.0134C30.2835 21.3795 30.3338 21.7468 30.4558 22.0929C30.5777 22.4389 30.7687 22.7566 31.0172 23.0266C31.7172 23.7868 32.2766 24.329 32.7766 24.7313C33.2946 25.1602 33.5485 25.8009 33.4633 26.4509C33.4219 26.7688 33.2999 27.0708 33.1091 27.3284C32.9182 27.586 32.6648 27.7905 32.3727 27.9227C32.3347 27.9406 32.2952 27.9553 32.2547 27.9665C32.0392 28.0804 31.864 28.258 31.7532 28.4751ZM39.2508 11.2259C36.9844 11.2259 34.9657 10.5313 33.5188 9.84149C33.2305 9.70363 32.9846 9.49076 32.8069 9.22518C32.6291 8.95961 32.5261 8.65111 32.5086 8.33203C32.4911 8.01295 32.5598 7.69504 32.7074 7.41162C32.855 7.12821 33.0762 6.88973 33.3477 6.72118C34.1836 6.21961 35.0578 5.54305 35.9586 4.70243C36.0873 4.58235 36.2527 4.50923 36.4281 4.49491C36.6035 4.48059 36.7786 4.5259 36.925 4.62352C38.9818 5.994 40.79 7.70494 42.2719 9.6829C42.3492 9.78586 42.3999 9.90632 42.4194 10.0336C42.4389 10.1608 42.4266 10.291 42.3837 10.4123C42.3408 10.5337 42.2686 10.6426 42.1734 10.7294C42.0783 10.8161 41.9632 10.878 41.8383 10.9095C40.9922 11.1212 40.1231 11.2275 39.2508 11.2259ZM36.5594 6.26727C35.7391 6.99071 34.9368 7.58915 34.1657 8.05243C34.1335 8.07321 34.1076 8.10238 34.0908 8.13681C34.074 8.17123 34.0669 8.20959 34.0703 8.24774C34.0717 8.28703 34.084 8.32517 34.106 8.35778C34.1279 8.39038 34.1586 8.41615 34.1946 8.43211C35.6828 9.14227 37.8524 9.8618 40.2164 9.61258C39.1396 8.35136 37.9113 7.22778 36.5594 6.26727Z" fill="black"/>
<path id="Vector_5" d="M47.9242 33.2431V44.2071C47.9228 45.264 47.5023 46.2772 46.755 47.0246C46.0076 47.7719 44.9944 48.1924 43.9375 48.1938H6.06253C5.53892 48.1941 5.02042 48.0911 4.53663 47.8908C4.05285 47.6905 3.61327 47.3969 3.24303 47.0266C2.87279 46.6564 2.57914 46.2168 2.37886 45.733C2.17858 45.2492 2.0756 44.7307 2.07581 44.2071V33.2431C2.07496 32.3089 2.40312 31.4043 3.00271 30.688C3.6023 29.9717 4.43501 29.4895 5.35471 29.3259C5.58362 29.2759 5.82346 29.2563 6.06253 29.2563H43.9375C44.9944 29.2578 46.0076 29.6783 46.755 30.4256C47.5023 31.173 47.9228 32.1862 47.9242 33.2431Z" fill="#ED5565"/>
<path id="Vector_6" opacity="0.2" d="M3.668 44.2071V33.2431C3.66715 32.3089 3.99531 31.4043 4.5949 30.688C5.19449 29.9717 6.0272 29.4895 6.9469 29.3259C7.17581 29.2759 7.41565 29.2563 7.65471 29.2563H6.06253C5.82346 29.2563 5.5844 29.2767 5.35471 29.3259C4.43495 29.4893 3.60215 29.9715 3.00253 30.6879C2.40291 31.4042 2.07481 32.3089 2.07581 33.2431V44.2071C2.0756 44.7307 2.17858 45.2492 2.37886 45.733C2.57914 46.2168 2.87279 46.6564 3.24303 47.0266C3.61327 47.3969 4.05285 47.6905 4.53663 47.8908C5.02042 48.0911 5.53893 48.1941 6.06253 48.1938H7.6555C7.13186 48.1941 6.61331 48.0911 6.12948 47.8908C5.64566 47.6905 5.20603 47.3969 4.83573 47.0267C4.46542 46.6564 4.1717 46.2169 3.97133 45.7331C3.77097 45.2493 3.66789 44.7308 3.668 44.2071Z" fill="black"/>
<path id="Vector_7" d="M43.9375 48.9751H6.06252C4.79822 48.9737 3.58611 48.4708 2.69211 47.5768C1.79811 46.6828 1.29522 45.4707 1.29377 44.2064V33.2431C1.29133 32.1249 1.6836 31.0417 2.40147 30.1843C3.11934 29.327 4.11675 28.7504 5.21799 28.5564C5.45549 28.504 5.74924 28.4751 6.06174 28.4751H43.9367C44.5632 28.474 45.1838 28.5965 45.7628 28.8357C46.3419 29.0749 46.868 29.4261 47.311 29.869C47.754 30.312 48.1053 30.8381 48.3446 31.4171C48.5839 31.996 48.7065 32.6166 48.7055 33.2431V44.2071C48.704 45.4712 48.2012 46.6831 47.3074 47.577C46.4135 48.4709 45.2016 48.9737 43.9375 48.9751ZM6.06252 30.0376C5.86096 30.0376 5.67893 30.0548 5.52112 30.0892C3.96487 30.3649 2.85705 31.6884 2.85705 33.2431V44.2071C2.85809 45.0572 3.19622 45.8721 3.79729 46.4732C4.39835 47.0742 5.21327 47.4123 6.0633 47.4134H43.9383C44.7883 47.4123 45.6033 47.0742 46.2043 46.4732C46.8054 45.8721 47.1435 45.0572 47.1446 44.2071V33.2431C47.145 32.822 47.0623 32.4049 46.9014 32.0158C46.7405 31.6267 46.5044 31.2731 46.2067 30.9753C45.9089 30.6775 45.5554 30.4413 45.1663 30.2803C44.7772 30.1192 44.3602 30.0365 43.9391 30.0368H6.06252V30.0376Z" fill="black"/>
<path id="Vector_8" d="M9.85394 35.3375L13.1883 40.3836V35.2906C13.1883 34.9594 13.2594 34.7117 13.4016 34.5461C13.5438 34.3805 13.7352 34.2977 13.9766 34.2977C14.2258 34.2977 14.4227 34.3805 14.5664 34.5461C14.7102 34.7117 14.7828 34.9602 14.7828 35.2906V42.0242C14.7828 42.7758 14.4711 43.1516 13.8485 43.1516C13.693 43.1516 13.5524 43.1289 13.4282 43.0844C13.3039 43.0398 13.1868 42.9687 13.0774 42.8711C12.968 42.7734 12.8672 42.6602 12.7735 42.5297C12.6797 42.3992 12.5868 42.2656 12.493 42.1297L9.23988 37.1422V42.1586C9.23988 42.4859 9.1641 42.7328 9.01176 42.9C8.9385 42.9818 8.84824 43.0467 8.7473 43.09C8.64636 43.1333 8.53717 43.1541 8.42738 43.1508C8.18207 43.1508 7.98519 43.0664 7.83754 42.8969C7.68988 42.7273 7.61566 42.4812 7.61566 42.1578V35.5523C7.61566 35.2719 7.64691 35.0523 7.70941 34.8922C7.78363 34.7172 7.90629 34.5742 8.07738 34.4633C8.24847 34.3523 8.43363 34.2969 8.63207 34.2969C8.78754 34.2969 8.92113 34.3219 9.03207 34.3727C9.14301 34.4234 9.24066 34.4914 9.32426 34.5773C9.40785 34.6633 9.49379 34.7742 9.58129 34.9102L9.85394 35.3375ZM22.3227 35.7812H18.4157V37.8836H22.0133C22.2782 37.8836 22.4758 37.943 22.6063 38.0617C22.7368 38.1805 22.8016 38.3375 22.8016 38.532C22.8016 38.7266 22.7375 38.8852 22.6086 39.0078C22.4805 39.1305 22.2813 39.1914 22.0133 39.1914H18.4157V41.6266H22.4571C22.7297 41.6266 22.9352 41.6898 23.0735 41.8164C23.2118 41.943 23.2805 42.1117 23.2805 42.3219C23.2805 42.5242 23.2118 42.6891 23.0735 42.8156C22.9352 42.9422 22.7297 43.0055 22.4571 43.0055H17.7438C17.3664 43.0055 17.0946 42.9219 16.9289 42.7547C16.7633 42.5875 16.6805 42.3164 16.6805 41.943V35.507C16.6805 35.2578 16.7172 35.0547 16.7914 34.8969C16.8657 34.7391 16.9813 34.6242 17.1391 34.5523C17.2969 34.4805 17.4985 34.4445 17.7438 34.4445H22.3227C22.5993 34.4445 22.8047 34.5055 22.9391 34.6281C23.0735 34.7508 23.1407 34.9117 23.1407 35.1102C23.1444 35.2012 23.1283 35.2919 23.0935 35.3761C23.0587 35.4603 23.006 35.5359 22.9391 35.5977C22.8039 35.7203 22.5985 35.7812 22.3227 35.7812ZM30.7203 41.6562L29.336 36.5234L27.9344 41.657C27.825 42.0461 27.7391 42.3258 27.6743 42.4953C27.6102 42.6648 27.4977 42.8164 27.3383 42.9508C27.1789 43.0852 26.9664 43.1523 26.7016 43.1523C26.4875 43.1523 26.311 43.1125 26.1727 43.0328C26.0344 42.9531 25.9227 42.8398 25.8368 42.6937C25.7508 42.5477 25.6813 42.3742 25.6266 42.1742C25.5719 41.9734 25.5235 41.7875 25.4805 41.6164L24.0555 35.8523C23.9696 35.5172 23.9274 35.2625 23.9274 35.0875C23.9274 34.8656 24.0055 34.6789 24.161 34.5266C24.2371 34.4517 24.3276 34.393 24.4269 34.3538C24.5262 34.3146 24.6324 34.2958 24.7391 34.2984C25.0547 34.2984 25.2664 34.4 25.3758 34.6023C25.4852 34.8047 25.5805 35.0984 25.6618 35.4844L26.7829 40.4836L28.0383 35.8055C28.1321 35.4477 28.2157 35.175 28.2891 34.9875C28.3625 34.8 28.4836 34.6391 28.6508 34.5031C28.818 34.3672 29.0461 34.2984 29.3344 34.2984C29.6266 34.2984 29.8532 34.3695 30.0149 34.5117C30.1766 34.6539 30.2883 34.8086 30.3508 34.9758C30.4133 35.143 30.4969 35.4195 30.6016 35.8055L31.8688 40.4836L32.9899 35.4844C33.0446 35.2234 33.0961 35.0187 33.1446 34.8711C33.193 34.7234 33.2766 34.5906 33.3953 34.4742C33.5141 34.357 33.6868 34.2992 33.9125 34.2992C34.1383 34.2992 34.3297 34.3742 34.4875 34.5242C34.6453 34.6742 34.7243 34.8617 34.7243 35.0875C34.7243 35.2469 34.6813 35.5023 34.5961 35.8523L33.1711 41.6164C33.0735 42.0055 32.993 42.2906 32.9289 42.4719C32.8649 42.6531 32.7555 42.8117 32.6016 42.9477C32.4477 43.0836 32.2305 43.1523 31.95 43.1523C31.6852 43.1523 31.4735 43.0859 31.3133 42.9539C31.1539 42.8219 31.043 42.6727 30.9805 42.507C30.918 42.3414 30.8336 42.0578 30.7203 41.6562ZM42.3836 40.4359C42.3836 40.9539 42.25 41.4187 41.9836 41.832C41.7172 42.2453 41.3266 42.568 40.8125 42.8016C40.2985 43.0352 39.6891 43.1523 38.9844 43.1523C38.1399 43.1523 37.4422 42.993 36.8938 42.6734C36.5083 42.4474 36.1828 42.132 35.9446 41.7539C35.7016 41.3703 35.5797 40.9977 35.5797 40.6352C35.5797 40.425 35.6524 40.2445 35.7985 40.0953C35.8707 40.0211 35.9576 39.9628 36.0537 39.924C36.1497 39.8853 36.2528 39.867 36.3563 39.8703C36.5391 39.8703 36.6938 39.9289 36.8203 40.0453C36.9469 40.1625 37.0547 40.3352 37.1446 40.5648C37.2539 40.8375 37.3711 41.0648 37.4977 41.2484C37.6243 41.4312 37.8024 41.582 38.0321 41.7008C38.2618 41.8195 38.5633 41.8789 38.9375 41.8789C39.4516 41.8789 39.8688 41.7594 40.1899 41.5195C40.511 41.2805 40.6719 40.9812 40.6719 40.6234C40.6719 40.3391 40.5852 40.1086 40.4118 39.9312C40.2383 39.7539 40.0149 39.6187 39.7399 39.525C39.4657 39.4312 39.0985 39.332 38.6391 39.2273C38.0243 39.0836 37.5094 38.9148 37.0946 38.7219C36.6797 38.5289 36.3508 38.2664 36.1078 37.9336C35.8649 37.6008 35.743 37.1867 35.743 36.6922C35.743 36.2211 35.8711 35.8023 36.1282 35.4367C36.3852 35.0711 36.7571 34.7891 37.2438 34.593C37.7305 34.3961 38.3032 34.2977 38.961 34.2977C39.4868 34.2977 39.9414 34.3625 40.325 34.493C40.7086 34.6234 41.0266 34.7969 41.2797 35.0125C41.5328 35.2289 41.718 35.4555 41.8344 35.693C41.9516 35.9305 42.0094 36.1625 42.0094 36.3883C42.0094 36.5945 41.9368 36.7805 41.7907 36.9461C41.6446 37.1117 41.4625 37.1945 41.2446 37.1945C41.0461 37.1945 40.8953 37.1445 40.7922 37.0453C40.6891 36.9461 40.5774 36.7836 40.4563 36.5578C40.3008 36.2344 40.1133 35.9828 39.8954 35.8016C39.6774 35.6203 39.3266 35.5297 38.8438 35.5297C38.3961 35.5297 38.0352 35.6281 37.7602 35.825C37.486 36.0219 37.3485 36.2578 37.3485 36.5344C37.3485 36.7055 37.3953 36.8539 37.4883 36.9781C37.5821 37.1023 37.7102 37.2102 37.8735 37.2992C38.0368 37.3891 38.2024 37.4586 38.3696 37.5094C38.5368 37.5602 38.8133 37.6336 39.1993 37.7312C39.6821 37.8445 40.1188 37.9687 40.5102 38.1047C40.9016 38.2406 41.2344 38.4062 41.5086 38.6008C41.7828 38.7953 41.9969 39.0414 42.1508 39.3398C42.3063 39.6391 42.3836 40.0039 42.3836 40.4359Z" fill="black"/>
<path id="Vector_9" opacity="0.2" d="M6.95551 22.5679C6.95551 19.8968 7.45395 17.3452 8.38051 15.003C11.1516 7.93662 17.6602 2.75303 25.4946 1.92568C25.8598 1.88557 26.2261 1.85587 26.593 1.83662C26.3219 1.82646 26.0539 1.80615 25.7813 1.80615C25.0235 1.80615 24.2766 1.846 23.5485 1.92568C15.7141 2.75303 9.20551 7.93584 6.4352 15.003C5.48703 17.4121 5.00351 19.9789 5.0102 22.5679C5.0102 24.9304 5.40864 27.203 6.13676 29.3257C6.36567 29.2757 6.60551 29.2562 6.84457 29.2562H8.06176C7.32918 27.1024 6.95545 24.8428 6.95551 22.5679Z" fill="black"/>
</g>
</g>
</svg>
