<svg width="50" height="50" viewBox="0 0 50 50" fill="none" xmlns="http://www.w3.org/2000/svg">
<g id="Frame" clip-path="url(#clip0_193_2730)">
<g id="Group">
<path id="Vector" d="M38.3067 39.0469L26.8228 32.2463C26.234 31.8973 26.0395 31.137 26.3884 30.548L26.9759 29.5563L24.6525 28.1818C23.1199 27.3022 22.4031 27.1396 21.0204 27.6742L19.5134 28.2568C19.0607 28.4318 18.5743 28.5019 18.0907 28.4616C17.6071 28.4214 17.1389 28.272 16.7214 28.0247L12.6878 25.6465L6.95898 35.3163L12.1239 38.3647C12.4738 38.572 12.781 38.8439 13.0293 39.1659L14.7697 41.423C15.7311 42.5474 17.7149 44.0058 18.9877 44.7598L25.6305 48.6951C26.5073 49.2146 27.6392 48.9249 28.1586 48.048C28.678 47.1712 28.3884 46.0394 27.5115 45.5199L29.5868 46.7494C30.4637 47.2688 31.5955 46.9792 32.1149 46.1023C32.6344 45.2255 32.3447 44.0937 31.4679 43.5742L32.8514 44.3938C33.7282 44.9133 34.8601 44.6236 35.3795 43.7468C35.8989 42.8699 35.6093 41.7381 34.7324 41.2187L36.4258 42.2218C37.3025 42.7412 38.4343 42.4515 38.9537 41.5748C39.4731 40.698 39.1835 39.5662 38.3067 39.0469Z" fill="#F9EAE2"/>
<path id="Vector_2" d="M38.3067 39.0473L34.1025 36.5576C34.0775 36.5427 34.0476 36.5383 34.0193 36.5451C33.9909 36.552 33.9664 36.5696 33.9509 36.5943C33.9284 36.6301 33.9289 36.675 33.9505 36.7114C34.3115 37.3193 34.3229 38.1076 33.8935 38.7447C33.3537 39.5456 32.2621 39.7554 31.4311 39.2631L30.8023 38.8907C30.7712 38.8723 30.7369 38.8602 30.7012 38.8552C30.6655 38.8502 30.6291 38.8522 30.5942 38.8613C30.5593 38.8704 30.5266 38.8862 30.4979 38.908C30.4691 38.9298 30.445 38.9571 30.4269 38.9882C30.4056 39.0248 30.3931 39.0658 30.3904 39.108C30.3877 39.1503 30.3949 39.1925 30.4114 39.2315C30.6196 39.722 30.5744 40.4061 30.3401 40.9269C30.0038 41.6744 29.1259 42.1872 28.1871 41.631L27.9141 41.4693C27.8227 41.4152 27.7169 41.3905 27.6111 41.3987C27.5053 41.4069 27.4045 41.4475 27.3226 41.515C27.147 41.515 27.0511 41.6506 27.0995 41.8194C27.1728 42.0732 27.1923 42.3395 27.1567 42.6013C27.121 42.863 27.0311 43.1144 26.8926 43.3394C26.3454 44.2314 25.162 44.4891 24.2616 43.9557L23.5207 43.5167C23.4522 43.4762 23.3712 43.4619 23.2929 43.4768C23.2146 43.4916 23.1444 43.5344 23.0954 43.5972C23.0649 43.6362 23.0437 43.6817 23.0335 43.7302C23.0233 43.7786 23.0243 43.8288 23.0365 43.8768C23.1578 44.3485 23.0997 44.8663 22.8318 45.3184C22.5271 45.8329 22.0176 46.1502 21.4687 46.2301L25.5924 48.6732C26.4532 49.1833 27.583 48.9481 28.1233 48.1059C28.6905 47.2217 28.4076 46.0513 27.5116 45.5205L29.5488 46.7274C30.4097 47.2375 31.5396 47.0023 32.0798 46.1601C32.647 45.2759 32.3641 44.1055 31.4681 43.5747L32.8516 44.3943C33.7284 44.9137 34.8603 44.6241 35.3797 43.7472C35.8991 42.8704 35.6095 41.7385 34.7326 41.2191L36.3877 42.1997C37.2485 42.7096 38.3782 42.4746 38.9184 41.6325C39.4856 40.7484 39.2026 39.5781 38.3067 39.0473Z" fill="#F5DBCC"/>
<path id="Vector_3" d="M37.3121 26.2241L34.2142 28.0248C33.7966 28.2722 33.3285 28.4216 32.8449 28.4618C32.3612 28.502 31.8748 28.432 31.4222 28.257L29.7227 27.5894C29.1911 27.3805 28.6075 27.3436 28.0538 27.4837L25.4498 28.1427C24.2376 28.4494 23.3885 29.5402 23.3885 30.7906V34.2667C23.3885 34.7582 23.7867 35.1579 24.2782 35.1582C25.7603 35.1592 26.962 33.958 26.962 32.4762V32.329L38.108 38.9295C38.3148 38.7091 38.5517 38.5191 38.8116 38.365L43.0409 35.894L37.3121 26.2241Z" fill="#ECB784"/>
<g id="Group_2">
<path id="Vector_4" d="M14.3875 40.4129L13.3426 41.8685C12.7484 42.6961 11.5958 42.8854 10.7682 42.2912C9.94053 41.6971 9.75127 40.5445 10.3454 39.7168L11.3903 38.2613C11.9845 37.4336 13.1371 37.2444 13.9647 37.8385C14.7924 38.4326 14.9816 39.5853 14.3875 40.4129Z" fill="#ECB784"/>
<path id="Vector_5" d="M18.5379 40.9583L16.3396 44.0202C15.7455 44.8479 14.5929 45.0371 13.7652 44.443C12.9376 43.8488 12.7483 42.6962 13.3425 41.8686L15.5407 38.8067C16.1349 37.979 17.2875 37.7898 18.1151 38.3839C18.9428 38.9781 19.132 40.1307 18.5379 40.9583Z" fill="#ECB784"/>
<path id="Vector_6" d="M21.535 43.1097L19.3367 46.1716C18.7426 46.9992 17.5899 47.1885 16.7623 46.5944C15.9347 46.0002 15.7454 44.8476 16.3396 44.0199L18.5378 40.958C19.1319 40.1304 20.2846 39.9411 21.1122 40.5353C21.9398 41.1295 22.1291 42.2821 21.535 43.1097ZM23.5554 46.622L22.8244 47.6402C22.2303 48.4678 21.0776 48.6571 20.25 48.0629C19.4224 47.4688 19.2331 46.3161 19.8272 45.4885L20.5582 44.4703C21.1523 43.6427 22.305 43.4534 23.1326 44.0476C23.9603 44.6417 24.1495 45.7944 23.5554 46.622Z" fill="#ECB784"/>
</g>
<path id="Vector_7" d="M48.0116 17.5593L34.874 25.3904C34.1354 25.8306 33.8924 26.7856 34.3307 27.5253L40.338 37.6656C40.7779 38.4081 41.7373 38.6523 42.4787 38.2104L48.2147 34.7912C48.5357 34.5999 48.8014 34.3286 48.9859 34.0038C49.1705 33.6789 49.2675 33.3117 49.2675 32.9381V18.2729C49.2676 17.6283 48.5653 17.2293 48.0116 17.5593Z" fill="#407093"/>
<path id="Vector_8" d="M43.041 20.5222V30.0532C43.041 31.3062 42.7156 32.5377 42.0967 33.6272C41.4778 34.7167 40.5866 35.6267 39.5103 36.2682L40.3381 37.6655C40.778 38.4081 41.7374 38.6522 42.4788 38.2103L48.2148 34.7912C48.5358 34.5999 48.8015 34.3286 48.986 34.0037C49.1706 33.6789 49.2676 33.3117 49.2676 32.9381V18.2728C49.2676 17.6282 48.5653 17.2293 48.0116 17.5594L43.041 20.5222Z" fill="#365E7D"/>
<path id="Vector_9" d="M1.98838 17.5593L15.126 25.3903C15.8645 25.8305 16.1076 26.7855 15.6693 27.5252L9.66201 37.6656C9.22207 38.4081 8.26269 38.6523 7.52129 38.2104L1.78516 34.7911C1.46424 34.5999 1.19851 34.3285 1.01397 34.0037C0.829431 33.6788 0.732415 33.3116 0.732422 32.938V18.2729C0.732422 17.6283 1.43467 17.2293 1.98838 17.5593Z" fill="#407093"/>
<path id="Vector_10" d="M33.3957 18.6674H16.6043C15.486 18.6674 14.5796 17.7608 14.5796 16.6427V6.65215C14.5796 5.53389 15.4861 4.62744 16.6043 4.62744H33.3958C34.5141 4.62744 35.4205 5.53398 35.4205 6.65215V16.6427C35.4205 17.7608 34.514 18.6674 33.3957 18.6674Z" fill="#DDB7A0"/>
<path id="Vector_11" d="M33.3957 4.62744H27.2175C28.3357 4.62744 29.2422 5.53389 29.2422 6.65215V16.6427C29.2422 17.7608 28.3356 18.6674 27.2175 18.6674H33.3957C34.514 18.6674 35.4204 17.7609 35.4204 16.6427V6.65215C35.4205 5.53398 34.514 4.62744 33.3957 4.62744Z" fill="#D6A889"/>
<path id="Vector_12" d="M35.4205 7.51875V6.65205C35.4204 5.53389 34.514 4.62744 33.3958 4.62744H16.6042C15.486 4.62744 14.5796 5.53389 14.5795 6.65205V7.51875C14.5795 9.54502 16.2222 11.1877 18.2484 11.1877H31.7516C33.7778 11.1876 35.4205 9.54502 35.4205 7.51875Z" fill="#CC9675"/>
<path id="Vector_13" d="M29.2423 6.65225V11.1877H31.7516C33.7778 11.1877 35.4205 9.54502 35.4205 7.51875V6.65205C35.4204 5.53389 34.514 4.62744 33.3958 4.62744H27.2176C28.3357 4.62754 29.2423 5.53408 29.2423 6.65225Z" fill="#C4845C"/>
<path id="Vector_14" d="M47.6366 16.9301L34.499 24.7611C33.5291 25.3392 33.1406 26.5286 33.5318 27.5498C32.9444 27.7968 32.284 27.8059 31.69 27.575L29.9905 26.9073C29.3167 26.6411 28.5761 26.5942 27.8741 26.7734L25.2702 27.4323C25.17 27.4577 25.071 27.4874 24.9735 27.5216C23.3827 26.6134 22.4351 26.3419 20.7563 26.991L19.2492 27.5737C18.537 27.8489 17.7518 27.7836 17.0933 27.3936L16.5898 27.0968C16.7343 26.1961 16.33 25.2553 15.501 24.7612L2.36338 16.9301C1.32168 16.3094 0 17.0586 0 18.2728V32.938C0 33.9507 0.540332 34.9018 1.41016 35.4202L7.14629 38.8395C8.21328 39.4753 9.58486 39.1456 10.249 38.1087L10.4942 38.2534L9.75049 39.2895C8.91973 40.4464 9.18389 42.0551 10.341 42.886C10.913 43.2966 11.6101 43.4515 12.2931 43.3302C12.3977 44.0213 12.7699 44.6297 13.3382 45.0377C13.9086 45.4472 14.6101 45.6013 15.2912 45.4805C15.3915 46.144 15.7484 46.7681 16.3354 47.1894C17.1262 47.7571 18.1067 47.8033 18.9027 47.4441C19.0778 47.9294 19.3947 48.3504 19.8229 48.6578C20.9352 49.4563 22.4775 49.2407 23.3305 48.1839L25.2571 49.3253C25.6534 49.5608 26.1058 49.685 26.5667 49.6848C27.448 49.6848 28.3079 49.2332 28.7888 48.4215C28.9856 48.0903 29.1051 47.7189 29.1386 47.3351L29.2136 47.3795C29.8061 47.7305 30.4998 47.8299 31.1666 47.659C31.8337 47.4883 32.3943 47.068 32.7452 46.4757C32.9594 46.116 33.0823 45.7094 33.1032 45.2913C33.5325 45.4113 33.9878 45.4168 34.4312 45.3034C35.0983 45.1327 35.659 44.7124 36.0099 44.1201C36.2114 43.7817 36.3323 43.4015 36.3632 43.0088C37.5322 43.5036 38.9196 43.0694 39.584 41.9481C40.1674 40.9633 40.0179 39.7441 39.2988 38.9283L40.0539 38.4872C40.7698 39.21 41.9222 39.3946 42.8538 38.8394L44.2405 38.0127C44.406 37.9126 44.5252 37.7511 44.572 37.5634C44.6189 37.3758 44.5896 37.1772 44.4906 37.0111C44.3916 36.8449 44.2309 36.7247 44.0435 36.6766C43.8562 36.6285 43.6574 36.6565 43.4906 36.7544L42.1039 37.5811C41.777 37.7761 41.3789 37.7166 41.1224 37.482C41.1176 37.4407 34.9608 27.1518 34.9608 27.1518C34.7289 26.7603 34.8582 26.2523 35.249 26.0193L48.3866 18.1883C48.4015 18.1792 48.4185 18.1743 48.436 18.174C48.4534 18.1737 48.4706 18.1781 48.4857 18.1867C48.5009 18.1954 48.5135 18.2079 48.5222 18.223C48.5309 18.2381 48.5353 18.2552 48.5352 18.2727V32.9379C48.5352 33.4372 48.2687 33.9063 47.8398 34.1618L46.4552 34.9872C46.3726 35.0365 46.3004 35.1015 46.243 35.1786C46.1855 35.2557 46.1437 35.3434 46.1201 35.4366C46.0724 35.6249 46.1015 35.8245 46.201 35.9913C46.3004 36.1582 46.4621 36.2787 46.6504 36.3264C46.8387 36.3741 47.0382 36.345 47.2051 36.2455L48.5897 35.4201C49.4596 34.9017 49.9999 33.9506 49.9999 32.9379V18.2728C50 17.0603 48.6796 16.3083 47.6366 16.9301ZM28.2334 28.1934C28.6386 28.0901 29.066 28.1172 29.4549 28.2707L31.1581 28.9399C32.1747 29.3329 33.285 29.2898 34.2535 28.8322L39.2476 37.2619L38.4383 37.7348C38.2914 37.8218 38.1503 37.9183 38.016 38.0237L27.3353 31.6986C27.224 31.6327 27.0974 31.5975 26.9681 31.5964C26.8389 31.5953 26.7117 31.6285 26.5994 31.6925C26.4871 31.7565 26.3937 31.8491 26.3288 31.9609C26.2639 32.0726 26.2297 32.1996 26.2297 32.3288V32.476C26.2304 32.7322 26.1803 32.9861 26.0822 33.2228C25.9841 33.4595 25.84 33.6745 25.6582 33.8551C25.4776 34.0366 25.2628 34.1805 25.0263 34.2784C24.7897 34.3763 24.5361 34.4264 24.2801 34.4257C24.1955 34.4226 24.121 34.3547 24.1209 34.2665V30.7905C24.1206 30.4253 24.2205 30.067 24.4096 29.7546C24.5987 29.4422 24.8699 29.1877 25.1936 29.0186C25.2259 29.0055 25.2573 28.9902 25.2875 28.9727C25.3977 28.9224 25.5121 28.8822 25.6295 28.8525L28.2334 28.1934ZM8.52412 37.6723C8.41864 37.6994 8.30883 37.7053 8.20106 37.6896C8.09329 37.674 7.98969 37.6371 7.89629 37.5811L2.16016 34.1619C1.94864 34.0351 1.77348 33.8558 1.65166 33.6413C1.52984 33.4269 1.46549 33.1846 1.46484 32.938V18.2728C1.46484 18.2572 1.46484 18.2156 1.51455 18.1874C1.52952 18.1784 1.54659 18.1735 1.56406 18.1732C1.58789 18.1732 1.60498 18.1833 1.61338 18.1883L14.7511 26.0193C15.1419 26.2523 15.2713 26.7603 15.0393 27.1519L9.03184 37.2922C8.97661 37.386 8.90328 37.468 8.81612 37.5332C8.72896 37.5984 8.62971 37.6457 8.52412 37.6723ZM12.0242 41.8901C11.8801 41.9141 11.7326 41.9094 11.5903 41.8761C11.448 41.8428 11.3137 41.7816 11.1952 41.696C11.0763 41.6111 10.9754 41.5035 10.8983 41.3794C10.8213 41.2552 10.7696 41.117 10.7463 40.9728C10.7222 40.8286 10.7269 40.6812 10.7602 40.5389C10.7935 40.3966 10.8548 40.2623 10.9403 40.1439L11.9853 38.6883C12.0107 38.6528 12.0381 38.6193 12.0668 38.5877C12.0885 38.5683 12.1091 38.5473 12.1286 38.525C12.5082 38.1695 13.0995 38.119 13.5376 38.4334C14.0358 38.7911 14.1502 39.4875 13.7925 39.9858L13.7907 39.9882L12.7475 41.4413C12.6626 41.5602 12.5549 41.6611 12.4308 41.7381C12.3066 41.8152 12.1685 41.8668 12.0242 41.8901ZM14.1924 43.8477C14.0735 43.7628 13.9725 43.6552 13.8955 43.531C13.8184 43.4069 13.7668 43.2687 13.7435 43.1244C13.7194 42.9803 13.7241 42.8328 13.7574 42.6905C13.7907 42.5483 13.8519 42.414 13.9375 42.2955L14.9824 40.84L14.9825 40.8399L16.1356 39.2336C16.2205 39.1147 16.3282 39.0137 16.4523 38.9366C16.5765 38.8596 16.7147 38.8079 16.859 38.7846C16.9193 38.7746 16.9804 38.7696 17.0416 38.7697C17.2724 38.7697 17.4968 38.8414 17.688 38.9787C18.1862 39.3363 18.3006 40.0327 17.9429 40.5311L15.7446 43.593C15.3869 44.0911 14.6905 44.2051 14.1924 43.8477ZM18.0185 46.1934C17.8743 46.2174 17.7269 46.2127 17.5846 46.1794C17.4423 46.1461 17.308 46.0849 17.1896 45.9993C16.6913 45.6417 16.577 44.9453 16.9347 44.4471L16.9364 44.4446L19.1329 41.3851C19.4905 40.8867 20.1869 40.7727 20.6853 41.1302C20.8042 41.2151 20.9051 41.3227 20.9822 41.4469C21.0592 41.5711 21.1109 41.7093 21.1342 41.8535C21.1582 41.9977 21.1535 42.1451 21.1202 42.2874C21.0869 42.4297 21.0257 42.564 20.9401 42.6824L18.7419 45.7444C18.657 45.8633 18.5493 45.9642 18.4251 46.0413C18.301 46.1184 18.1627 46.1701 18.0185 46.1934ZM20.6771 47.4678C20.5581 47.3829 20.4572 47.2753 20.3801 47.1511C20.3031 47.0269 20.2514 46.8887 20.2281 46.7445C20.2039 46.5997 20.2088 46.4516 20.2425 46.3087C20.2762 46.1659 20.338 46.0312 20.4243 45.9125L21.1539 44.8963C21.5119 44.399 22.2075 44.2851 22.7054 44.6425C23.2036 45.0002 23.318 45.6966 22.9603 46.1948L22.5423 46.7771C22.5379 46.7829 22.5336 46.789 22.5294 46.795L22.2293 47.2131C21.8718 47.7112 21.1755 47.8256 20.6771 47.4678ZM38.3237 41.2015C38.0109 41.7293 37.3267 41.9044 36.7992 41.5916L35.106 40.5886L35.1037 40.5873L29.8596 37.4805C29.6925 37.3815 29.4929 37.3529 29.3047 37.4011C29.1165 37.4492 28.9552 37.5701 28.8562 37.7372C28.8071 37.82 28.7749 37.9116 28.7612 38.0068C28.7476 38.102 28.7528 38.1989 28.7767 38.2921C28.8005 38.3853 28.8425 38.4729 28.9002 38.5498C28.9579 38.6268 29.0301 38.6916 29.1129 38.7406L34.3594 41.8489L34.3595 41.8489L34.3602 41.8493C34.8875 42.1623 35.0622 42.8459 34.7497 43.3736C34.5981 43.6293 34.3562 43.8108 34.0682 43.8844C33.7802 43.958 33.4807 43.9154 33.2249 43.7637L31.8447 42.9461L31.8414 42.9441L31.8393 42.9428L27.9759 40.654C27.8931 40.605 27.8015 40.5727 27.7063 40.5591C27.6111 40.5455 27.5142 40.5507 27.421 40.5746C27.3278 40.5984 27.2402 40.6404 27.1633 40.698C27.0863 40.7557 27.0215 40.828 26.9725 40.9108C26.9234 40.9935 26.8912 41.0851 26.8775 41.1803C26.8639 41.2755 26.8692 41.3725 26.893 41.4657C26.9168 41.5588 26.9588 41.6464 27.0165 41.7234C27.0742 41.8003 27.1465 41.8652 27.2292 41.9142L31.0927 44.2031L31.0949 44.2044C31.2209 44.2786 31.3309 44.377 31.4186 44.494C31.5063 44.6109 31.5699 44.7441 31.6058 44.8859C31.6795 45.1739 31.6365 45.4734 31.4851 45.7291C31.3336 45.9849 31.0916 46.1663 30.8035 46.24C30.662 46.2766 30.5146 46.2848 30.3699 46.2641C30.2251 46.2434 30.0859 46.1942 29.9604 46.1194L27.889 44.8922L27.8851 44.8898L26.3702 43.9924C26.2874 43.9429 26.1957 43.9102 26.1003 43.8962C26.0048 43.8823 25.9076 43.8873 25.8141 43.911C25.7206 43.9347 25.6327 43.9767 25.5555 44.0344C25.4782 44.0922 25.4131 44.1647 25.364 44.2477C25.3148 44.3307 25.2826 44.4226 25.269 44.5181C25.2555 44.6136 25.2609 44.7108 25.285 44.8042C25.3092 44.8976 25.3515 44.9853 25.4096 45.0622C25.4678 45.1392 25.5405 45.204 25.6237 45.2528L27.1385 46.1501L27.1405 46.1513C27.667 46.4646 27.8412 47.1475 27.5289 47.6748C27.2159 48.2028 26.5319 48.3777 26.0042 48.0652L24.1911 46.991C24.9703 45.8411 24.6952 44.2675 23.5601 43.4525C23.2252 43.2115 22.837 43.055 22.4286 42.9962C22.6038 42.5631 22.6575 42.0891 22.5799 41.6163C22.4684 40.937 22.0989 40.3418 21.5397 39.9404C20.9529 39.5192 20.2475 39.3805 19.5867 39.4976C19.4864 38.8341 19.1295 38.21 18.5426 37.7887C17.9833 37.3872 17.3015 37.2277 16.622 37.3391C16.0546 37.4322 15.546 37.7053 15.1599 38.1186C14.9745 37.7718 14.7118 37.4724 14.3922 37.2434C13.5169 36.6151 12.3776 36.6155 11.5165 37.1558L10.9972 36.8492L15.9804 28.4378L16.3483 28.6547C16.9672 29.0214 17.6575 29.2074 18.353 29.2074C18.8328 29.2074 19.315 29.1189 19.7778 28.94L21.2849 28.3573C22.1857 28.0093 22.6695 27.9928 23.5791 28.4353C22.9852 29.0757 22.6555 29.917 22.6563 30.7905V34.2665C22.6563 35.1614 23.3838 35.8899 24.278 35.8906H24.2803C25.1919 35.8906 26.049 35.5357 26.6939 34.8912C27.0854 34.5001 27.3701 34.0307 27.5337 33.5184L37.7353 39.5596C37.7689 39.5796 37.8037 39.5965 37.8393 39.6106C37.8686 39.6348 37.9 39.6571 37.9338 39.6771C38.4613 39.9898 38.6364 40.6737 38.3237 41.2015Z" fill="black"/>
<path id="Vector_15" d="M16.6042 19.3997H33.3957C34.916 19.3997 36.1528 18.1629 36.1528 16.6426V6.65215C36.1528 5.13184 34.916 3.89502 33.3957 3.89502H29.3535V2.73447C29.3535 1.40068 28.2686 0.31543 26.9349 0.31543H23.0648C21.7313 0.31543 20.6462 1.40059 20.6462 2.73447V3.89502H16.604C15.0837 3.89502 13.8469 5.13184 13.8469 6.65215V12.1556C13.8469 12.5602 14.1748 12.888 14.5793 12.888C14.9838 12.888 15.3117 12.5602 15.3117 12.1556V10.7943C16.0912 11.4938 17.1209 11.9199 18.2481 11.9199H18.8214V12.7256C18.8214 13.1302 19.1493 13.458 19.5538 13.458C19.9583 13.458 20.2862 13.1302 20.2862 12.7256V11.9199H29.7133V12.7256C29.7133 13.1302 30.0411 13.458 30.4457 13.458C30.8503 13.458 31.1781 13.1302 31.1781 12.7256V11.9199H31.7513C32.8786 11.9199 33.9083 11.4938 34.6878 10.7943V16.6425C34.6878 17.3551 34.108 17.9348 33.3955 17.9348H16.6042C15.8916 17.9348 15.3119 17.355 15.3119 16.6425V15.5796C15.3119 15.175 14.984 14.8472 14.5795 14.8472C14.175 14.8472 13.8471 15.175 13.8471 15.5796V16.6425C13.8471 18.1629 15.0839 19.3997 16.6042 19.3997ZM22.1112 2.73447C22.1112 2.2083 22.5391 1.78027 23.065 1.78027H26.9351C27.461 1.78027 27.8889 2.2083 27.8889 2.73447V3.89502H22.1113L22.1112 2.73447ZM31.7516 10.4551H31.1784V9.64941C31.1784 9.24482 30.8506 8.91699 30.446 8.91699C30.0414 8.91699 29.7136 9.24482 29.7136 9.64941V10.4551H20.2865V9.64941C20.2865 9.24482 19.9586 8.91699 19.5541 8.91699C19.1496 8.91699 18.8217 9.24482 18.8217 9.64941V10.4551H18.2484C16.6293 10.4551 15.312 9.13779 15.312 7.51865V6.65215C15.312 5.93955 15.8917 5.35986 16.6043 5.35986H33.3958C34.1084 5.35986 34.6881 5.93965 34.6881 6.65215V7.51865C34.6881 9.13779 33.3708 10.4551 31.7516 10.4551Z" fill="black"/>
</g>
</g>
<defs>
<clipPath id="clip0_193_2730">
<rect width="50" height="50" fill="white"/>
</clipPath>
</defs>
</svg>
