<svg width="50" height="50" viewBox="0 0 50 50" fill="none" xmlns="http://www.w3.org/2000/svg">
<g id="Frame">
<g id="Group">
<path id="Vector" d="M12.2734 23.6485L8.73437 13.4532C8.58468 12.8561 8.21495 12.3376 7.69921 12.0015C7.18348 11.6654 6.55983 11.5365 5.95312 11.6407C5.642 11.707 5.3476 11.8358 5.08775 12.0193C4.82791 12.2029 4.60804 12.4372 4.44148 12.7083C4.27492 12.9793 4.16514 13.2813 4.1188 13.596C4.07245 13.9107 4.09051 14.2316 4.17187 14.5391L7.8125 25.7813L12.2734 23.6485ZM37.7266 23.6485L41.2656 13.4532C41.4153 12.8561 41.7851 12.3376 42.3008 12.0015C42.8165 11.6654 43.4402 11.5365 44.0469 11.6407C44.358 11.707 44.6524 11.8358 44.9122 12.0193C45.1721 12.2029 45.392 12.4372 45.5585 12.7083C45.7251 12.9793 45.8349 13.2813 45.8812 13.596C45.9275 13.9107 45.9095 14.2316 45.8281 14.5391L42.1875 25.7813L37.7266 23.6485Z" fill="#FFAC96"/>
<path id="Vector_2" d="M19.5672 27.8766L12.6609 23.8282C12.183 23.5522 11.6229 23.454 11.0797 23.5511C10.5364 23.6482 10.0449 23.9342 9.69219 24.3587L7.17187 16.5782C7.02218 15.9811 6.65245 15.4626 6.13671 15.1265C5.62098 14.7904 4.99733 14.6615 4.39062 14.7657C4.0795 14.832 3.7851 14.9608 3.52525 15.1443C3.26541 15.3279 3.04554 15.5622 2.87898 15.8333C2.71242 16.1043 2.60264 16.4063 2.5563 16.721C2.50995 17.0357 2.52801 17.3566 2.60937 17.6641L6.00781 30.3438C6.1637 30.9368 6.49282 31.47 6.95312 31.8751L12.2344 36.5704C12.5639 36.8638 12.8275 37.2236 13.008 37.6262C13.1884 38.0289 13.2815 38.4651 13.2812 38.9063V41.4063H22.6562V33.2688C22.6563 32.1787 22.3713 31.1075 21.8294 30.1616C21.2875 29.2157 20.5076 28.428 19.5672 27.8766ZM45.6094 14.7657C45.0027 14.6615 44.379 14.7904 43.8633 15.1265C43.3476 15.4626 42.9778 15.9811 42.8281 16.5782L40.3047 24.3587C39.9519 23.9342 39.4605 23.6482 38.9172 23.5511C38.3739 23.454 37.8138 23.5522 37.3359 23.8282L30.4297 27.8766C29.4898 28.4283 28.7106 29.2162 28.1693 30.1621C27.6279 31.108 27.3434 32.179 27.3437 33.2688V41.4063H36.7188V38.9063C36.7185 38.4651 36.8116 38.0289 36.992 37.6262C37.1725 37.2236 37.4361 36.8638 37.7656 36.5704L43.0469 31.8751C43.5072 31.47 43.8363 30.9368 43.9922 30.3438L47.3906 17.6641C47.472 17.3566 47.49 17.0357 47.4437 16.721C47.3974 16.4063 47.2876 16.1043 47.121 15.8333C46.9545 15.5622 46.7346 15.3279 46.4747 15.1443C46.2149 14.9608 45.9205 14.832 45.6094 14.7657Z" fill="#FFBCAB"/>
<path id="Vector_3" d="M26.5625 41.4062V47.6562H37.5V41.4062H27.3438H26.5625ZM23.4375 41.4062H12.5V47.6562H23.4375V41.4062Z" fill="#006DF0"/>
<path id="Vector_4" d="M35.5 14.5001L34.9453 15.0548L25 25.0001L15.0547 15.0548L14.5 14.5001C13.8243 13.8523 13.2848 13.0761 12.9131 12.217C12.5414 11.358 12.345 10.4333 12.3353 9.49736C12.3256 8.56138 12.503 7.63289 12.8569 6.76634C13.2108 5.89979 13.7342 5.11262 14.3963 4.45101C15.0584 3.78939 15.846 3.26664 16.7128 2.91341C17.5797 2.56019 18.5083 2.38359 19.4443 2.39399C20.3802 2.40438 21.3047 2.60156 22.1635 2.97395C23.0223 3.34634 23.798 3.88645 24.4453 4.56261L25 5.1173L25.5547 4.56261C26.202 3.88645 26.9777 3.34634 27.8365 2.97395C28.6953 2.60156 29.6197 2.40438 30.5557 2.39399C31.4917 2.38359 32.4203 2.56019 33.2872 2.91341C34.154 3.26664 34.9416 3.78939 35.6037 4.45101C36.2658 5.11262 36.7892 5.89979 37.1431 6.76634C37.497 7.63289 37.6743 8.56138 37.6647 9.49736C37.655 10.4333 37.4586 11.358 37.0869 12.217C36.7151 13.0761 36.1756 13.8523 35.5 14.5001Z" fill="#D80027"/>
<path id="Vector_5" d="M35.5 4.56262C34.7567 3.81143 33.852 3.23954 32.8546 2.89042C31.8571 2.54129 30.7933 2.42411 29.7437 2.54778C31.0595 2.6936 32.3073 3.20816 33.3435 4.03218C34.3796 4.8562 35.1618 5.95616 35.6001 7.20533C36.0384 8.45451 36.1148 9.80209 35.8207 11.0928C35.5265 12.3836 34.8737 13.565 33.9375 14.5009L33.3828 15.0556L24.2188 24.2189L25 25.0001L34.9453 15.0548L35.5 14.5001C36.8167 13.1818 37.5563 11.3947 37.5563 9.53137C37.5563 7.66808 36.8167 5.88098 35.5 4.56262Z" fill="#BD0022"/>
<path id="Vector_6" d="M26.5625 17.1875V14.0625H29.6875V10.9375H26.5625V7.8125H23.4375V10.9375H20.3125V14.0625H23.4375V17.1875H26.5625Z" fill="#F1F2F2"/>
<g id="Group_2">
<path id="Vector_7" d="M39.6828 26.3283L34.4609 29.2189C34.3117 29.3054 34.201 29.4455 34.1515 29.6107C34.102 29.7759 34.1174 29.9537 34.1945 30.108C34.2358 30.1905 34.2934 30.2637 34.364 30.3231C34.4346 30.3824 34.5166 30.4267 34.6049 30.4532C34.6932 30.4797 34.786 30.4878 34.8776 30.4771C34.9692 30.4664 35.0577 30.437 35.1375 30.3908L39.6828 27.8908C40.1574 27.6157 40.5204 27.1829 40.7087 26.6677C40.897 26.1525 40.8986 25.5876 40.7133 25.0713C40.5325 25.6008 40.1666 26.0472 39.6828 26.3283ZM10.3172 26.3283L15.5391 29.2189C15.6883 29.3054 15.799 29.4455 15.8485 29.6107C15.898 29.7759 15.8826 29.9537 15.8055 30.108C15.7642 30.1905 15.7066 30.2637 15.636 30.3231C15.5654 30.3824 15.4834 30.4267 15.3951 30.4532C15.3068 30.4797 15.2139 30.4878 15.1223 30.4771C15.0308 30.4664 14.9423 30.437 14.8625 30.3908L10.3172 27.8908C9.84263 27.6157 9.4796 27.1829 9.29131 26.6677C9.10301 26.1525 9.10139 25.5876 9.28672 25.0713C9.46747 25.6008 9.83341 26.0472 10.3172 26.3283Z" fill="#FFAC96"/>
</g>
</g>
</g>
</svg>
