<svg width="50" height="50" viewBox="0 0 50 50" fill="none" xmlns="http://www.w3.org/2000/svg">
<g id="Frame" clip-path="url(#clip0_193_2711)">
<g id="Group">
<path id="Vector" d="M21.9952 39.3493C32.6431 39.3493 41.2748 30.7175 41.2748 20.0697C41.2748 9.42182 32.6431 0.790039 21.9952 0.790039C11.3474 0.790039 2.7156 9.42182 2.7156 20.0697C2.7156 30.7175 11.3474 39.3493 21.9952 39.3493Z" fill="#FF8D5C"/>
<path id="Vector_2" d="M28.2355 1.82275C31.6752 11.9069 26.2888 22.87 16.2047 26.3097C12.1669 27.687 7.78641 27.687 3.74858 26.3097C7.19658 36.3854 18.1597 41.7582 28.2355 38.3103C38.3113 34.8624 43.6841 23.8991 40.2361 13.8234C39.2837 11.0402 37.7071 8.51186 35.6271 6.4318C33.5471 4.35175 31.0187 2.77518 28.2355 1.82275Z" fill="#FF774D"/>
<path id="Vector_3" d="M48.5206 34.5488C48.8925 33.4842 49.1781 32.3913 49.3746 31.2808C49.4512 30.8407 49.401 30.3878 49.2301 29.9751C49.0591 29.5623 48.7743 29.2066 48.4089 28.9495C47.4846 28.3031 46.5096 27.7321 45.4936 27.2422L46.2 30.8955L48.5206 34.5488Z" fill="#B56959"/>
<path id="Vector_4" d="M20.1428 47.8246C18.4822 47.1861 16.9094 46.339 15.4625 45.3037C15.1075 45.0474 14.8308 44.6975 14.6632 44.293C14.4957 43.8885 14.4439 43.4454 14.5138 43.0132C14.8041 41.2625 15.3154 39.5557 16.0353 37.9336L19.0962 42.879L20.1428 47.8246Z" fill="#A85B4A"/>
<path id="Vector_5" d="M23.4173 48.7908C26.8971 49.5127 31.2263 49.467 36.1322 47.435C41.8528 45.0654 45.14 41.3276 47.0268 37.9052L45.4936 31.4006L42.0692 25.9267C38.3146 24.8398 33.3454 24.5199 27.6224 26.8904C22.7162 28.9226 19.6225 31.9519 17.6724 34.9231L19.7264 42.1856L23.4173 48.7908Z" fill="#B56959"/>
<path id="Vector_6" d="M36.8338 45.1121C28.6387 45.112 21.9431 38.5685 21.7546 30.3755C20.1729 31.6776 18.7967 33.2108 17.6723 34.9234L19.7263 42.1859L23.4173 48.791C26.8971 49.5129 31.2263 49.4673 36.1322 47.4352C38.0315 46.6588 39.8202 45.6352 41.4518 44.3909C39.9593 44.87 38.4013 45.1134 36.8338 45.1121Z" fill="#A85B4A"/>
<path id="Vector_7" d="M42.0636 25.9263L47.0256 37.9054C47.6177 36.8303 48.1178 35.707 48.5205 34.5476L45.4951 27.2435C44.3905 26.7084 43.2426 26.2677 42.0636 25.9263Z" fill="#F2F2FF"/>
<path id="Vector_8" d="M20.1293 47.8189C21.1968 48.2321 22.2965 48.5569 23.4173 48.7899L17.6736 34.9233C17.0458 35.8806 16.4978 36.8878 16.0353 37.9349L20.1293 47.8189Z" fill="#CCCCF0"/>
<path id="Vector_9" d="M8.85326 46.9867C13.4158 46.9867 17.1144 43.2881 17.1144 38.7255C17.1144 34.163 13.4158 30.4644 8.85326 30.4644C4.29074 30.4644 0.592085 34.163 0.592085 38.7255C0.592085 43.2881 4.29074 46.9867 8.85326 46.9867Z" fill="#F2F2FF"/>
<path id="Vector_10" d="M12.5733 31.3472C11.839 37.1431 6.93973 41.5077 1.09792 41.5703C2.67016 45.8535 7.41688 48.0512 11.7001 46.479C15.9833 44.9067 18.1809 40.16 16.6087 35.8768C15.8866 33.9098 14.4441 32.2907 12.5733 31.3472Z" fill="#E6E6FF"/>
<path id="Vector_11" d="M48.7493 28.4657C47.7989 27.8005 46.7963 27.2132 45.7513 26.7097C44.6222 26.1633 43.4492 25.7128 42.2447 25.3629C42.2409 25.3617 42.2376 25.3596 42.2337 25.3585C41.8995 25.2617 41.563 25.173 41.2246 25.0925C41.6513 23.4523 41.867 21.7643 41.8664 20.0695C41.8664 9.11248 32.9523 0.198242 21.9952 0.198242C11.0381 0.198242 2.12399 9.11257 2.12399 20.0696C2.11717 23.8206 3.17802 27.4961 5.1826 30.6665C4.52891 30.9659 3.91386 31.3434 3.35086 31.7906C-0.47933 34.8293 -1.12084 40.3977 1.91789 44.2278C4.95661 48.0579 10.5249 48.6995 14.3551 45.6608C14.4646 45.5739 14.5721 45.4844 14.6774 45.3924C15.0347 45.7793 23.9467 53.123 36.3586 47.9816C41.3363 45.9199 45.0999 42.6258 47.5448 38.191L47.544 38.1906C48.1519 37.0866 48.6654 35.9333 49.079 34.7429C49.4619 33.6482 49.7556 32.5243 49.9575 31.3823C50.0518 30.8317 49.9884 30.2656 49.7746 29.7495C49.5608 29.2334 49.2053 28.7884 48.7493 28.4657ZM48.7918 31.1794C48.6964 31.724 48.5778 32.2644 48.4365 32.7989L46.6721 28.5394C47.1501 28.8174 47.616 29.1157 48.0685 29.4335C48.3415 29.6266 48.5543 29.893 48.6823 30.202C48.8103 30.5109 48.8482 30.8498 48.7918 31.1794ZM40.0648 24.8484C39.605 24.7644 39.1425 24.6957 38.6781 24.6422C38.5266 17.6534 34.8722 13.4633 32.3207 10.3954C31.1096 8.93913 30.0371 7.64788 29.4111 6.36307C32.3589 6.5119 34.6748 7.42521 36.6802 8.5238C38.4696 10.7971 39.7067 13.4548 40.2941 16.2877C40.8814 19.1205 40.8029 22.051 40.0648 24.8484ZM29.3252 25.6323C29.2044 20.9606 28.2021 13.8677 23.1702 7.09385C24.7824 6.65476 26.44 6.40444 28.11 6.34792C28.7543 7.95566 29.9926 9.44648 31.4111 11.152C34.1221 14.4116 37.3245 18.2643 37.4978 24.5398C34.7293 24.389 31.957 24.7596 29.3252 25.6323ZM34.5695 6.25656C32.7778 5.56686 30.8809 5.19026 28.9615 5.14321C28.776 4.34546 28.7633 3.51724 28.9243 2.71418C31.0027 3.54797 32.9147 4.74776 34.5695 6.25656ZM27.8001 2.30567C27.5867 3.24164 27.5704 4.21179 27.7524 5.15438C25.9311 5.24803 24.1273 5.55718 22.3788 6.07536C21.1093 4.49406 19.6682 3.05849 18.082 1.795C21.3097 1.10493 24.6625 1.28111 27.8001 2.30567ZM16.6071 2.17454C17.2299 2.60871 19.1003 4.00666 21.155 6.45235C19.931 6.85585 18.1165 7.44575 15.3861 9.23763C13.1449 7.20405 10.5818 6.82593 8.76351 6.88538C10.9479 4.69016 13.643 3.07148 16.6071 2.17454ZM7.57783 8.19178C8.98372 7.96854 11.9047 7.84196 14.3823 9.93149C8.11775 14.476 5.25549 20.795 4.08704 25.423C2.30699 19.4564 3.61595 12.9952 7.57783 8.19178ZM4.84878 27.5144C5.37649 24.4815 7.47548 16.3143 15.2372 10.7748C16.8323 12.6655 16.3394 14.6589 15.555 17.8311C14.7012 21.2837 13.6103 25.7031 14.7225 32.1052C13.5962 31.1047 12.2332 30.4083 10.7625 30.082C9.29179 29.7557 7.76213 29.8102 6.31839 30.2404C5.75368 29.3741 5.26211 28.4623 4.84878 27.5144ZM1.23406 37.848C1.43077 36.0975 2.22853 34.4694 3.49135 33.2413C3.64774 33.6748 3.77933 34.1168 3.88548 34.5653L3.02225 35.0977C2.34969 35.5127 2.98429 36.5109 3.6434 36.1048L4.12993 35.8047C4.22176 36.4015 4.28046 37.003 4.30592 37.6063L3.45576 37.5084C2.67878 37.4193 2.54235 38.5943 3.32038 38.6838L4.31558 38.7985C4.29552 39.5521 4.22913 40.3037 4.11677 41.0491L3.33571 40.5995C2.65719 40.2083 2.06776 41.2347 2.74533 41.6249L3.89059 42.2842C3.75689 42.9038 3.5941 43.5168 3.40274 44.1211C2.59256 43.306 1.97678 42.3186 1.60128 41.2325C1.22578 40.1463 1.10026 38.9894 1.23406 37.848ZM7.97574 46.3449C6.67684 46.1977 5.43757 45.7192 4.37693 44.9551C4.55217 44.4326 4.76622 43.7491 4.96617 42.9032L5.45772 43.1862C6.12971 43.5735 6.73296 42.5552 6.0481 42.1608L5.21715 41.6824C5.37714 40.7746 5.47325 39.8566 5.50477 38.9354L6.38741 39.037C7.16458 39.1269 7.301 37.9511 6.52279 37.8617L5.50553 37.7446C5.47922 36.8668 5.38576 35.9923 5.22596 35.1287L6.37216 34.4217C7.038 34.0109 6.41789 33.0039 5.75101 33.4146L4.94752 33.9102C4.81554 33.4114 4.65054 32.9219 4.45361 32.445C7.63207 30.2145 11.9768 30.7164 14.5631 33.6126C14.2639 34.0315 13.9928 34.4697 13.7516 34.9244L13.0816 34.259C12.5262 33.7068 11.6927 34.5472 12.2478 35.0984L13.2041 36.0483C12.8523 36.8527 12.5626 37.6829 12.3375 38.5315L11.3192 38.4142C10.5422 38.3237 10.4056 39.5001 11.1838 39.5896L12.0686 39.6915C11.8891 40.5956 11.7735 41.5113 11.7226 42.4316L10.8042 42.7088C10.0521 42.9358 10.3992 44.0673 11.146 43.8416L11.6892 43.6777C11.6916 44.5493 11.7424 45.2368 11.7967 45.8095C10.59 46.3123 9.27424 46.4966 7.97574 46.3449ZM12.9344 45.2185C12.8863 44.5864 12.868 43.9523 12.8796 43.3183L14.142 42.9375C14.8927 42.7109 14.5477 41.5786 13.8002 41.8046L12.9412 42.0637C13.002 41.3129 13.1088 40.5665 13.2611 39.8287L14.2509 39.9427C15.028 40.0325 15.1645 38.8568 14.3862 38.7673L13.5422 38.6701C13.7042 38.0899 13.8978 37.519 14.1222 36.96L14.5226 37.3577C15.0708 37.9027 15.9183 37.0764 15.3565 36.5184L14.6411 35.8076C14.8452 35.3964 15.0721 34.9968 15.3207 34.6108C17.5958 38.1777 16.5486 42.9136 12.9817 45.1887L12.9344 45.2185ZM15.5148 44.5561C16.1794 43.8007 16.7086 42.9364 17.0793 42.0012L19.0278 46.7053C17.3647 45.9264 15.8201 44.904 15.5148 44.5561ZM20.5781 47.3564L17.591 40.1449C17.7897 38.9283 17.7305 37.6834 17.4171 36.4912C17.4679 36.4003 17.5177 36.3089 17.5698 36.2187L22.4278 47.9471C21.8022 47.7796 21.185 47.5825 20.5781 47.3564ZM35.9057 46.8885C31.8592 48.5647 27.8024 49.029 23.8432 48.272L18.3416 34.9901C19.1439 33.8078 20.0719 32.7158 21.1093 31.7333C21.6782 31.1952 20.8643 30.3356 20.2961 30.8738C19.1159 31.9905 18.0694 33.2405 17.1777 34.5988C17.1755 34.6022 17.1744 34.6059 17.1722 34.6094C17.0793 34.7511 16.9882 34.894 16.8991 35.0381C16.7351 34.6833 16.5478 34.3397 16.3386 34.0096C14.6578 26.9393 15.6532 22.3628 16.7035 18.1153C17.4813 14.9697 18.1058 12.437 16.2193 10.1092C18.8665 8.40385 20.7028 7.8323 21.9515 7.44405C27.0362 14.07 28.0582 21.1202 28.146 26.0477C26.7585 26.5701 25.4197 27.2136 24.1451 27.9708C23.4657 28.3767 24.0876 29.3835 24.7519 28.9864C28.3533 26.835 34.538 24.4701 41.6267 26.418L46.3689 37.8667C44.0541 41.9356 40.5357 44.9706 35.9057 46.8885ZM47.0827 36.4974L43.0997 26.8814C43.7577 27.1155 44.4036 27.3818 45.0353 27.6795L47.8873 34.5646C47.6509 35.2217 47.3824 35.8667 47.0827 36.4974Z" fill="black"/>
<path id="Vector_12" d="M22.5117 30.3697C22.8384 30.3697 23.1033 30.1049 23.1033 29.7781C23.1033 29.4514 22.8384 29.1865 22.5117 29.1865C22.1849 29.1865 21.92 29.4514 21.92 29.7781C21.92 30.1049 22.1849 30.3697 22.5117 30.3697Z" fill="black"/>
<path id="Vector_13" d="M39.713 29.2961C38.4216 29.5081 37.1126 29.7925 35.7861 30.1495L35.3982 29.2131C35.0987 28.4906 34.0053 28.9422 34.305 29.6658L34.6397 30.4739C33.2518 30.8868 31.8536 31.3753 30.4451 31.9394L30.1221 31.1599C29.8225 30.4358 28.7298 30.8902 29.0291 31.6126L29.3519 32.3918C27.9604 32.9869 26.6262 33.6301 25.3496 34.3215L25.015 33.5139C24.7148 32.7892 23.623 33.2452 23.9219 33.9666L24.3094 34.9021C23.5313 35.3502 22.768 35.8235 22.0207 36.3214C21.3615 36.761 22.0346 37.7347 22.6772 37.3056C23.36 36.8507 24.0567 36.4171 24.7664 36.0054L25.2111 37.0789C25.5101 37.8012 26.6052 37.3526 26.3042 36.6262L25.8047 35.4204C27.0752 34.728 28.4085 34.0828 29.8046 33.4849L30.3182 34.7249C30.6173 35.4471 31.7124 34.9986 31.4113 34.2722L30.8978 33.0324C32.3061 32.4683 33.7051 31.9816 35.0948 31.5725L35.5942 32.7781C35.8936 33.5009 36.988 33.0512 36.6873 32.3254L36.2427 31.2518C37.4781 30.925 38.6987 30.6623 39.9047 30.4635C40.6766 30.337 40.4866 29.1697 39.713 29.2961Z" fill="black"/>
</g>
</g>
<defs>
<clipPath id="clip0_193_2711">
<rect width="50" height="50" fill="white"/>
</clipPath>
</defs>
</svg>
