<svg width="50" height="50" viewBox="0 0 50 50" fill="none" xmlns="http://www.w3.org/2000/svg">
<g id="Frame" clip-path="url(#clip0_193_2632)">
<g id="Group">
<path id="Vector" d="M25.2218 36.3283H24.7782C21.9374 36.3283 19.5821 34.1067 19.4163 31.2708L17.92 5.68467C17.8341 4.21445 18.3643 2.75703 19.3747 1.68574C20.3852 0.614355 21.8093 0 23.2819 0H26.7181C28.1906 0 29.6147 0.614355 30.6252 1.68564C31.6357 2.75693 32.1659 4.21455 32.0801 5.68457L30.5839 31.2708C30.4179 34.1068 28.0625 36.3283 25.2218 36.3283Z" fill="#FF674F"/>
<path id="Vector_2" d="M25.2218 36.3283C28.0626 36.3283 30.4179 34.1068 30.5838 31.2708L32.08 5.68457C32.1659 4.21445 31.6356 2.75693 30.6252 1.68564C29.6147 0.614355 28.1906 0 26.7181 0H25V36.3283H25.2218Z" fill="#F2472C"/>
<path id="Vector_3" d="M25 49.9999C22.0384 49.9999 19.6289 47.5904 19.6289 44.6289C19.6289 41.6673 22.0384 39.2578 25 39.2578C27.9616 39.2578 30.3711 41.6673 30.3711 44.6288C30.3711 47.5904 27.9616 49.9999 25 49.9999Z" fill="#FF674F"/>
<path id="Vector_4" d="M25 39.2578V49.9999C27.9616 49.9999 30.3711 47.5904 30.3711 44.6288C30.3711 41.6673 27.9616 39.2578 25 39.2578Z" fill="#F2472C"/>
<path id="Vector_5" d="M14.7865 39.234C14.2824 39.234 13.792 38.9738 13.5197 38.507C12.3415 36.4867 11.7188 34.1795 11.7188 31.8351C11.7188 29.4906 12.3415 27.1834 13.5197 25.1632C13.9272 24.4645 14.824 24.228 15.523 24.6359C16.2219 25.0434 16.458 25.9403 16.0505 26.6392C15.1332 28.212 14.6484 30.0086 14.6484 31.8351C14.6484 33.6615 15.1332 35.4582 16.0505 37.031C16.458 37.7298 16.2219 38.6268 15.523 39.0344C15.2996 39.1651 15.0454 39.234 14.7865 39.234Z" fill="#FF9300"/>
<path id="Vector_6" d="M9.72119 42.1765C9.21709 42.1765 8.72666 41.9162 8.45439 41.4494C6.75674 38.5381 5.85938 35.2136 5.85938 31.8351C5.85938 28.4566 6.75674 25.132 8.45449 22.2208C8.86191 21.522 9.75889 21.2858 10.4578 21.6934C11.1567 22.101 11.3929 22.9979 10.9853 23.6968C9.54844 26.1605 8.78906 28.9746 8.78906 31.8351C8.78906 34.6955 9.54844 37.5097 10.9853 39.9734C11.3928 40.6723 11.1566 41.5692 10.4578 41.9769C10.2343 42.1076 9.98009 42.1765 9.72119 42.1765Z" fill="#FFB500"/>
<path id="Vector_7" d="M4.64854 45.1235C4.14404 45.1235 3.65332 44.8627 3.38115 44.3953C1.16924 40.5958 0 36.2527 0 31.8352C0 27.4179 1.16924 23.0745 3.38115 19.275C3.78818 18.5759 4.68496 18.3389 5.38408 18.7461C6.0832 19.1531 6.32002 20.0499 5.91309 20.749C3.96133 24.1016 2.92969 27.9351 2.92969 31.8352C2.92969 35.7353 3.96133 39.5688 5.91309 42.9212C6.32012 43.6203 6.0833 44.5171 5.38408 44.9241C5.16091 45.0546 4.90705 45.1234 4.64854 45.1235Z" fill="#FFE645"/>
<path id="Vector_8" d="M35.2261 39.213C34.9764 39.213 34.7235 39.1491 34.4921 39.0148C33.7924 38.6088 33.5544 37.7123 33.9604 37.0126C34.8705 35.4444 35.3515 33.6541 35.3515 31.835C35.3515 30.0159 34.8705 28.2256 33.9604 26.6574C33.5544 25.9577 33.7924 25.0612 34.4921 24.6551C35.1917 24.2492 36.0883 24.487 36.4943 25.1868C37.6634 27.2011 38.2812 29.5001 38.2812 31.835C38.2812 34.17 37.6634 36.4688 36.4943 38.4831C36.2225 38.9513 35.7311 39.213 35.2261 39.213Z" fill="#FF9300"/>
<path id="Vector_9" d="M40.2913 42.1555C40.0413 42.1555 39.7882 42.0914 39.5565 41.9567C38.8571 41.5502 38.6196 40.6536 39.0263 39.9542C40.4555 37.4954 41.2109 34.6879 41.2109 31.8351C41.2109 28.9822 40.4555 26.1747 39.0263 23.7159C38.6196 23.0165 38.8571 22.1199 39.5565 21.7134C40.2556 21.3067 41.1525 21.544 41.5591 22.2436C43.2479 25.149 44.1406 28.4656 44.1406 31.8351C44.1406 35.2045 43.2479 38.5211 41.5591 41.4265C41.2871 41.8942 40.796 42.1555 40.2913 42.1555Z" fill="#FFB500"/>
<path id="Vector_10" d="M45.364 45.1022C45.1142 45.1022 44.8611 45.0382 44.6296 44.9038C43.93 44.4975 43.6922 43.6009 44.0985 42.9014C46.0428 39.5541 47.0703 35.7274 47.0703 31.835C47.0703 27.9427 46.0428 24.116 44.0986 20.7687C43.6923 20.0692 43.93 19.1726 44.6297 18.7664C45.329 18.3599 46.2257 18.5975 46.632 19.2974C48.8354 23.091 50 27.4265 50 31.835C50 36.2435 48.8354 40.5791 46.632 44.3727C46.3602 44.8408 45.8689 45.1022 45.364 45.1022Z" fill="#FFE645"/>
</g>
</g>
<defs>
<clipPath id="clip0_193_2632">
<rect width="50" height="50" fill="white"/>
</clipPath>
</defs>
</svg>
