<svg width="50" height="50" viewBox="0 0 50 50" fill="none" xmlns="http://www.w3.org/2000/svg">
<g id="Frame" clip-path="url(#clip0_193_2619)">
<g id="Group">
<path id="Vector" d="M20.8221 47.2389C20.8221 48.6606 21.9745 49.8134 23.3966 49.8134H26.8293C28.2511 49.8134 29.4039 48.6606 29.4039 47.2389V42.0898H20.8221V47.2389Z" fill="#EBEBEB"/>
<path id="Vector_2" d="M16.778 32.7845C16.0274 32.3008 15.32 31.7531 14.6637 31.1474C14.1034 33.3017 11.986 34.6677 9.79245 34.2905C7.5983 33.9135 6.05873 31.9193 6.24946 29.7014C6.44009 27.4834 8.29772 25.7813 10.5239 25.7846C10.6551 25.7846 10.7813 25.8118 10.9066 25.8232C10.0931 23.9114 9.67398 21.855 9.67424 19.7773H8.58178L7.98888 22.5979C7.95986 22.7362 7.89709 22.8653 7.80615 22.9736C7.71521 23.0819 7.59892 23.166 7.46763 23.2185C7.33634 23.271 7.1941 23.2903 7.05358 23.2746C6.91305 23.2588 6.77859 23.2086 6.66214 23.1284L4.29089 21.4937L1.71636 24.0682L3.34689 26.4392C3.42717 26.5556 3.47741 26.69 3.49314 26.8305C3.50886 26.9711 3.48957 27.1133 3.437 27.2446C3.38468 27.3759 3.30065 27.4922 3.19243 27.5832C3.0842 27.6742 2.95514 27.737 2.81675 27.7659L0 28.359V31.7917L2.82019 32.3847C2.9585 32.4139 3.08748 32.4768 3.1957 32.5677C3.30393 32.6586 3.38806 32.7749 3.44065 32.9061C3.49304 33.0374 3.51218 33.1796 3.49639 33.3201C3.4806 33.4606 3.43035 33.595 3.35011 33.7114L1.71636 36.0828L4.29089 38.6574L6.66214 37.0264C6.77861 36.9461 6.91313 36.8958 7.05373 36.88C7.19433 36.8642 7.33665 36.8834 7.46803 36.9359C7.59942 36.9884 7.71578 37.0726 7.80679 37.1809C7.89779 37.2892 7.9606 37.4184 7.98963 37.5569L8.58178 40.3737H12.0145L12.6066 37.5529C12.6356 37.4144 12.6984 37.2851 12.7894 37.1768C12.8804 37.0684 12.9968 36.9842 13.1283 36.9318C13.2596 36.8792 13.402 36.8599 13.5426 36.8757C13.6832 36.8915 13.8177 36.9419 13.9341 37.0223L16.3054 38.6574L18.9993 35.9633C18.8595 35.3122 18.591 34.6956 18.2095 34.1497C17.8281 33.6038 17.3414 33.1397 16.778 32.7845Z" fill="#C9DFFF"/>
<path id="Vector_3" d="M40.5601 19.7774C40.5594 12.371 35.3017 6.00711 28.0286 4.60925C20.7556 3.21138 13.5134 7.17198 10.767 14.0505C8.02073 20.9288 10.5424 28.7886 16.778 32.7845C17.4811 33.2204 18.063 33.8265 18.4699 34.5469C18.8768 35.2672 19.0955 36.0785 19.1058 36.9057V40.3737C19.1058 41.7954 20.2581 42.9482 21.6803 42.9482H28.5458C29.9674 42.9482 31.1203 41.7954 31.1203 40.3737V36.9769C31.131 36.1301 31.3543 35.2995 31.7696 34.5614C32.185 33.8233 32.7791 33.2014 33.4974 32.7528C35.6657 31.3529 37.4482 29.4318 38.6821 27.165C39.916 24.8982 40.5616 22.3582 40.5601 19.7774Z" fill="#FFB41F"/>
<path id="Vector_4" d="M45.8747 10.6987L48.5729 8.67512L45.4834 4.55566L42.7853 6.57913C42.5137 6.7826 42.1879 6.90098 41.8491 6.91933C41.5103 6.93768 41.1736 6.85517 40.8816 6.68222C40.5897 6.50928 40.3556 6.25371 40.2088 5.9478C40.062 5.64188 40.0092 5.29933 40.0569 4.9634L40.5333 1.62584L35.4357 0.897461L34.9595 4.2347C34.9118 4.57086 34.7653 4.88529 34.5388 5.13817C34.3122 5.39105 34.0157 5.57099 33.6868 5.6552C33.3579 5.73961 33.0114 5.72455 32.6911 5.61193C32.3708 5.4993 32.0912 5.29417 31.8875 5.02251L29.8644 2.32429L25.7453 5.41384L27.7679 8.11195C28.1841 8.66762 28.2247 9.41852 27.871 10.0156C27.5173 10.6127 26.8391 10.9379 26.1522 10.8403L22.8146 10.3639L22.0859 15.4615L25.4242 15.9378C25.7604 15.9857 26.0748 16.1322 26.3277 16.3588C26.5805 16.5854 26.7605 16.882 26.8447 17.2109C26.929 17.5398 26.9138 17.8864 26.801 18.2066C26.6883 18.5269 26.483 18.8066 26.2113 19.0102L23.5139 21.0336L26.6035 25.1528L29.3009 23.1301C29.5725 22.9264 29.8983 22.8078 30.2373 22.7894C30.5763 22.7709 30.9131 22.8533 31.2053 23.0262C31.4973 23.1992 31.7315 23.4549 31.8783 23.761C32.0251 24.067 32.0779 24.4097 32.03 24.7458L31.5494 28.0826L36.6469 28.8113L37.1274 25.473C37.1754 25.1369 37.3219 24.8227 37.5486 24.5699C37.7752 24.3172 38.0717 24.1374 38.4005 24.0532C39.0731 23.8805 39.7833 24.1308 40.1995 24.6859L42.2233 27.3833L46.3424 24.2938L44.3181 21.5965C44.1143 21.325 43.9956 20.9991 43.9771 20.6601C43.9586 20.3211 44.041 19.9842 44.214 19.692C44.387 19.3999 44.6427 19.1656 44.9489 19.0189C45.2551 18.8722 45.5979 18.8195 45.9339 18.8677L49.2715 19.3445L50.0001 14.247L46.6625 13.7702C46.3266 13.7222 46.0124 13.5757 45.7597 13.3492C45.507 13.1226 45.3272 12.8263 45.2429 12.4976C45.1585 12.1688 45.1736 11.8225 45.286 11.5023C45.3985 11.1821 45.6034 10.9025 45.8747 10.6987ZM36.0434 20.861C32.7255 20.861 30.0362 18.1717 30.0362 14.8538C30.0362 11.5363 32.7255 8.84655 36.0434 8.84655C39.3614 8.84655 42.0507 11.5363 42.0507 14.8538C42.0507 18.1717 39.3614 20.861 36.0434 20.861Z" fill="#1CC8EB"/>
<path id="Vector_5" d="M20.8221 44.6646H29.4039V46.3809H20.8221V44.6646Z" fill="#9E9E9E"/>
<g id="Group_2">
<path id="Vector_6" d="M24.2548 37.7991H25.9711V40.3736H24.2548V37.7991ZM25.9711 36.0828H24.2548C24.254 33.8136 22.8549 31.7796 20.7362 30.9676C16.5128 29.3161 13.5787 25.4275 13.1505 20.913C12.7223 16.3983 14.8722 12.0273 18.7098 9.6112L19.6203 11.0631C16.33 13.1335 14.4859 16.8805 14.853 20.7512C15.2197 24.6214 17.7347 27.9552 21.3555 29.3706C24.1371 30.4346 25.9733 33.1048 25.9711 36.0828ZM42.2765 31.7919H46.5674C46.795 31.7919 47.0133 31.8823 47.1742 32.0432C47.3352 32.2042 47.4256 32.4224 47.4256 32.65C47.4256 32.8777 47.3352 33.0959 47.1742 33.2569C47.0133 33.4178 46.795 33.5082 46.5674 33.5082H42.2765C42.0489 33.5082 41.8306 33.4178 41.6697 33.2569C41.5087 33.0959 41.4183 32.8777 41.4183 32.65C41.4183 32.4224 41.5087 32.2042 41.6697 32.0432C41.8306 31.8823 42.0489 31.7919 42.2765 31.7919ZM40.5602 36.9413C40.6323 36.8547 40.7207 36.7831 40.8205 36.7307C40.9203 36.6783 41.0294 36.6461 41.1416 36.6358C41.2538 36.6256 41.367 36.6376 41.4746 36.6711C41.5822 36.7046 41.6821 36.759 41.7687 36.8311L45.5995 40.0229C45.6861 40.095 45.7576 40.1834 45.81 40.2832C45.8624 40.383 45.8947 40.4921 45.9049 40.6043C45.9151 40.7165 45.9032 40.8297 45.8697 40.9373C45.8362 41.0449 45.7818 41.1448 45.7096 41.2314C45.4059 41.5955 44.8649 41.6449 44.5007 41.3416L40.67 38.1498C40.5834 38.0777 40.5119 37.9892 40.4595 37.8894C40.4071 37.7896 40.3749 37.6805 40.3647 37.5683C40.3545 37.4561 40.3665 37.3429 40.4001 37.2353C40.4336 37.1277 40.488 37.0278 40.5602 36.9413ZM37.1274 38.6573C37.6014 38.6573 37.9856 39.0411 37.9856 39.5155V43.8064C37.9856 44.034 37.8952 44.2522 37.7343 44.4132C37.5733 44.5741 37.355 44.6645 37.1274 44.6645C36.8998 44.6645 36.6816 44.5741 36.5206 44.4132C36.3597 44.2522 36.2693 44.034 36.2693 43.8064V39.5155C36.2693 39.0411 36.6536 38.6573 37.1274 38.6573ZM0.850666 14.4448L6.05079 13.1457C6.16011 13.1184 6.27375 13.1128 6.38521 13.1294C6.49667 13.146 6.60378 13.1843 6.70041 13.2423C6.79704 13.3003 6.8813 13.3767 6.94837 13.4673C7.01545 13.5578 7.06403 13.6607 7.09133 13.77C7.11865 13.8794 7.12415 13.993 7.10752 14.1045C7.0909 14.2159 7.05247 14.323 6.99444 14.4196C6.93641 14.5162 6.85991 14.6004 6.76932 14.6674C6.67873 14.7344 6.57582 14.7829 6.46647 14.8101L1.26635 16.1092C1.15702 16.1366 1.04338 16.1421 0.93191 16.1255C0.820441 16.109 0.713332 16.0706 0.616701 16.0126C0.520071 15.9546 0.435813 15.8781 0.368741 15.7876C0.30167 15.697 0.2531 15.5941 0.225805 15.4848C0.198508 15.3755 0.19302 15.2618 0.209653 15.1504C0.226286 15.039 0.264715 14.9319 0.322744 14.8353C0.380773 14.7387 0.457265 14.6545 0.547848 14.5875C0.638431 14.5205 0.74133 14.472 0.850666 14.4448ZM1.94184 5.18869C2.2171 4.80326 2.75303 4.71444 3.13857 4.9897L7.7487 8.28296C7.84309 8.34729 7.92368 8.42983 7.98575 8.52573C8.04781 8.62163 8.09009 8.72896 8.11011 8.84143C8.13013 8.95389 8.12748 9.06922 8.10232 9.18065C8.07717 9.29207 8.03 9.39735 7.96361 9.49031C7.89721 9.58326 7.81292 9.66201 7.71567 9.72195C7.61843 9.78188 7.51019 9.82179 7.39731 9.83932C7.28443 9.85686 7.16919 9.85168 7.05835 9.82407C6.9475 9.79646 6.84329 9.74699 6.75182 9.67857L2.14169 6.38563C2.04995 6.32019 1.97201 6.23732 1.91232 6.14174C1.85262 6.04617 1.81234 5.93977 1.79378 5.82862C1.77522 5.71748 1.77875 5.60376 1.80415 5.49398C1.82956 5.38419 1.87634 5.28039 1.94184 5.18869ZM9.62768 0.0384438C9.73685 0.0105375 9.85046 0.00441165 9.962 0.020416C10.0735 0.0364203 10.1808 0.0742413 10.2778 0.131719C10.3747 0.189197 10.4593 0.265205 10.5269 0.355403C10.5944 0.445601 10.6436 0.548222 10.6714 0.657404L12.0016 5.85957C12.0309 5.96919 12.0381 6.08353 12.023 6.19597C12.0078 6.30841 11.9704 6.41672 11.9131 6.51464C11.8558 6.61255 11.7796 6.69813 11.689 6.76642C11.5984 6.8347 11.4951 6.88434 11.3852 6.91246C11.2753 6.94058 11.1609 6.94662 11.0486 6.93023C10.9363 6.91385 10.8284 6.87536 10.7311 6.817C10.6338 6.75864 10.549 6.68156 10.4817 6.59023C10.4144 6.4989 10.3658 6.39512 10.3389 6.2849L9.00872 1.08274C8.95232 0.862177 8.98584 0.628244 9.10192 0.432401C9.21799 0.236558 9.40712 0.0948473 9.62768 0.0384438Z" fill="#FFAA00"/>
</g>
</g>
</g>
<defs>
<clipPath id="clip0_193_2619">
<rect width="50" height="50" fill="white"/>
</clipPath>
</defs>
</svg>
