<svg width="50" height="50" viewBox="0 0 50 50" fill="none" xmlns="http://www.w3.org/2000/svg">
<g id="Frame" clip-path="url(#clip0_193_2753)">
<g id="Group">
<path id="Vector" d="M33.7302 10.3175H32.1429V8.73018C32.1429 4.7918 28.9388 1.5873 25 1.5873C21.0612 1.5873 17.8571 4.7917 17.8571 8.73018V10.3175H16.2698V8.73018C16.2698 3.91631 20.1861 0 25 0C29.8139 0 33.7302 3.91631 33.7302 8.73018V10.3175Z" fill="#785550"/>
<path id="Vector_2" d="M1.9841 26.9839V46.8252C1.9841 48.5784 3.40539 49.9998 5.15871 49.9998H44.8412C46.5945 49.9998 48.0158 48.5784 48.0158 46.8252V26.9839H1.9841Z" fill="#694B4B"/>
<path id="Vector_3" d="M11.5079 35.7141H38.492C42.2859 35.7141 45.6869 34.033 48.0158 31.3867V26.9839H1.9841V46.8252C1.9841 48.5785 3.40539 49.9998 5.15871 49.9998H44.8412C46.5945 49.9998 48.0158 48.5784 48.0158 46.8252H13.8889C10.3823 46.8252 7.53967 43.9825 7.53967 40.476V37.0929C7.53967 36.1133 8.4175 35.3664 9.38283 35.5325C10.0847 35.6534 10.7957 35.7141 11.5079 35.7141Z" fill="#5A4146"/>
<path id="Vector_4" d="M38.4921 34.1271H11.5079C5.3714 34.1271 0.39679 29.1524 0.39679 23.0159V13.4921C0.39679 12.6154 1.10743 11.9048 1.98409 11.9048H48.0158C48.8925 11.9048 49.6031 12.6154 49.6031 13.4921V23.0159C49.6031 29.1524 44.6285 34.1271 38.4921 34.1271Z" fill="#785550"/>
<path id="Vector_5" d="M17.8572 8.72998H16.2698C16.1656 8.72997 16.0624 8.75049 15.9661 8.79037C15.8698 8.83025 15.7823 8.88871 15.7086 8.96241C15.6349 9.03611 15.5765 9.1236 15.5366 9.2199C15.4967 9.3162 15.4762 9.41941 15.4762 9.52363V11.9046H18.6508V9.52363C18.6508 9.41941 18.6303 9.3162 18.5904 9.2199C18.5505 9.1236 18.4921 9.03611 18.4184 8.96241C18.3447 8.88871 18.2572 8.83025 18.1609 8.79037C18.0646 8.75049 17.9614 8.72997 17.8572 8.72998ZM33.7302 8.72998H32.1429C32.0387 8.72997 31.9355 8.75049 31.8392 8.79037C31.7429 8.83025 31.6554 8.88871 31.5817 8.96241C31.508 9.03611 31.4495 9.1236 31.4096 9.2199C31.3698 9.3162 31.3492 9.41941 31.3492 9.52363V11.9046H34.5239V9.52363C34.5239 9.31314 34.4402 9.11127 34.2914 8.96244C34.1426 8.8136 33.9407 8.72998 33.7302 8.72998Z" fill="#5A4146"/>
<path id="Vector_6" d="M40.0794 18.254H9.12697C6.49708 18.254 4.36505 16.1221 4.36505 13.4921V11.9048H44.8412V13.4921C44.8413 16.122 42.7093 18.254 40.0794 18.254Z" fill="#8C5F5F"/>
<path id="Vector_7" d="M35.7143 38.0951H34.9206C34.7101 38.0951 34.5083 38.0115 34.3594 37.8626C34.2106 37.7138 34.127 37.5119 34.127 37.3015V29.3649C34.127 29.1545 34.2106 28.9526 34.3594 28.8038C34.5083 28.6549 34.7101 28.5713 34.9206 28.5713H35.7143C35.9247 28.5713 36.1266 28.6549 36.2754 28.8038C36.4243 28.9526 36.5079 29.1545 36.5079 29.3649V37.3015C36.5079 37.4057 36.4874 37.5089 36.4475 37.6052C36.4076 37.7015 36.3492 37.789 36.2755 37.8627C36.2018 37.9364 36.1143 37.9948 36.018 38.0347C35.9217 38.0746 35.8185 38.0951 35.7143 38.0951Z" fill="#5A4146"/>
<path id="Vector_8" d="M36.9048 36.5077H33.7302C32.8535 36.5077 32.1429 35.7971 32.1429 34.9204V33.73H38.4921V34.9204C38.4921 35.7971 37.7815 36.5077 36.9048 36.5077Z" fill="#E1A546"/>
<path id="Vector_9" d="M37.3016 34.9204H33.3333C32.6758 34.9204 32.1429 34.3874 32.1429 33.73C32.1429 33.0725 32.6759 32.5396 33.3333 32.5396H37.3016C37.9591 32.5396 38.492 33.0726 38.492 33.73C38.4921 34.3874 37.9591 34.9204 37.3016 34.9204Z" fill="#FFC850"/>
<path id="Vector_10" d="M15.0794 38.0951H14.2857C14.0753 38.0951 13.8734 38.0115 13.7246 37.8626C13.5757 37.7138 13.4921 37.5119 13.4921 37.3015V29.3649C13.4921 29.1545 13.5757 28.9526 13.7246 28.8038C13.8734 28.6549 14.0753 28.5713 14.2857 28.5713H15.0794C15.2899 28.5713 15.4917 28.6549 15.6406 28.8038C15.7894 28.9526 15.873 29.1545 15.8731 29.3649V37.3015C15.8731 37.4057 15.8525 37.5089 15.8126 37.6052C15.7728 37.7015 15.7143 37.789 15.6406 37.8627C15.5669 37.9364 15.4794 37.9948 15.3831 38.0347C15.2868 38.0746 15.1836 38.0951 15.0794 38.0951Z" fill="#5A4146"/>
<path id="Vector_11" d="M16.2698 36.5077H13.0952C12.2186 36.5077 11.5079 35.7971 11.5079 34.9204V33.73H17.8572V34.9204C17.8572 35.7971 17.1466 36.5077 16.2698 36.5077Z" fill="#E1A546"/>
<path id="Vector_12" d="M16.6668 34.9204H12.6985C12.041 34.9204 11.5081 34.3874 11.5081 33.73C11.5081 33.0725 12.0411 32.5396 12.6985 32.5396H16.6668C17.3243 32.5396 17.8572 33.0726 17.8572 33.73C17.8571 34.3874 17.3242 34.9204 16.6668 34.9204Z" fill="#FFC850"/>
</g>
</g>
<defs>
<clipPath id="clip0_193_2753">
<rect width="50" height="50" fill="white"/>
</clipPath>
</defs>
</svg>
