<svg width="50" height="50" viewBox="0 0 50 50" fill="none" xmlns="http://www.w3.org/2000/svg">
<g id="Frame" clip-path="url(#clip0_193_2648)">
<g id="Group">
<path id="Vector" d="M24.4826 33.1268H25.5176C25.526 33.0422 25.5609 32.9596 25.6258 32.8947L27.549 30.9715C27.3914 30.7063 27.3079 30.4037 27.3072 30.0953V29.2803C26.5956 29.6537 25.8039 29.8487 25.0002 29.8484C24.1965 29.8487 23.4048 29.6537 22.6932 29.2803V30.0953C22.6932 30.4105 22.6072 30.7121 22.4531 30.9732L24.3746 32.8947C24.4393 32.9598 24.474 33.0422 24.4826 33.1268Z" fill="#F9D0B4"/>
<path id="Vector_2" d="M11.7481 17.7849C11.0608 17.4604 10.3071 17.3013 9.54727 17.3204C8.78746 17.3394 8.04267 17.5361 7.37251 17.8947V24.9423C8.00106 24.6061 8.69579 24.4119 9.40762 24.3735C10.1194 24.3352 10.831 24.4536 11.492 24.7205C11.7249 24.8144 11.9665 24.6148 11.9665 24.3193V18.1796C11.9665 18.0072 11.8815 17.848 11.7481 17.7849ZM2.99692 17.7849C2.86353 17.8478 2.77856 18.0072 2.77856 18.1796V24.3193C2.77856 24.6148 3.02017 24.8144 3.25298 24.7205C3.91401 24.4536 4.62558 24.3352 5.3374 24.3735C6.04923 24.4119 6.74396 24.606 7.37251 24.9423V17.8947C6.70237 17.5361 5.95758 17.3396 5.19777 17.3205C4.43796 17.3014 3.68423 17.4604 2.99692 17.7849Z" fill="#EDF4FC"/>
<path id="Vector_3" d="M13.3334 18.5205H11.9664V24.3189C11.9664 24.6145 11.7248 24.8141 11.492 24.7201C10.831 24.4533 10.1194 24.3348 9.40759 24.3732C8.69576 24.4115 8.00103 24.6057 7.37249 24.942C6.74393 24.6057 6.04921 24.4115 5.33738 24.3732C4.62555 24.3349 3.91399 24.4533 3.25295 24.7201C3.02014 24.8141 2.77854 24.6145 2.77854 24.3189V18.5205H1.41135C1.35895 18.5205 1.30706 18.5308 1.25865 18.5509C1.21024 18.5709 1.16625 18.6003 1.1292 18.6374C1.09215 18.6744 1.06276 18.7184 1.0427 18.7668C1.02265 18.8152 1.01233 18.8671 1.01233 18.9195V26.2172C1.01233 26.4377 1.19104 26.6164 1.41135 26.6164H13.3334C13.4393 26.6164 13.5408 26.5743 13.6157 26.4995C13.6906 26.4246 13.7326 26.3231 13.7326 26.2172V18.9195C13.7326 18.8137 13.6905 18.7122 13.6156 18.6374C13.5408 18.5625 13.4393 18.5205 13.3334 18.5205Z" fill="#70D6F9"/>
<path id="Vector_4" d="M17.5434 3.93223C17.5256 3.79028 17.4566 3.65971 17.3493 3.56502C17.2421 3.47034 17.104 3.41805 16.9609 3.41797H9.60176C9.45869 3.41801 9.32056 3.47028 9.21331 3.56497C9.10607 3.65967 9.03709 3.79026 9.01934 3.93223C8.99601 4.11797 8.98434 4.30499 8.98438 4.49219C8.98438 6.91914 10.9082 8.88672 13.2812 8.88672C15.6543 8.88672 17.5781 6.91914 17.5781 4.49219C17.5781 4.30234 17.5662 4.11562 17.5434 3.93223ZM16.4566 8.88672H10.1059C9.98972 8.88672 9.87834 8.93285 9.79622 9.01497C9.7141 9.09709 9.66797 9.20847 9.66797 9.32461C9.66797 9.72647 9.82761 10.1119 10.1118 10.396C10.3959 10.6802 10.7813 10.8398 11.1832 10.8398H15.3793C15.7812 10.8398 16.1666 10.6802 16.4507 10.396C16.7349 10.1119 16.8945 9.72647 16.8945 9.32461C16.8945 9.20847 16.8484 9.09709 16.7663 9.01497C16.6842 8.93285 16.5728 8.88672 16.4566 8.88672ZM34.5762 6.05254C34.6607 6.13711 34.6855 6.25762 34.6533 6.36465L35.9406 7.73535C35.9719 7.72051 36.0018 7.70117 36.0275 7.67539L37.4672 6.23574L35.8445 4.61309L34.4904 5.96719L34.5762 6.05254Z" fill="#EDF4FC"/>
<path id="Vector_5" d="M33.1366 4.61279L34.5762 6.05244C34.6053 6.08155 34.6284 6.11611 34.6442 6.15415C34.6599 6.19218 34.6681 6.23295 34.6681 6.27412C34.6681 6.31529 34.6599 6.35606 34.6442 6.3941C34.6284 6.43213 34.6053 6.46669 34.5762 6.4958L33.3969 7.6751C33.3678 7.70421 33.3333 7.72731 33.2952 7.74306C33.2572 7.75882 33.2164 7.76693 33.1752 7.76693C33.1341 7.76693 33.0933 7.75882 33.0553 7.74306C33.0172 7.72731 32.9827 7.70421 32.9536 7.6751L31.5139 6.23545L33.1366 4.61279Z" fill="#EDF4FC"/>
<path id="Vector_6" d="M33.2656 7.75234C33.1916 7.77481 33.1113 7.76914 33.0406 7.73535L30.4258 10.5193C30.2821 10.6713 30.2033 10.8733 30.2062 11.0824C30.2091 11.2915 30.2935 11.4912 30.4413 11.6391C30.5892 11.787 30.789 11.8714 30.9981 11.8743C31.2072 11.8772 31.4092 11.7984 31.5611 11.6547L34.4908 8.90293L33.2656 7.75234Z" fill="#D1956D"/>
<path id="Vector_7" d="M33.3969 7.67529L34.5762 6.496C34.6141 6.4581 34.6387 6.4126 34.6531 6.36475L38.5555 10.5194C38.6973 10.6717 38.7745 10.8731 38.7709 11.0812C38.7672 11.2893 38.6829 11.4878 38.5357 11.635C38.3885 11.7822 38.19 11.8665 37.9819 11.8702C37.7738 11.8738 37.5724 11.7966 37.4201 11.6548L33.2654 7.75244C33.3135 7.73779 33.359 7.71318 33.3969 7.67529Z" fill="#D1956D"/>
<path id="Vector_8" d="M37.4674 6.23544L35.8447 4.61278C35.8447 4.61278 35.8447 3.31473 36.8184 2.3411C37.6152 1.54423 38.9555 2.16044 39.8608 1.78778C40.1561 1.6661 40.4901 1.85458 40.5106 2.17333C40.5885 3.38231 40.6051 5.8868 37.4674 6.23544ZM31.5139 6.23544L33.1365 4.61278C33.1365 4.61278 33.1365 3.31473 32.1629 2.3411C31.366 1.54423 30.0258 2.16044 29.1205 1.78778C28.8252 1.6661 28.4912 1.85458 28.4707 2.17333C28.3928 3.38231 28.376 5.8868 31.5139 6.23544Z" fill="#F5C84C"/>
<path id="Vector_9" d="M45.5883 19.3428L39.7518 20.5936V18.3006L45.5883 17.0498V19.3428Z" fill="#FC657E"/>
<path id="Vector_10" d="M44.1293 26.0131C44.9352 26.0131 45.5885 25.3598 45.5885 24.5539C45.5885 23.748 44.9352 23.0947 44.1293 23.0947C43.3235 23.0947 42.6702 23.748 42.6702 24.5539C42.6702 25.3598 43.3235 26.0131 44.1293 26.0131Z" fill="#FC657E"/>
<path id="Vector_11" d="M38.2926 27.2641C39.0985 27.2641 39.7518 26.6108 39.7518 25.8049C39.7518 24.999 39.0985 24.3457 38.2926 24.3457C37.4867 24.3457 36.8334 24.999 36.8334 25.8049C36.8334 26.6108 37.4867 27.2641 38.2926 27.2641Z" fill="#FC657E"/>
<path id="Vector_12" d="M48.8453 39.2557L48.2897 37.4666C48.2779 37.4286 48.2643 37.3911 48.2491 37.3543C47.9303 36.5858 46.9182 36.3979 46.2938 36.9477L46.0467 37.1652C45.6977 37.4725 45.1496 37.3395 44.9803 36.9065C44.9646 36.8182 44.929 36.7346 44.8763 36.662C44.8235 36.5895 44.755 36.5299 44.6758 36.4876C44.5967 36.4454 44.509 36.4218 44.4194 36.4184C44.3297 36.415 44.2405 36.432 44.1584 36.4682C43.9332 36.5673 43.7452 36.7353 43.6216 36.9481C43.498 37.1609 43.4451 37.4074 43.4705 37.6522L43.5621 38.5334C43.5908 38.7757 43.5428 39.0209 43.4247 39.2343C43.3066 39.4478 43.1244 39.6188 42.9039 39.7233C42.3272 39.9963 41.2211 40.5135 39.0043 41.5756C38.9514 41.601 38.8911 41.6068 38.8342 41.592C38.7774 41.5772 38.7276 41.5428 38.6938 41.4947L37.7803 40.1822L34.4666 42.707L36.5321 45.5445C36.8177 45.937 37.2431 46.2049 37.7204 46.2928C38.1978 46.3808 38.6907 46.2822 39.0975 46.0174L44.6981 42.3721C45.1784 42.0594 45.6881 41.7941 46.2198 41.5801L48.1008 40.8229C48.399 40.7028 48.6412 40.475 48.7791 40.1847C48.917 39.8943 48.9407 39.5627 48.8453 39.2557ZM1.15471 39.2557L1.71038 37.4666C1.72229 37.4281 1.73596 37.3906 1.751 37.3543C2.06975 36.5858 3.08186 36.3979 3.70627 36.9477L3.95335 37.1652C4.30237 37.4725 4.85042 37.3395 5.01975 36.9065C5.03548 36.8182 5.07106 36.7346 5.1238 36.662C5.17654 36.5895 5.24507 36.5299 5.32421 36.4876C5.40335 36.4454 5.49105 36.4218 5.58068 36.4184C5.67031 36.415 5.75953 36.432 5.84163 36.4682C6.06686 36.5673 6.25481 36.7353 6.37843 36.9481C6.50205 37.1609 6.55495 37.4074 6.52952 37.6522L6.43792 38.5334C6.40921 38.7757 6.45729 39.0209 6.57538 39.2343C6.69348 39.4478 6.87562 39.6188 7.09612 39.7233C7.67288 39.9963 8.77893 40.5135 10.9957 41.5756C11.0487 41.601 11.109 41.6068 11.1658 41.592C11.2227 41.5772 11.2724 41.5428 11.3063 41.4947L12.2198 40.1822L15.5334 42.707L13.468 45.5445C13.1824 45.937 12.757 46.2049 12.2796 46.2928C11.8023 46.3808 11.3094 46.2822 10.9026 46.0174L5.30198 42.3721C4.82162 42.0594 4.312 41.7941 3.7803 41.5801L1.89924 40.8229C1.60103 40.7028 1.3589 40.475 1.22095 40.1847C1.08301 39.8943 1.05937 39.5627 1.15471 39.2557Z" fill="#F9D0B4"/>
<path id="Vector_13" d="M37.9941 39.4537L35.0527 34.9494C34.3463 33.9828 33.3241 33.2937 32.1631 33.0014C30.8689 32.6545 30.1853 32.5604 29.1811 32.1494C29.1644 32.2142 29.1308 32.2733 29.0838 32.3209L27.0678 34.3369C26.9962 34.4085 26.8991 34.4487 26.7979 34.4487C26.6966 34.4487 26.5995 34.4085 26.5279 34.3369L25.6258 33.4348C25.586 33.3947 25.5556 33.3463 25.5369 33.293C25.5182 33.2397 25.5116 33.1829 25.5176 33.1268H24.4826C24.4887 33.1829 24.4821 33.2397 24.4633 33.293C24.4446 33.3463 24.4142 33.3947 24.3744 33.4348L23.4723 34.3369C23.4007 34.4085 23.3036 34.4487 23.2023 34.4487C23.1011 34.4487 23.004 34.4085 22.9324 34.3369L20.9164 32.3209C20.8694 32.2733 20.8358 32.2142 20.8191 32.1494C19.8145 32.5605 19.1348 32.6535 17.8371 33.0014C16.6761 33.2936 15.6539 33.9828 14.9475 34.9494L12.0061 39.4537C11.9351 39.5507 11.9051 39.6717 11.9224 39.7906C11.9396 39.9096 12.0029 40.017 12.0984 40.0898L15.6191 42.7723C15.7156 42.8457 15.8371 42.8781 15.9573 42.8623C16.0775 42.8465 16.1866 42.7838 16.2607 42.6879L18.1994 40.1201V49.0268C18.1994 49.1554 18.2505 49.2787 18.3415 49.3697C18.4324 49.4606 18.5558 49.5117 18.6844 49.5117H31.3158C31.4444 49.5117 31.5678 49.4606 31.6587 49.3697C31.7497 49.2787 31.8008 49.1554 31.8008 49.0268V40.1201L33.7395 42.6879C33.8136 42.7838 33.9227 42.8465 34.0429 42.8623C34.1631 42.8781 34.2846 42.8457 34.3811 42.7723L37.9018 40.0898C37.9973 40.017 38.0606 39.9096 38.0778 39.7906C38.0951 39.6717 38.0651 39.5507 37.9941 39.4537Z" fill="#70D6F9"/>
<path id="Vector_14" d="M38.0654 46.813C37.6894 46.8134 37.3187 46.7248 36.9836 46.5543C36.6484 46.3839 36.3584 46.1365 36.1373 45.8323L34.1342 43.0806C34.058 42.9759 34.0265 42.8452 34.0466 42.7172C34.0668 42.5893 34.1369 42.4746 34.2416 42.3984C34.3463 42.3221 34.477 42.2906 34.605 42.3108C34.7329 42.3309 34.8476 42.4011 34.9238 42.5058L36.927 45.2575C37.1389 45.549 37.4546 45.7479 37.8089 45.8132C38.1632 45.8786 38.5292 45.8054 38.8311 45.6087L44.432 41.9632C44.9389 41.6333 45.4767 41.3535 46.0377 41.1277L47.9188 40.3704C48.1025 40.2954 48.2516 40.1544 48.3368 39.9751C48.422 39.7958 48.4371 39.5911 48.3791 39.4013L47.8234 37.612C47.816 37.5881 47.8075 37.5646 47.7979 37.5415C47.6828 37.2644 47.4447 37.1716 47.3133 37.1411C47.1917 37.1126 47.0651 37.1135 46.944 37.1437C46.8229 37.174 46.7107 37.2327 46.6168 37.315L46.3695 37.5323C46.0859 37.7818 45.6979 37.8777 45.3311 37.7886C44.9643 37.6995 44.6633 37.4364 44.5258 37.0851C44.5141 37.0552 44.5054 37.0243 44.4998 36.9927C44.4972 36.9771 44.4911 36.9623 44.4818 36.9495C44.4725 36.9368 44.4603 36.9263 44.4463 36.9191C44.4325 36.9114 44.417 36.907 44.4012 36.9064C44.3854 36.9058 44.3697 36.9089 44.3553 36.9155C44.2244 36.9728 44.1152 37.0702 44.0435 37.1937C43.9717 37.3171 43.9412 37.4603 43.9563 37.6023L44.0479 38.4839C44.0874 38.8267 44.0185 39.1733 43.8508 39.4749C43.6831 39.7765 43.425 40.0179 43.1129 40.1652L42.6801 40.3695C42.0297 40.6761 40.9713 41.1753 39.2154 42.0167C39.0581 42.0929 38.8787 42.1103 38.7096 42.0659C38.5405 42.0215 38.3928 41.9182 38.2932 41.7745L37.4461 40.5573C37.4095 40.5047 37.3836 40.4454 37.3699 40.3828C37.3562 40.3202 37.355 40.2555 37.3663 40.1924C37.3776 40.1293 37.4013 40.069 37.4359 40.015C37.4705 39.9611 37.5154 39.9145 37.568 39.8779C37.6206 39.8412 37.6799 39.8153 37.7425 39.8017C37.8052 39.788 37.8699 39.7867 37.933 39.7981C37.9961 39.8094 38.0563 39.833 38.1103 39.8676C38.1642 39.9022 38.2109 39.9471 38.2475 39.9997L38.9772 41.0482C40.0709 40.5239 41.1663 40.0033 42.2635 39.4864L42.6947 39.2827C42.8229 39.2222 42.9288 39.1228 42.9973 38.9988C43.0659 38.8747 43.0938 38.7323 43.077 38.5915L42.9848 37.7034C42.9478 37.3558 43.0226 37.0054 43.1982 36.7031C43.3738 36.4008 43.6412 36.1623 43.9615 36.0222C44.1112 35.9559 44.274 35.9246 44.4376 35.9307C44.6012 35.9369 44.7612 35.9803 44.9055 36.0577C45.0399 36.1289 45.1577 36.2279 45.251 36.348C45.3443 36.4682 45.411 36.6067 45.4467 36.7546C45.4589 36.7759 45.4754 36.7945 45.4951 36.8092C45.5147 36.8239 45.5372 36.8343 45.5611 36.84C45.5895 36.8473 45.6192 36.8475 45.6477 36.8405C45.6761 36.8334 45.7024 36.8194 45.724 36.7997L45.9711 36.5823C46.1817 36.3975 46.4333 36.2656 46.705 36.1974C46.9768 36.1292 47.2609 36.1267 47.5338 36.1902C48.0686 36.3142 48.4938 36.6708 48.7002 37.1683C48.7207 37.2185 48.7393 37.2696 48.7557 37.3216L49.3117 39.112C49.583 39.9847 49.1311 40.9355 48.2832 41.2769L46.4022 42.0341C45.8999 42.2362 45.4184 42.4868 44.9647 42.7821L39.3637 46.4277C38.9774 46.6791 38.5264 46.813 38.0654 46.813ZM11.9346 46.813C11.4881 46.813 11.0369 46.6876 10.6361 46.4267L5.03556 42.7816C4.58175 42.4861 4.10024 42.2355 3.59787 42.0333L1.71681 41.2761C0.868962 40.9347 0.417204 39.9839 0.688298 39.1111L1.24396 37.3222C1.26076 37.2689 1.27931 37.2177 1.29963 37.1681C1.50627 36.67 1.93127 36.3134 2.46623 36.1894C2.73909 36.126 3.02312 36.1285 3.29482 36.1966C3.56653 36.2648 3.8181 36.3967 4.02873 36.5814L4.27619 36.7991C4.29798 36.8186 4.3242 36.8324 4.35256 36.8394C4.38092 36.8464 4.41056 36.8463 4.43888 36.8392C4.4628 36.8336 4.48531 36.8231 4.505 36.8084C4.5247 36.7937 4.54115 36.7752 4.55334 36.7538C4.58904 36.6059 4.65578 36.4673 4.74912 36.3472C4.84246 36.227 4.96027 36.1281 5.09474 36.057C5.23903 35.9796 5.39908 35.9361 5.5627 35.93C5.72632 35.9238 5.88918 35.9551 6.03888 36.0214C6.3592 36.1616 6.62654 36.4001 6.80213 36.7024C6.97772 37.0048 7.05244 37.3552 7.01545 37.7029L6.92384 38.5841C6.88908 38.88 7.04259 39.1579 7.30529 39.282L7.73673 39.4857C8.36525 39.7821 9.37384 40.2575 11.0231 41.0474L11.7658 39.98C11.8398 39.8738 11.953 39.8013 12.0804 39.7785C12.2078 39.7556 12.339 39.7843 12.4453 39.8581C12.498 39.8947 12.5429 39.9413 12.5775 39.9953C12.6121 40.0492 12.6358 40.1095 12.6471 40.1726C12.6584 40.2357 12.6572 40.3004 12.6435 40.3631C12.6298 40.4257 12.6038 40.485 12.5672 40.5376L11.7072 41.7736C11.6077 41.9173 11.46 42.0208 11.2909 42.0652C11.1218 42.1097 10.9423 42.0922 10.785 42.0159C9.02892 41.1745 7.97072 40.6755 7.32033 40.3687L6.88732 40.1644C6.57444 40.0163 6.31596 39.7737 6.14835 39.4708C5.98073 39.1679 5.91246 38.8201 5.95314 38.4763L6.04416 37.6015C6.05923 37.4595 6.0287 37.3164 5.957 37.1928C5.88529 37.0693 5.77613 36.9719 5.64533 36.9146C5.63089 36.9081 5.61514 36.905 5.59931 36.9056C5.58348 36.9062 5.56801 36.9105 5.55412 36.9181C5.54008 36.9254 5.52794 36.9358 5.51865 36.9486C5.50936 36.9614 5.50318 36.9761 5.5006 36.9917C5.49504 37.0233 5.48634 37.0542 5.47463 37.0841C5.40671 37.2574 5.29806 37.4117 5.15787 37.5341C5.01767 37.6565 4.85005 37.7433 4.6692 37.7872C4.48835 37.8311 4.29959 37.8308 4.11888 37.7863C3.93818 37.7418 3.77086 37.6544 3.63107 37.5316L3.38361 37.3138C3.2897 37.2315 3.17752 37.1729 3.05638 37.1427C2.93525 37.1125 2.80866 37.1116 2.68713 37.1402C2.55548 37.1706 2.3174 37.2634 2.20236 37.5411C2.1926 37.5645 2.18399 37.5882 2.17658 37.6124L1.62111 39.4007C1.56316 39.5906 1.57825 39.7953 1.66342 39.9746C1.74858 40.1539 1.89768 40.295 2.08146 40.37L3.96252 41.1273C4.5236 41.3532 5.06142 41.6331 5.56838 41.963L11.169 45.6081C11.4708 45.8051 11.8368 45.8784 12.1912 45.8131C12.5457 45.7478 12.8614 45.5487 13.0733 45.2571L15.0703 42.5138C15.1081 42.4619 15.1557 42.418 15.2104 42.3846C15.2651 42.3511 15.3258 42.3288 15.3892 42.3188C15.4525 42.3088 15.5172 42.3114 15.5796 42.3264C15.6419 42.3415 15.7007 42.3686 15.7526 42.4064C15.8044 42.4441 15.8483 42.4917 15.8818 42.5464C15.9152 42.6011 15.9376 42.6619 15.9476 42.7252C15.9575 42.7886 15.9549 42.8533 15.9399 42.9156C15.9249 42.978 15.8977 43.0367 15.86 43.0886L13.8629 45.8321C13.6418 46.1363 13.3518 46.3838 13.0166 46.5543C12.6814 46.7247 12.3106 46.8134 11.9346 46.813Z" fill="black"/>
<path id="Vector_15" d="M31.3156 49.9998H18.6842C18.4262 49.9994 18.1788 49.8968 17.9964 49.7143C17.814 49.5319 17.7114 49.2845 17.7111 49.0265V41.5769L16.6502 42.9818C16.3297 43.3968 15.7357 43.4748 15.323 43.1603L11.8025 40.4779C11.3992 40.1707 11.3111 39.5904 11.6029 39.1777L14.5387 34.682C14.5432 34.675 14.5482 34.6679 14.5531 34.6611C14.7958 34.329 15.0743 34.0245 15.3834 33.7531C16.0539 33.1661 16.8538 32.7461 17.7178 32.5275C18.1094 32.4226 18.4504 32.3394 18.7603 32.264C19.4381 32.0988 19.9275 31.9796 20.5551 31.7292C20.6754 31.6813 20.8098 31.683 20.9288 31.7342C21.0478 31.7853 21.1417 31.8816 21.1896 32.0019C21.2376 32.1222 21.2359 32.2567 21.1847 32.3757C21.1336 32.4947 21.0373 32.5885 20.917 32.6365C20.2252 32.9125 19.6807 33.0451 18.9914 33.2128C18.6877 33.2869 18.3537 33.3681 17.9633 33.4728C17.2469 33.6532 16.5835 34.0008 16.0273 34.4871C15.7752 34.7087 15.5477 34.9569 15.3488 35.2273L12.416 39.7181L15.8914 42.366L17.8094 39.8257C17.871 39.7439 17.9568 39.6836 18.0546 39.6533C18.1524 39.6229 18.2573 39.6241 18.3544 39.6566C18.4515 39.6892 18.5359 39.7515 18.5956 39.8346C18.6554 39.9178 18.6874 40.0177 18.6873 40.1201V49.0267L31.3156 49.0232L31.3123 40.1199C31.3123 40.0175 31.3444 39.9178 31.4042 39.8347C31.464 39.7516 31.5483 39.6894 31.6454 39.6568C31.7424 39.6243 31.8472 39.6231 31.945 39.6534C32.0428 39.6836 32.1285 39.7439 32.1902 39.8255L34.1082 42.366L37.5836 39.7179L34.6508 35.2271C34.4519 34.9566 34.2243 34.7084 33.9721 34.4869C33.4181 34.0018 32.7573 33.6548 32.0436 33.4742C31.648 33.3683 31.3152 33.2873 31.0123 33.2134C30.3197 33.0449 29.7727 32.9117 29.0785 32.6341C28.9592 32.5854 28.8641 32.4915 28.8137 32.3729C28.7634 32.2543 28.762 32.1206 28.8098 32.001C28.8576 31.8813 28.9507 31.7854 29.0689 31.7342C29.1871 31.6829 29.3208 31.6804 29.4408 31.7273C30.0711 31.9791 30.5627 32.0988 31.2434 32.2646C31.5527 32.34 31.8926 32.4228 32.2893 32.5291C33.1422 32.7439 33.9494 33.1677 34.6162 33.7529C34.9254 34.0243 35.2039 34.3288 35.4467 34.6609C35.4516 34.6677 35.4566 34.6748 35.4611 34.6818L38.3969 39.1775C38.6885 39.5902 38.6006 40.1705 38.1975 40.4777L34.6766 43.1601C34.2643 43.4746 33.6705 43.3964 33.3529 42.9859L32.2889 41.5765V49.0261C32.2887 49.2842 32.1861 49.5317 32.0036 49.7142C31.8211 49.8968 31.5737 49.9994 31.3156 49.9998Z" fill="black"/>
<path id="Vector_16" d="M24.3745 32.8949L22.3584 30.8788C22.2868 30.8073 22.1897 30.7671 22.0885 30.7671C21.9873 30.7671 21.8902 30.8073 21.8186 30.8788L20.9164 31.781C20.8449 31.8526 20.8047 31.9497 20.8047 32.0509C20.8047 32.1522 20.8449 32.2492 20.9164 32.3208L22.9325 34.3369C23.0041 34.4084 23.1012 34.4486 23.2024 34.4486C23.3036 34.4486 23.4007 34.4084 23.4723 34.3369L24.3745 33.4347C24.446 33.3631 24.4862 33.266 24.4862 33.1648C24.4862 33.0636 24.446 32.9665 24.3745 32.8949ZM25.6256 32.8949L27.6416 30.8788C27.7132 30.8073 27.8103 30.7671 27.9116 30.7671C28.0128 30.7671 28.1099 30.8073 28.1815 30.8788L29.0836 31.781C29.1552 31.8526 29.1954 31.9497 29.1954 32.0509C29.1954 32.1522 29.1552 32.2492 29.0836 32.3208L27.0676 34.3369C26.996 34.4084 26.8989 34.4486 26.7977 34.4486C26.6965 34.4486 26.5994 34.4084 26.5278 34.3369L25.6256 33.4347C25.5541 33.3631 25.5139 33.266 25.5139 33.1648C25.5139 33.0636 25.5541 32.9665 25.6256 32.8949Z" fill="#9BE5F9"/>
<path id="Vector_17" d="M23.2024 34.9366C23.0881 34.9368 22.9749 34.9145 22.8693 34.8708C22.7638 34.8271 22.6678 34.763 22.5871 34.6821L20.5711 32.6661C20.4082 32.5028 20.3167 32.2815 20.3167 32.0509C20.3167 31.8202 20.4082 31.5989 20.5711 31.4356L21.4733 30.5335C21.6365 30.3704 21.8578 30.2788 22.0885 30.2788C22.3192 30.2788 22.5405 30.3704 22.7037 30.5335L24.7198 32.5495L24.72 32.5497C24.8826 32.713 24.9739 32.9342 24.9739 33.1647C24.9739 33.3952 24.8826 33.6164 24.72 33.7798L23.8176 34.6821C23.7369 34.763 23.641 34.8271 23.5354 34.8707C23.4298 34.9144 23.3166 34.9368 23.2024 34.9366ZM21.3368 32.0509L23.2022 33.9165L23.9539 33.1647L22.0883 31.2993L21.3368 32.0509Z" fill="black"/>
<path id="Vector_18" d="M26.7977 34.9365C26.6834 34.9367 26.5703 34.9144 26.4647 34.8707C26.3592 34.827 26.2633 34.7629 26.1826 34.682L25.2805 33.7799C25.1177 33.6165 25.0263 33.3954 25.0263 33.1648C25.0263 32.9342 25.1176 32.713 25.2803 32.5496L25.2805 32.5494L27.2965 30.5334C27.4597 30.3704 27.681 30.2788 27.9117 30.2788C28.1424 30.2788 28.3637 30.3704 28.527 30.5334L29.4291 31.4355C29.592 31.5988 29.6835 31.8201 29.6835 32.0508C29.6835 32.2814 29.592 32.5027 29.4291 32.666L27.4131 34.682C27.3323 34.7629 27.2364 34.827 27.1308 34.8707C27.0252 34.9144 26.912 34.9367 26.7977 34.9365ZM26.0461 33.1646L26.7979 33.9164L28.6633 32.0508L27.9117 31.2992L26.0461 33.1646Z" fill="black"/>
<path id="Vector_19" d="M25.75 18.7658C23.9211 21.0658 21.2229 20.7413 20.3157 20.5513C20.1508 20.5167 19.9926 20.6411 19.9924 20.8095V24.841C19.9924 27.5951 22.2458 29.8486 25 29.8486C27.7542 29.8486 30.0077 27.5953 30.0077 24.841V20.3802C30.0077 20.354 30.0075 20.3279 30.0069 20.3019C30.0056 20.2333 29.9781 20.1678 29.93 20.1188C29.8819 20.0698 29.8169 20.0411 29.7483 20.0386C27.668 19.9777 26.5719 19.1531 26.1506 18.7404C26.1236 18.7138 26.0913 18.6933 26.0558 18.68C26.0203 18.6668 25.9825 18.6612 25.9447 18.6636C25.9069 18.666 25.87 18.6764 25.8365 18.694C25.8029 18.7116 25.7735 18.736 25.75 18.7658Z" fill="#F9D0B4"/>
<path id="Vector_20" d="M19.6711 21.0244C19.7805 21.0244 19.8877 21.0336 19.9924 21.0498V20.8092C19.9926 20.6408 20.1508 20.5164 20.3156 20.551C21.2229 20.7408 23.9209 21.0654 25.75 18.7652C25.7735 18.7355 25.8029 18.711 25.8365 18.6934C25.8701 18.6758 25.907 18.6655 25.9448 18.6631C25.9826 18.6607 26.0205 18.6663 26.056 18.6796C26.0915 18.6929 26.1238 18.7135 26.1508 18.74C26.5719 19.1529 27.668 19.9773 29.7484 20.0383C29.817 20.0408 29.882 20.0695 29.9301 20.1185C29.9782 20.1674 30.0057 20.2329 30.007 20.3016C30.0076 20.3275 30.0078 20.3537 30.0078 20.3799V21.0496C30.3264 20.9996 30.6522 21.0242 30.9596 21.1217C31.267 21.2191 31.5475 21.3866 31.7791 21.6109V17.8506C31.7791 16.2773 30.492 14.9902 28.9188 14.9902C28.3852 14.9902 27.8863 15.141 27.4576 15.398C26.9568 14.5623 26.0445 13.998 25.0045 13.998H23.5358C20.693 13.998 18.367 16.324 18.367 19.1668V21.4828C18.7367 21.1857 19.1968 21.0239 19.6711 21.0244Z" fill="#754E34"/>
<path id="Vector_21" d="M30.3289 21.0244C30.2196 21.0244 30.1123 21.0336 30.0077 21.0498V24.8408C30.0077 24.9537 30.0026 25.0654 29.995 25.1766C30.1039 25.1941 30.2149 25.2057 30.3289 25.2057C31.4836 25.2057 32.4196 24.2697 32.4196 23.115C32.4196 21.9604 31.4836 21.0244 30.3289 21.0244ZM19.9924 24.8408V21.0498C19.8861 21.0331 19.7787 21.0246 19.6711 21.0244C18.5164 21.0244 17.5805 21.9605 17.5805 23.115C17.5805 24.2697 18.5164 25.2057 19.6711 25.2057C19.785 25.2057 19.8961 25.1941 20.0051 25.1766C19.9971 25.0648 19.9929 24.9528 19.9924 24.8408Z" fill="#F9D0B4"/>
<path id="Vector_22" d="M25.0001 30.337C21.9696 30.337 19.5042 27.8716 19.5042 24.8409V20.8128C19.5037 20.7005 19.5285 20.5896 19.5766 20.4882C19.6248 20.3867 19.6952 20.2974 19.7825 20.2269C19.8698 20.1556 19.9721 20.1048 20.0816 20.0782C20.1912 20.0516 20.3054 20.05 20.4157 20.0734C21.3614 20.2716 23.7385 20.5103 25.3676 18.4618C25.4338 18.3786 25.5167 18.3102 25.6109 18.261C25.7051 18.2118 25.8086 18.1828 25.9147 18.1761C26.0207 18.1699 26.1268 18.1859 26.2263 18.2231C26.3257 18.2602 26.4164 18.3176 26.4924 18.3917C26.8286 18.7212 27.8204 19.4937 29.7626 19.5507C29.9565 19.5564 30.1408 19.6367 30.2772 19.7747C30.4135 19.9128 30.4915 20.0981 30.4948 20.2921C30.4956 20.3206 30.4958 20.3505 30.4958 20.3802V24.8409C30.496 27.8716 28.0305 30.337 25.0001 30.337ZM20.4807 21.0784V24.8411C20.4807 27.3331 22.5081 29.3607 25.0001 29.3607C27.492 29.3607 29.5194 27.3331 29.5194 24.8411V20.5181C27.6622 20.4171 26.554 19.7427 25.9835 19.2497C24.1385 21.3917 21.5643 21.2544 20.4807 21.0784Z" fill="black"/>
<path id="Vector_23" d="M31.779 21.985C31.6495 21.985 31.5253 21.9335 31.4337 21.8419C31.3421 21.7504 31.2907 21.6262 31.2907 21.4967V17.8508C31.2907 16.5428 30.2266 15.4785 28.9186 15.4785C28.4961 15.4785 28.0776 15.5957 27.7086 15.8168C27.6536 15.8498 27.5927 15.8717 27.5292 15.8811C27.4657 15.8906 27.401 15.8874 27.3388 15.8718C27.2766 15.8563 27.218 15.8286 27.1665 15.7903C27.115 15.7521 27.0715 15.7041 27.0385 15.649C26.6088 14.9318 25.8293 14.4863 25.0043 14.4863H23.5354C20.9545 14.4863 18.8547 16.5859 18.8547 19.1668V21.407C18.8547 21.5365 18.8033 21.6607 18.7117 21.7523C18.6202 21.8439 18.496 21.8953 18.3665 21.8953C18.237 21.8953 18.1128 21.8439 18.0212 21.7523C17.9296 21.6607 17.8782 21.5365 17.8782 21.407V19.1668C17.8782 16.0475 20.4159 13.5098 23.5354 13.5098H25.0043C26.0178 13.5098 26.9819 13.9838 27.6141 14.7707C28.0263 14.5937 28.4701 14.5023 28.9186 14.5018C30.7649 14.5018 32.2672 16.0039 32.2672 17.8506V21.4965C32.2673 21.5606 32.2547 21.6241 32.2301 21.6834C32.2056 21.7427 32.1696 21.7965 32.1243 21.8419C32.0789 21.8872 32.0251 21.9232 31.9659 21.9478C31.9066 21.9723 31.8431 21.985 31.779 21.985Z" fill="black"/>
<path id="Vector_24" d="M30.3289 25.6942C30.2512 25.6942 30.1743 25.6901 30.0983 25.6825C29.9701 25.669 29.8524 25.6054 29.771 25.5055C29.6895 25.4056 29.6509 25.2775 29.6635 25.1493C29.676 25.021 29.7388 24.9029 29.8381 24.8207C29.9375 24.7385 30.0652 24.699 30.1936 24.7106C30.2383 24.7149 30.283 24.7177 30.3287 24.7177C31.2121 24.7177 31.9311 23.9987 31.9311 23.1153C31.9311 22.2317 31.2121 21.5128 30.3287 21.5128C30.2873 21.5128 30.2465 21.5145 30.2061 21.5177C30.1422 21.5229 30.0779 21.5155 30.0169 21.4959C29.9558 21.4763 29.8993 21.4448 29.8504 21.4033C29.8015 21.3619 29.7613 21.3112 29.732 21.2541C29.7027 21.1971 29.685 21.1349 29.6797 21.071C29.6745 21.0071 29.6819 20.9428 29.7015 20.8818C29.7211 20.8207 29.7526 20.7642 29.794 20.7153C29.8355 20.6664 29.8862 20.6262 29.9433 20.5969C30.0003 20.5676 30.0625 20.5499 30.1264 20.5446C30.1932 20.5392 30.2608 20.5362 30.3287 20.5362C31.7508 20.5362 32.9076 21.6933 32.9076 23.1153C32.9076 24.5374 31.751 25.6942 30.3289 25.6942ZM19.6711 25.6942C18.2491 25.6942 17.0922 24.5374 17.0922 23.1153C17.0922 21.6933 18.2491 20.5362 19.6711 20.5362C19.7393 20.5362 19.8067 20.5392 19.8735 20.5446C20.0025 20.5552 20.1221 20.6166 20.2058 20.7153C20.2896 20.814 20.3307 20.942 20.3202 21.071C20.3096 21.2 20.2482 21.3196 20.1495 21.4033C20.0508 21.4871 19.9228 21.5282 19.7938 21.5177C19.753 21.5144 19.7121 21.5127 19.6711 21.5128C18.7877 21.5128 18.0688 22.2317 18.0688 23.1153C18.0688 23.9987 18.7877 24.7177 19.6711 24.7177C19.7129 24.7177 19.7541 24.7155 19.7948 24.7118C19.8587 24.7056 19.9232 24.712 19.9846 24.7308C20.046 24.7497 20.103 24.7805 20.1525 24.8215C20.2019 24.8625 20.2427 24.9129 20.2725 24.9698C20.3023 25.0266 20.3206 25.0889 20.3262 25.1528C20.3322 25.2167 20.3255 25.2811 20.3065 25.3424C20.2876 25.4036 20.2567 25.4606 20.2158 25.5099C20.1748 25.5593 20.1246 25.6001 20.0678 25.63C20.0111 25.6599 19.949 25.6783 19.8852 25.6843C19.8147 25.6905 19.7434 25.6942 19.6711 25.6942ZM27.5094 31.3886C27.4206 31.3887 27.3334 31.3645 27.2573 31.3187C27.1812 31.2729 27.1191 31.2072 27.0776 31.1286C26.9086 30.8103 26.8197 30.4556 26.8188 30.0952V29.3823C26.8188 29.2528 26.8702 29.1286 26.9618 29.0371C27.0534 28.9455 27.1776 28.894 27.3071 28.894C27.4366 28.894 27.5608 28.9455 27.6523 29.0371C27.7439 29.1286 27.7953 29.2528 27.7953 29.3823V30.0952C27.7953 30.2931 27.8455 30.4923 27.9405 30.6716C27.9799 30.746 27.9994 30.8293 27.9972 30.9134C27.9949 30.9976 27.9709 31.0797 27.9275 31.1519C27.8842 31.224 27.8229 31.2837 27.7496 31.3252C27.6763 31.3667 27.5936 31.3885 27.5094 31.3886ZM25.4354 33.6147H24.5727C24.4432 33.6147 24.319 33.5633 24.2274 33.4717C24.1359 33.3802 24.0844 33.256 24.0844 33.1265C24.0844 32.997 24.1359 32.8728 24.2274 32.7812C24.319 32.6896 24.4432 32.6382 24.5727 32.6382H25.4354C25.5649 32.6382 25.6891 32.6896 25.7807 32.7812C25.8722 32.8728 25.9237 32.997 25.9237 33.1265C25.9237 33.256 25.8722 33.3802 25.7807 33.4717C25.6891 33.5633 25.5649 33.6147 25.4354 33.6147ZM22.518 31.3401C22.4352 31.3401 22.3537 31.319 22.2812 31.2788C22.2088 31.2386 22.1478 31.1806 22.1039 31.1103C22.0601 31.04 22.0348 30.9598 22.0306 30.877C22.0263 30.7943 22.0431 30.7118 22.0795 30.6374C22.1624 30.4687 22.2053 30.2832 22.2049 30.0952V29.37C22.2049 29.2405 22.2564 29.1163 22.3479 29.0248C22.4395 28.9332 22.5637 28.8817 22.6932 28.8817C22.8227 28.8817 22.9469 28.9332 23.0385 29.0248C23.13 29.1163 23.1815 29.2405 23.1815 29.37V30.0952C23.1815 30.4298 23.1041 30.7653 22.9575 31.0659C22.9172 31.1482 22.8547 31.2175 22.777 31.266C22.6993 31.3144 22.6096 31.3401 22.518 31.3401ZM7.3725 25.2034C7.243 25.2034 7.1188 25.152 7.02723 25.0604C6.93566 24.9688 6.88422 24.8446 6.88422 24.7151V18.0786C6.88422 17.9491 6.93566 17.8249 7.02723 17.7333C7.1188 17.6418 7.243 17.5903 7.3725 17.5903C7.502 17.5903 7.62619 17.6418 7.71776 17.7333C7.80933 17.8249 7.86078 17.9491 7.86078 18.0786V24.7151C7.86078 24.8446 7.80933 24.9688 7.71776 25.0604C7.62619 25.152 7.502 25.2034 7.3725 25.2034Z" fill="black"/>
<path id="Vector_25" d="M7.37246 25.4307C7.29212 25.4306 7.21302 25.4108 7.14219 25.3729C6.57688 25.0695 5.95172 24.8944 5.3111 24.8599C4.67048 24.8255 4.03013 24.9325 3.43555 25.1734C3.31358 25.2234 3.18108 25.2423 3.05 25.2283C2.91893 25.2143 2.79341 25.1678 2.68477 25.0932C2.4375 24.9264 2.29004 24.6371 2.29004 24.3193V18.1797C2.29004 17.8145 2.48574 17.4861 2.78848 17.3434C4.23652 16.6602 5.93086 16.6654 7.37246 17.3482C8.81367 16.6654 10.5082 16.66 11.9566 17.3436C12.2594 17.4863 12.4549 17.8147 12.4549 18.1797V24.3193C12.4549 24.6369 12.3072 24.9262 12.0602 25.0932C11.9515 25.1679 11.826 25.2143 11.6949 25.2284C11.5638 25.2424 11.4313 25.2235 11.3094 25.1734C10.7147 24.9325 10.0744 24.8255 9.43373 24.86C8.79309 24.8945 8.16789 25.0696 7.60254 25.3729C7.53179 25.4108 7.45275 25.4307 7.37246 25.4307ZM5.07637 23.877C5.86269 23.877 6.64648 24.0508 7.37246 24.3955C8.0095 24.0924 8.70027 23.9183 9.4049 23.8835C10.1095 23.8487 10.8141 23.9537 11.4779 24.1926L11.4783 18.1983C10.8655 17.9221 10.1976 17.79 9.52577 17.8121C8.85397 17.8341 8.19615 18.0097 7.60273 18.3254C7.53196 18.3634 7.45288 18.3833 7.37256 18.3833C7.29223 18.3833 7.21316 18.3634 7.14238 18.3254C6.54917 18.0097 5.89152 17.834 5.21988 17.8119C4.54824 17.7898 3.88046 17.9218 3.26777 18.1979L3.2668 24.1928C3.84724 23.9839 4.45947 23.877 5.07637 23.877Z" fill="black"/>
<path id="Vector_26" d="M13.3336 27.1047H1.41155C1.17625 27.1044 0.950659 27.0108 0.784276 26.8445C0.617894 26.6781 0.524306 26.4525 0.524048 26.2172V18.9197C0.524306 18.6844 0.617894 18.4588 0.784276 18.2925C0.950659 18.1261 1.17625 18.0325 1.41155 18.0322H2.6551C2.7846 18.0322 2.9088 18.0837 3.00037 18.1752C3.09194 18.2668 3.14338 18.391 3.14338 18.5205C3.14338 18.65 3.09194 18.7742 3.00037 18.8658C2.9088 18.9573 2.7846 19.0088 2.6551 19.0088H1.50061V26.1281H13.2444V19.0088H12.1582C12.0287 19.0088 11.9045 18.9573 11.813 18.8658C11.7214 18.7742 11.6699 18.65 11.6699 18.5205C11.6699 18.391 11.7214 18.2668 11.813 18.1752C11.9045 18.0837 12.0287 18.0322 12.1582 18.0322H13.3336C13.5689 18.0325 13.7945 18.1261 13.9608 18.2925C14.1272 18.4589 14.2207 18.6844 14.2209 18.9197V26.2172C14.2207 26.4525 14.1271 26.678 13.9608 26.8444C13.7944 27.0108 13.5689 27.1044 13.3336 27.1047Z" fill="black"/>
<path id="Vector_27" d="M8.98634 19.7186C8.86246 19.7185 8.74323 19.6714 8.6528 19.5867C8.56237 19.5021 8.5075 19.3862 8.49931 19.2626C8.49112 19.139 8.53021 19.0169 8.60867 18.921C8.68714 18.8251 8.7991 18.7627 8.92189 18.7463C9.38297 18.6846 9.85018 18.6843 10.3113 18.7453C10.4389 18.7632 10.5542 18.8308 10.6322 18.9333C10.7101 19.0358 10.7445 19.1649 10.7276 19.2926C10.7108 19.4203 10.6442 19.5362 10.5424 19.615C10.4405 19.6938 10.3116 19.7292 10.1838 19.7135C9.80808 19.6638 9.42744 19.664 9.05177 19.7141C9.03009 19.7171 9.00823 19.7186 8.98634 19.7186ZM8.98634 21.3887C8.86246 21.3886 8.74323 21.3415 8.6528 21.2568C8.56237 21.1722 8.5075 21.0563 8.49931 20.9327C8.49112 20.8091 8.53021 20.687 8.60867 20.5911C8.68714 20.4953 8.7991 20.4328 8.92189 20.4164C9.38297 20.3548 9.85018 20.3544 10.3113 20.4154C10.4397 20.4323 10.5561 20.4996 10.635 20.6023C10.7138 20.7051 10.7486 20.8349 10.7317 20.9633C10.7235 21.0269 10.7028 21.0883 10.6708 21.144C10.6388 21.1996 10.5961 21.2483 10.5452 21.2874C10.4943 21.3265 10.4361 21.3551 10.3741 21.3716C10.3121 21.3881 10.2474 21.3922 10.1838 21.3836C9.80809 21.3338 9.42743 21.334 9.05177 21.3842C9.03009 21.3872 9.00823 21.3887 8.98634 21.3887ZM8.98634 23.0588C8.86246 23.0587 8.74323 23.0116 8.6528 22.9269C8.56237 22.8423 8.5075 22.7264 8.49931 22.6028C8.49112 22.4792 8.53021 22.3571 8.60867 22.2612C8.68714 22.1654 8.7991 22.1029 8.92189 22.0865C9.38297 22.0249 9.85018 22.0245 10.3113 22.0855C10.4397 22.1025 10.5561 22.1697 10.635 22.2724C10.7138 22.3752 10.7486 22.505 10.7317 22.6334C10.7234 22.697 10.7027 22.7584 10.6707 22.814C10.6387 22.8696 10.596 22.9183 10.5451 22.9574C10.4942 22.9965 10.436 23.0251 10.374 23.0416C10.312 23.0581 10.2474 23.0622 10.1838 23.0537C9.80808 23.0041 9.42744 23.0043 9.05177 23.0543C9.03009 23.0573 9.00823 23.0588 8.98634 23.0588ZM5.65548 19.7186C5.634 19.7186 5.61193 19.7172 5.58986 19.7143C5.2142 19.664 4.83353 19.6638 4.45783 19.7137C4.39398 19.7226 4.329 19.7188 4.26663 19.7026C4.20426 19.6863 4.14573 19.6578 4.09442 19.6188C4.04311 19.5797 4.00003 19.5309 3.96768 19.4752C3.93533 19.4194 3.91434 19.3578 3.90592 19.2939C3.8975 19.23 3.90182 19.165 3.91863 19.1028C3.93544 19.0406 3.9644 18.9823 4.00386 18.9313C4.04331 18.8803 4.09247 18.8376 4.14849 18.8058C4.20452 18.7739 4.26631 18.7534 4.33029 18.7455C4.79144 18.6843 5.25867 18.6846 5.71974 18.7465C5.84222 18.7632 5.95379 18.8258 6.03196 18.9215C6.11012 19.0173 6.14905 19.1391 6.1409 19.2625C6.13275 19.3858 6.07811 19.5015 5.98802 19.5861C5.89793 19.6708 5.77909 19.7181 5.65548 19.7186ZM5.65548 21.3887C5.634 21.3887 5.61193 21.3873 5.58986 21.3844C5.2142 21.3342 4.83354 21.334 4.45783 21.3838C4.19103 21.4209 3.94532 21.2309 3.90997 20.9635C3.89307 20.8351 3.92785 20.7052 4.00667 20.6025C4.08549 20.4998 4.2019 20.4325 4.33029 20.4156C4.79144 20.3544 5.25867 20.3547 5.71974 20.4166C5.84222 20.4333 5.95379 20.4959 6.03196 20.5916C6.11012 20.6874 6.14905 20.8093 6.1409 20.9326C6.13275 21.0559 6.07811 21.1716 5.98802 21.2563C5.89793 21.3409 5.77909 21.3882 5.65548 21.3887ZM5.65548 23.0588C5.634 23.0588 5.61193 23.0574 5.58986 23.0545C5.2142 23.0043 4.83354 23.0041 4.45783 23.0539C4.33 23.0697 4.20112 23.0343 4.09927 22.9555C3.99741 22.8766 3.93082 22.7608 3.914 22.6331C3.89718 22.5054 3.93149 22.3762 4.00946 22.2737C4.08743 22.1712 4.20274 22.1036 4.33029 22.0857C4.79144 22.0245 5.25867 22.0249 5.71974 22.0867C5.84222 22.1034 5.95379 22.166 6.03196 22.2618C6.11012 22.3575 6.14905 22.4794 6.1409 22.6027C6.13275 22.7261 6.07811 22.8417 5.98802 22.9264C5.89793 23.011 5.77909 23.0583 5.65548 23.0588ZM13.2813 9.375C10.6426 9.375 8.49611 7.18457 8.49611 4.49219C8.49611 4.28437 8.509 4.0752 8.53478 3.87109C8.5677 3.61125 8.69421 3.37232 8.89061 3.19903C9.08702 3.02574 9.33985 2.92999 9.60177 2.92969H16.9608C17.2227 2.92999 17.4755 3.02574 17.6719 3.19903C17.8683 3.37232 17.9948 3.61125 18.0277 3.87109C18.0535 4.0752 18.0664 4.28437 18.0664 4.49219C18.0664 7.18457 15.9199 9.375 13.2813 9.375ZM9.60177 3.90625C9.55197 3.90625 9.50997 3.94336 9.50372 3.99258C9.48308 4.15832 9.47271 4.32517 9.47267 4.49219C9.47267 6.64609 11.1813 8.39844 13.2813 8.39844C15.3813 8.39844 17.0899 6.64609 17.0899 4.49219C17.0899 4.325 17.0793 4.15703 17.0588 3.99316V3.99258C17.0558 3.96872 17.0441 3.9468 17.0261 3.9309C17.008 3.91501 16.9848 3.90625 16.9608 3.90625H9.60177Z" fill="black"/>
<path id="Vector_28" d="M15.3793 11.3281H11.1832C10.0785 11.3281 9.17969 10.4293 9.17969 9.32461C9.17995 9.07905 9.27761 8.84363 9.45124 8.66999C9.62488 8.49636 9.8603 8.3987 10.1059 8.39844H16.4566C16.7022 8.3987 16.9376 8.49636 17.1113 8.66999C17.2849 8.84363 17.3826 9.07905 17.3828 9.32461C17.3828 10.4293 16.484 11.3281 15.3793 11.3281ZM10.1574 9.375C10.1838 9.91797 10.6338 10.3516 11.1832 10.3516H15.3793C15.6428 10.3512 15.8962 10.2497 16.0871 10.068C16.278 9.8863 16.3918 9.63822 16.4051 9.375H10.1574ZM11.3281 1.95312C11.1986 1.95312 11.0744 1.90168 10.9829 1.81011C10.8913 1.71854 10.8398 1.59434 10.8398 1.46484V0.488281C10.8398 0.358781 10.8913 0.234585 10.9829 0.143014C11.0744 0.0514438 11.1986 0 11.3281 0C11.4576 0 11.5818 0.0514438 11.6734 0.143014C11.765 0.234585 11.8164 0.358781 11.8164 0.488281V1.46484C11.8164 1.59434 11.765 1.71854 11.6734 1.81011C11.5818 1.90168 11.4576 1.95312 11.3281 1.95312ZM13.2812 1.95312C13.1517 1.95312 13.0276 1.90168 12.936 1.81011C12.8444 1.71854 12.793 1.59434 12.793 1.46484V0.488281C12.793 0.358781 12.8444 0.234585 12.936 0.143014C13.0276 0.0514438 13.1517 0 13.2812 0C13.4108 0 13.5349 0.0514438 13.6265 0.143014C13.7181 0.234585 13.7695 0.358781 13.7695 0.488281V1.46484C13.7695 1.59434 13.7181 1.71854 13.6265 1.81011C13.5349 1.90168 13.4108 1.95312 13.2812 1.95312ZM15.2344 1.95312C15.1049 1.95312 14.9807 1.90168 14.8891 1.81011C14.7975 1.71854 14.7461 1.59434 14.7461 1.46484V0.488281C14.7461 0.358781 14.7975 0.234585 14.8891 0.143014C14.9807 0.0514438 15.1049 0 15.2344 0C15.3639 0 15.4881 0.0514438 15.5796 0.143014C15.6712 0.234585 15.7227 0.358781 15.7227 0.488281V1.46484C15.7227 1.59434 15.6712 1.71854 15.5796 1.81011C15.4881 1.90168 15.3639 1.95312 15.2344 1.95312ZM17.7807 8.00781H16.4551C16.3256 8.00781 16.2014 7.95637 16.1098 7.8648C16.0182 7.77323 15.9668 7.64903 15.9668 7.51953C15.9668 7.39003 16.0182 7.26583 16.1098 7.17426C16.2014 7.08269 16.3256 7.03125 16.4551 7.03125H17.7807C18.1629 7.03085 18.5356 6.91211 18.8477 6.69133C19.1597 6.47055 19.3957 6.15856 19.5232 5.79824C19.6145 5.53984 19.5762 5.26328 19.4178 5.03945C19.2594 4.81563 19.0115 4.6875 18.7375 4.6875H17.627C17.4975 4.6875 17.3733 4.63606 17.2817 4.54449C17.1901 4.45292 17.1387 4.32872 17.1387 4.19922C17.1387 4.06972 17.1901 3.94552 17.2817 3.85395C17.3733 3.76238 17.4975 3.71094 17.627 3.71094H18.7375C19.324 3.71094 19.8764 3.99688 20.215 4.47559C20.5537 4.9543 20.6395 5.57031 20.4441 6.12344C20.2491 6.67411 19.8883 7.15088 19.4114 7.48829C18.9345 7.82569 18.3649 8.00717 17.7807 8.00781ZM39.7518 21.0818C39.6876 21.0819 39.6241 21.0693 39.5648 21.0448C39.5056 21.0203 39.4517 20.9843 39.4064 20.9389C39.361 20.8936 39.3251 20.8397 39.3005 20.7805C39.276 20.7212 39.2634 20.6577 39.2635 20.5936V18.3008C39.2635 18.0705 39.4242 17.8717 39.6496 17.8234L45.4861 16.5727C45.5573 16.5573 45.631 16.5581 45.7019 16.575C45.7727 16.5919 45.8389 16.6244 45.8955 16.6702C45.9522 16.7159 45.9979 16.7738 46.0292 16.8395C46.0606 16.9053 46.0768 16.9772 46.0768 17.05V19.343C46.0768 19.4547 46.0384 19.5631 45.9681 19.65C45.8979 19.7368 45.7999 19.797 45.6906 19.8203L39.8541 21.0709C39.8205 21.0782 39.7862 21.0819 39.7518 21.0818ZM40.24 18.6955V19.9896L45.1 18.9482V17.6541L40.24 18.6955Z" fill="black"/>
<path id="Vector_29" d="M45.5883 25.0424C45.4588 25.0424 45.3346 24.9909 45.243 24.8994C45.1515 24.8078 45.1 24.6836 45.1 24.5541V19.3428C45.1 19.2133 45.1515 19.0891 45.243 18.9975C45.3346 18.9059 45.4588 18.8545 45.5883 18.8545C45.7178 18.8545 45.842 18.9059 45.9336 18.9975C46.0252 19.0891 46.0766 19.2133 46.0766 19.3428V24.5541C46.0766 24.6182 46.064 24.6817 46.0394 24.741C46.0149 24.8002 45.9789 24.854 45.9336 24.8994C45.8882 24.9447 45.8344 24.9807 45.7752 25.0052C45.7159 25.0298 45.6524 25.0424 45.5883 25.0424Z" fill="black"/>
<path id="Vector_30" d="M44.1291 26.5018C43.0553 26.5018 42.1817 25.6281 42.1817 24.5543C42.1817 23.4805 43.0553 22.6066 44.1291 22.6066C45.2029 22.6066 46.0766 23.4805 46.0766 24.5543C46.0766 25.6281 45.2029 26.5018 44.1291 26.5018ZM44.1291 23.5834C43.5938 23.5834 43.1582 24.0189 43.1582 24.5545C43.1582 25.09 43.5936 25.5254 44.1291 25.5254C44.6647 25.5254 45.1 25.09 45.1 24.5545C45.1 24.0189 44.6647 23.5834 44.1291 23.5834ZM39.7518 26.2934C39.6223 26.2934 39.4981 26.2419 39.4065 26.1503C39.3149 26.0588 39.2635 25.9346 39.2635 25.8051V20.5937C39.2635 20.4642 39.3149 20.3401 39.4065 20.2485C39.4981 20.1569 39.6223 20.1055 39.7518 20.1055C39.8813 20.1055 40.0055 20.1569 40.097 20.2485C40.1886 20.3401 40.2401 20.4642 40.2401 20.5937V25.8051C40.2401 25.9346 40.1886 26.0588 40.097 26.1503C40.0055 26.2419 39.8813 26.2934 39.7518 26.2934Z" fill="black"/>
<path id="Vector_31" d="M38.2928 27.7522C37.219 27.7522 36.3453 26.8785 36.3453 25.8047C36.3453 24.7309 37.219 23.8573 38.2928 23.8573C39.3666 23.8573 40.2403 24.7309 40.2403 25.8047C40.2403 26.8785 39.3666 27.7522 38.2928 27.7522ZM38.2928 24.8338C37.7574 24.8338 37.3219 25.2692 37.3219 25.8047C37.3219 26.3403 37.7573 26.7756 38.2928 26.7756C38.8283 26.7756 39.2637 26.3403 39.2637 25.8047C39.2637 25.2692 38.8281 24.8338 38.2928 24.8338ZM36.0276 8.16331C35.9309 8.16347 35.8364 8.13494 35.756 8.08133C35.6756 8.02772 35.613 7.95144 35.576 7.86217C35.539 7.7729 35.5294 7.67466 35.5483 7.5799C35.5672 7.48514 35.6138 7.39813 35.6822 7.32991L37.06 5.95217C37.1053 5.90684 37.1591 5.87088 37.2184 5.84634C37.2776 5.82181 37.3411 5.80918 37.4052 5.80918C37.4693 5.80918 37.5328 5.82181 37.592 5.84634C37.6513 5.87088 37.7051 5.90684 37.7504 5.95217C37.7957 5.99751 37.8317 6.05133 37.8562 6.11056C37.8808 6.16979 37.8934 6.23327 37.8934 6.29739C37.8934 6.3615 37.8808 6.42498 37.8562 6.48422C37.8317 6.54345 37.7957 6.59727 37.7504 6.6426L36.3727 8.02034C36.3274 8.06574 36.2736 8.10174 36.2144 8.12628C36.1552 8.15081 36.0917 8.1634 36.0276 8.16331ZM34.5781 6.3676C34.4815 6.36777 34.387 6.33924 34.3066 6.28563C34.2262 6.23202 34.1636 6.15574 34.1266 6.06647C34.0896 5.9772 34.0799 5.87896 34.0989 5.7842C34.1178 5.68944 34.1644 5.60243 34.2328 5.5342L35.4414 4.32561C35.533 4.23405 35.6572 4.18262 35.7866 4.18262C35.9161 4.18262 36.0403 4.23405 36.1319 4.32561C36.2234 4.41717 36.2749 4.54134 36.2749 4.67082C36.2749 4.80031 36.2234 4.92448 36.1319 5.01604L34.9233 6.22463C34.878 6.27 34.8242 6.30598 34.765 6.33052C34.7057 6.35505 34.6423 6.36765 34.5781 6.3676Z" fill="black"/>
<path id="Vector_32" d="M37.4674 6.72368C37.3379 6.72362 37.2137 6.67221 37.1221 6.58072L35.4992 4.95786C35.4539 4.91253 35.4179 4.85869 35.3934 4.79944C35.3688 4.74019 35.3562 4.67668 35.3562 4.61255C35.3562 4.55142 35.3689 3.09947 36.473 1.99575C37.0914 1.3772 37.9316 1.40376 38.6062 1.42466C39.0137 1.43736 39.399 1.44966 39.6746 1.33618C39.8172 1.27717 39.9717 1.25291 40.1255 1.2654C40.2792 1.2779 40.4278 1.3268 40.559 1.40806C40.6857 1.4861 40.7918 1.59353 40.8682 1.72127C40.9446 1.849 40.9891 1.99327 40.9978 2.14185C41.1756 4.90415 40.0059 6.44458 37.5213 6.72056C37.5034 6.72267 37.4854 6.72371 37.4674 6.72368ZM36.3471 4.42427L37.6422 5.71958C39.9047 5.36509 40.1137 3.69048 40.0256 2.24107C39.5666 2.43189 39.0633 2.41587 38.5756 2.40064C37.9902 2.38208 37.4834 2.36626 37.1637 2.68599C36.5465 3.30318 36.3879 4.07427 36.3471 4.42427ZM31.0107 12.3627C30.841 12.3627 30.673 12.329 30.5163 12.2637C30.3596 12.1984 30.2174 12.1028 30.0979 11.9823C29.8593 11.7458 29.7227 11.4253 29.7174 11.0894C29.7122 10.7535 29.8385 10.4289 30.0695 10.185L32.6154 7.47427C32.6593 7.42754 32.712 7.38991 32.7705 7.36354C32.8289 7.33717 32.892 7.32257 32.9561 7.32058C33.0202 7.31858 33.0841 7.32923 33.144 7.35191C33.204 7.3746 33.2589 7.40888 33.3057 7.45279C33.3524 7.4967 33.39 7.54938 33.4164 7.60783C33.4428 7.66629 33.4574 7.72936 33.4594 7.79345C33.4614 7.85755 33.4507 7.92141 33.428 7.98139C33.4053 8.04137 33.3711 8.09629 33.3271 8.14302L30.7816 10.8534C30.6645 10.9782 30.6676 11.1706 30.7885 11.2917C30.8462 11.3497 30.9244 11.3829 31.0063 11.3842C31.0881 11.3854 31.1673 11.3546 31.2268 11.2983L34.0508 8.64556C34.1452 8.55688 34.2709 8.50932 34.4003 8.51335C34.5298 8.51738 34.6523 8.57266 34.741 8.66704C34.8297 8.76142 34.8773 8.88717 34.8732 9.01661C34.8692 9.14606 34.8139 9.2686 34.7195 9.35728L31.8953 12.01C31.6563 12.2361 31.3398 12.3623 31.0107 12.3627Z" fill="black"/>
<path id="Vector_33" d="M33.1752 8.2553C33.0699 8.25562 32.9655 8.23502 32.8681 8.19469C32.7707 8.15436 32.6823 8.09509 32.6081 8.02034L31.2305 6.6426C31.1852 6.59727 31.1492 6.54345 31.1247 6.48422C31.1002 6.42498 31.0875 6.3615 31.0875 6.29739C31.0875 6.23328 31.1002 6.16979 31.1247 6.11056C31.1492 6.05133 31.1852 5.99751 31.2305 5.95217C31.2759 5.90684 31.3297 5.87088 31.3889 5.84634C31.4481 5.82181 31.5116 5.80918 31.5757 5.80918C31.6398 5.80918 31.7033 5.82181 31.7626 5.84634C31.8218 5.87088 31.8756 5.90684 31.9209 5.95217L33.1752 7.20647L34.1073 6.27444L32.8801 5.04729C32.8348 5.00196 32.7988 4.94814 32.7743 4.8889C32.7498 4.82967 32.7371 4.76619 32.7371 4.70207C32.7371 4.63796 32.7498 4.57448 32.7743 4.51525C32.7988 4.45601 32.8348 4.40219 32.8801 4.35686C32.9255 4.31153 32.9793 4.27556 33.0385 4.25103C33.0977 4.2265 33.1612 4.21387 33.2253 4.21387C33.2895 4.21387 33.3529 4.2265 33.4122 4.25103C33.4714 4.27556 33.5252 4.31153 33.5706 4.35686L34.9213 5.70745C35.0715 5.85794 35.1558 6.06185 35.1558 6.27444C35.1558 6.48703 35.0715 6.69094 34.9213 6.84143L33.742 8.02073C33.6677 8.09532 33.5794 8.15446 33.4821 8.19472C33.3848 8.23498 33.2805 8.25557 33.1752 8.2553Z" fill="black"/>
<path id="Vector_34" d="M31.5141 6.72394C31.4961 6.72394 31.4781 6.72296 31.4602 6.72081C28.9754 6.44484 27.8057 4.90421 27.9834 2.1423C27.9922 1.99369 28.0367 1.84939 28.1131 1.72162C28.1895 1.59385 28.2955 1.48638 28.4223 1.40831C28.5535 1.3272 28.7021 1.27839 28.8558 1.2659C29.0096 1.2534 29.1641 1.27758 29.3067 1.33644C29.5822 1.44992 29.967 1.43781 30.375 1.42492C31.0504 1.40402 31.8899 1.37745 32.5084 1.99601C33.6121 3.09972 33.625 4.55167 33.625 4.61281C33.625 4.7423 33.5735 4.86652 33.482 4.95812L31.8594 6.58097C31.7678 6.67246 31.6436 6.72388 31.5141 6.72394ZM28.9553 2.24777C28.8682 3.69542 29.0797 5.36574 31.3393 5.71984L32.633 4.42589C32.5901 4.07472 32.4279 3.29679 31.8178 2.68644C31.4981 2.36671 30.991 2.38273 30.4057 2.40109C29.9199 2.41593 29.4186 2.43175 28.9553 2.24777ZM37.9703 12.3628C37.6535 12.3628 37.3365 12.2456 37.0861 12.0105L32.9908 8.16417C32.9441 8.12026 32.9065 8.06758 32.8801 8.00913C32.8537 7.95067 32.8391 7.8876 32.8371 7.82351C32.8351 7.75941 32.8458 7.69555 32.8685 7.63557C32.8912 7.57559 32.9254 7.52067 32.9693 7.47394C33.0133 7.42721 33.0659 7.38958 33.1244 7.36321C33.1829 7.33684 33.2459 7.32224 33.31 7.32024C33.3741 7.31825 33.438 7.3289 33.498 7.35158C33.5579 7.37427 33.6129 7.40854 33.6596 7.45245L37.7547 11.2987C37.8795 11.4159 38.0719 11.413 38.193 11.2919C38.2511 11.2342 38.2843 11.156 38.2856 11.0741C38.2868 10.9922 38.256 10.9131 38.1996 10.8536L34.3709 6.77745C34.2822 6.68307 34.2347 6.55733 34.2387 6.42789C34.2427 6.29844 34.298 6.1759 34.3924 6.08722C34.4868 5.99854 34.6125 5.95098 34.742 5.95501C34.8714 5.95904 34.994 6.01432 35.0826 6.1087L38.9113 10.1851C39.1423 10.429 39.2687 10.7536 39.2635 11.0895C39.2583 11.4254 39.1219 11.7459 38.8834 11.9825C38.7638 12.103 38.6215 12.1986 38.4648 12.2638C38.3081 12.3291 38.1401 12.3627 37.9703 12.3628Z" fill="black"/>
<path id="Vector_35" d="M7.45941 8.75976C6.58051 8.60351 5.89691 7.91992 5.72113 7.06055C5.72113 7.02148 5.64301 7.02148 5.64301 7.06055C5.46722 7.91992 4.78363 8.60351 3.90472 8.75976C3.86566 8.75976 3.86566 8.81836 3.90472 8.83789C4.78363 8.99414 5.46722 9.67773 5.64301 10.5371C5.64301 10.5762 5.72113 10.5762 5.72113 10.5371C5.89691 9.67773 6.58051 8.99414 7.45941 8.83789C7.49847 8.81836 7.49847 8.75976 7.45941 8.75976Z" fill="#F5C84C"/>
<path id="Vector_36" d="M37.3051 16.6131C36.6883 16.5035 36.2088 16.0238 36.0854 15.4209C36.0854 15.3936 36.0305 15.3936 36.0305 15.4209C35.9073 16.0238 35.4276 16.5035 34.8108 16.6131C34.7834 16.6131 34.7834 16.6541 34.8108 16.668C35.4276 16.7775 35.9071 17.2572 36.0305 17.8602C36.0305 17.8875 36.0854 17.8875 36.0854 17.8602C36.2086 17.2572 36.6883 16.7775 37.3051 16.668C37.3327 16.6541 37.3327 16.6131 37.3051 16.6131Z" fill="#70D6F9"/>
<path id="Vector_37" d="M40.2524 33.2715H39.8032V32.8223C39.8032 32.4902 39.5297 32.1973 39.1782 32.1973C38.8266 32.1973 38.5532 32.4707 38.5532 32.8223V33.2715H38.1039C37.7719 33.2715 37.4789 33.5449 37.4789 33.8965C37.4789 34.248 37.7524 34.5215 38.1039 34.5215H38.5532V34.9707C38.5532 35.3027 38.8266 35.5957 39.1782 35.5957C39.5297 35.5957 39.8032 35.3223 39.8032 34.9707V34.5215H40.2524C40.5844 34.5215 40.8774 34.248 40.8774 33.8965C40.8774 33.5449 40.6039 33.2715 40.2524 33.2715Z" fill="#87D147"/>
<path id="Vector_38" d="M8.04535 14.5801C8.4121 14.5801 8.70941 14.2828 8.70941 13.916C8.70941 13.5493 8.4121 13.252 8.04535 13.252C7.6786 13.252 7.38129 13.5493 7.38129 13.916C7.38129 14.2828 7.6786 14.5801 8.04535 14.5801Z" fill="#FC657E"/>
<path id="Vector_39" d="M41.6391 30.0098C42.0058 30.0098 42.3032 29.7125 42.3032 29.3457C42.3032 28.979 42.0058 28.6816 41.6391 28.6816C41.2723 28.6816 40.975 28.979 40.975 29.3457C40.975 29.7125 41.2723 30.0098 41.6391 30.0098Z" fill="#F5C84C"/>
<path id="Vector_40" d="M25.0756 27.2473C24.3272 27.2473 23.6229 26.9402 23.1918 26.426C23.1506 26.3768 23.1195 26.3201 23.1003 26.2589C23.081 26.1977 23.074 26.1334 23.0796 26.0695C23.0853 26.0056 23.1034 25.9435 23.133 25.8866C23.1627 25.8298 23.2032 25.7793 23.2524 25.7381C23.3015 25.6969 23.3583 25.6658 23.4195 25.6465C23.4806 25.6273 23.545 25.6203 23.6089 25.6259C23.6727 25.6315 23.7349 25.6497 23.7917 25.6793C23.8486 25.709 23.8991 25.7495 23.9403 25.7986C24.1881 26.0945 24.6123 26.2709 25.0756 26.2709C25.5389 26.2709 25.9631 26.0943 26.2112 25.7986C26.2944 25.6994 26.4135 25.6374 26.5425 25.626C26.6715 25.6147 26.7997 25.6551 26.8989 25.7383C26.9981 25.8215 27.0601 25.9407 27.0715 26.0696C27.0828 26.1986 27.0424 26.3268 26.9592 26.426C26.528 26.9402 25.8239 27.2473 25.0756 27.2473Z" fill="black"/>
<path id="Vector_41" d="M26.9967 23.876C27.3893 23.876 27.7076 23.5577 27.7076 23.165C27.7076 22.7724 27.3893 22.4541 26.9967 22.4541C26.6041 22.4541 26.2858 22.7724 26.2858 23.165C26.2858 23.5577 26.6041 23.876 26.9967 23.876Z" fill="black"/>
<path id="Vector_42" d="M23.0034 23.876C23.396 23.876 23.7143 23.5577 23.7143 23.165C23.7143 22.7724 23.396 22.4541 23.0034 22.4541C22.6107 22.4541 22.2924 22.7724 22.2924 23.165C22.2924 23.5577 22.6107 23.876 23.0034 23.876Z" fill="black"/>
</g>
</g>
<defs>
<clipPath id="clip0_193_2648">
<rect width="50" height="50" fill="white"/>
</clipPath>
</defs>
</svg>
