<svg width="50" height="50" viewBox="0 0 50 50" fill="none" xmlns="http://www.w3.org/2000/svg">
<g id="Frame" clip-path="url(#clip0_193_2584)">
<g id="Group">
<path id="Vector" d="M48.291 43.4082H1.70898C1.16963 43.4082 0.732422 42.971 0.732422 42.4316V3.85742C0.732422 3.31807 1.16963 2.88086 1.70898 2.88086H48.291C48.8304 2.88086 49.2676 3.31807 49.2676 3.85742V42.4316C49.2676 42.971 48.8304 43.4082 48.291 43.4082Z" fill="#E7ECF6"/>
<path id="Vector_2" d="M48.291 2.88086H45.3613C45.9007 2.88086 46.3379 3.31807 46.3379 3.85742V42.4316C46.3379 42.971 45.9007 43.4082 45.3613 43.4082H48.291C48.8304 43.4082 49.2676 42.971 49.2676 42.4316V3.85742C49.2676 3.31807 48.8304 2.88086 48.291 2.88086Z" fill="#D8E2F1"/>
<path id="Vector_3" d="M49.2676 11.4077H0.732422V3.85742C0.732422 3.31807 1.16963 2.88086 1.70898 2.88086H48.291C48.8304 2.88086 49.2676 3.31807 49.2676 3.85742V11.4077Z" fill="#4073C8"/>
<path id="Vector_4" d="M48.291 2.88086H45.3613C45.9007 2.88086 46.3379 3.31807 46.3379 3.85742V11.4077H49.2676V3.85742C49.2676 3.31807 48.8304 2.88086 48.291 2.88086Z" fill="#3B66C1"/>
<path id="Vector_5" d="M31.245 8.60937C32.054 8.60937 32.7099 7.95354 32.7099 7.14453C32.7099 6.33552 32.054 5.67969 31.245 5.67969C30.436 5.67969 29.7802 6.33552 29.7802 7.14453C29.7802 7.95354 30.436 8.60937 31.245 8.60937Z" fill="#B7E445"/>
<path id="Vector_6" d="M37.3485 8.60937C38.1576 8.60937 38.8134 7.95354 38.8134 7.14453C38.8134 6.33552 38.1576 5.67969 37.3485 5.67969C36.5395 5.67969 35.8837 6.33552 35.8837 7.14453C35.8837 7.95354 36.5395 8.60937 37.3485 8.60937Z" fill="#FFE07D"/>
<path id="Vector_7" d="M43.4521 8.60937C44.2611 8.60937 44.9169 7.95354 44.9169 7.14453C44.9169 6.33552 44.2611 5.67969 43.4521 5.67969C42.643 5.67969 41.9872 6.33552 41.9872 7.14453C41.9872 7.95354 42.643 8.60937 43.4521 8.60937Z" fill="#DD4FB1"/>
<path id="Vector_8" d="M34.375 47.1191C39.7684 47.1191 44.1406 42.7469 44.1406 37.3535C44.1406 31.9601 39.7684 27.5879 34.375 27.5879C28.9816 27.5879 24.6094 31.9601 24.6094 37.3535C24.6094 42.7469 28.9816 47.1191 34.375 47.1191Z" fill="#FFE07D"/>
<path id="Vector_9" d="M34.375 27.5879C33.8771 27.5879 33.388 27.6254 32.9102 27.6973C37.6086 28.4041 41.2109 32.458 41.2109 37.3535C41.2109 42.249 37.6086 46.3029 32.9102 47.0098C33.388 47.0816 33.8771 47.1191 34.375 47.1191C39.7685 47.1191 44.1406 42.747 44.1406 37.3535C44.1406 31.9601 39.7685 27.5879 34.375 27.5879Z" fill="#FFD064"/>
<path id="Vector_10" d="M23.8281 45.9473C26.2552 45.9473 28.2227 43.2365 28.2227 39.8926C28.2227 36.5487 26.2552 33.8379 23.8281 33.8379C21.4011 33.8379 19.4336 36.5487 19.4336 39.8926C19.4336 43.2365 21.4011 45.9473 23.8281 45.9473Z" fill="#FFD064"/>
<path id="Vector_11" d="M23.8281 43.0176C24.6371 43.0176 25.293 41.6185 25.293 39.8926C25.293 38.1667 24.6371 36.7676 23.8281 36.7676C23.0191 36.7676 22.3633 38.1667 22.3633 39.8926C22.3633 41.6185 23.0191 43.0176 23.8281 43.0176Z" fill="#665E66"/>
<path id="Vector_12" d="M29.2713 32.2183C30.3277 32.065 31.0334 30.9022 30.8475 29.6212C30.6616 28.3402 29.6545 27.4261 28.5981 27.5794C27.5417 27.7327 26.8361 28.8954 27.022 30.1764C27.2079 31.4574 28.2149 32.3716 29.2713 32.2183Z" fill="#665E66"/>
<path id="Vector_13" d="M37.9989 28.6792C38.0552 27.386 37.2363 26.3 36.1698 26.2535C35.1034 26.2071 34.1932 27.2178 34.1369 28.511C34.0806 29.8042 34.8995 30.8902 35.9659 30.9366C37.0324 30.983 37.9426 29.9723 37.9989 28.6792Z" fill="#665E66"/>
<path id="Vector_14" d="M24.1699 16.6077V24.1774C24.1699 25.4311 23.1537 26.4473 21.9001 26.4473H17.5051C17.3636 26.4474 17.2269 26.4987 17.1203 26.5917C17.0137 26.6848 16.9444 26.8133 16.9252 26.9535C16.8028 27.8361 16.8478 28.907 17.014 29.7798C17.1441 30.4634 16.4714 30.7563 15.8313 30.2029C14.484 29.0384 13.495 27.755 13.1041 26.8697C12.9911 26.6139 12.7403 26.4473 12.4606 26.4473H5.93193C4.67832 26.4473 3.66211 25.4311 3.66211 24.1774V16.6077C3.66211 15.3541 4.67832 14.3379 5.93193 14.3379H21.9001C23.1537 14.3379 24.1699 15.3541 24.1699 16.6077Z" fill="#DD4FB1"/>
<path id="Vector_15" d="M21.9001 14.3379H18.9704C20.224 14.3379 21.2402 15.3541 21.2402 16.6077V24.1774C21.2402 25.4311 20.224 26.4473 18.9704 26.4473H21.9001C23.1537 26.4473 24.1699 25.4311 24.1699 24.1774V16.6077C24.1699 15.3541 23.1537 14.3379 21.9001 14.3379Z" fill="#DA2EA2"/>
<path id="Vector_16" d="M49.0451 11.4077H0.952148M20.1172 43.4082H1.70898C1.16963 43.4082 0.732422 42.971 0.732422 42.4316V3.85742C0.732422 3.31807 1.16963 2.88086 1.70898 2.88086H7.05293M49.2676 35.7277V42.4316C49.2676 42.971 48.8304 43.4082 48.291 43.4082H42.3611M10.6554 2.88086H48.291C48.8304 2.88086 49.2676 3.31807 49.2676 3.85742V32.2429" stroke="black" stroke-width="2" stroke-miterlimit="10" stroke-linecap="round" stroke-linejoin="round"/>
<path id="Vector_17" d="M31.245 8.60937C32.054 8.60937 32.7099 7.95354 32.7099 7.14453C32.7099 6.33552 32.054 5.67969 31.245 5.67969C30.436 5.67969 29.7802 6.33552 29.7802 7.14453C29.7802 7.95354 30.436 8.60937 31.245 8.60937Z" stroke="black" stroke-width="2" stroke-miterlimit="10" stroke-linecap="round" stroke-linejoin="round"/>
<path id="Vector_18" d="M37.3485 8.60937C38.1576 8.60937 38.8134 7.95354 38.8134 7.14453C38.8134 6.33552 38.1576 5.67969 37.3485 5.67969C36.5395 5.67969 35.8837 6.33552 35.8837 7.14453C35.8837 7.95354 36.5395 8.60937 37.3485 8.60937Z" stroke="black" stroke-width="2" stroke-miterlimit="10" stroke-linecap="round" stroke-linejoin="round"/>
<path id="Vector_19" d="M43.4521 8.60937C44.2611 8.60937 44.9169 7.95354 44.9169 7.14453C44.9169 6.33552 44.2611 5.67969 43.4521 5.67969C42.643 5.67969 41.9872 6.33552 41.9872 7.14453C41.9872 7.95354 42.643 8.60937 43.4521 8.60937Z" stroke="black" stroke-width="2" stroke-miterlimit="10" stroke-linecap="round" stroke-linejoin="round"/>
<path id="Vector_20" d="M25.2118 33.9689C25.6394 32.8136 26.2817 31.7496 27.1049 30.8331M38.1281 28.3351C41.6587 29.8061 44.1406 33.2898 44.1406 37.3534C44.1406 42.7468 39.7684 47.119 34.375 47.119C31.5589 47.119 29.0213 45.9271 27.239 44.0201M30.4552 28.4063C31.605 27.902 32.8705 27.6126 34.201 27.5894" stroke="black" stroke-width="2" stroke-miterlimit="10" stroke-linecap="round" stroke-linejoin="round"/>
<path id="Vector_21" d="M23.8281 45.9473C26.2552 45.9473 28.2227 43.2365 28.2227 39.8926C28.2227 36.5487 26.2552 33.8379 23.8281 33.8379C21.4011 33.8379 19.4336 36.5487 19.4336 39.8926C19.4336 43.2365 21.4011 45.9473 23.8281 45.9473Z" stroke="black" stroke-width="2" stroke-miterlimit="10" stroke-linecap="round" stroke-linejoin="round"/>
<path id="Vector_22" d="M23.8281 43.0176C24.6371 43.0176 25.293 41.6185 25.293 39.8926C25.293 38.1667 24.6371 36.7676 23.8281 36.7676C23.0191 36.7676 22.3633 38.1667 22.3633 39.8926C22.3633 41.6185 23.0191 43.0176 23.8281 43.0176Z" stroke="black" stroke-width="2" stroke-miterlimit="10" stroke-linecap="round" stroke-linejoin="round"/>
<path id="Vector_23" d="M27.7995 42.7732H31.7057M27.7995 37.1563H28.973C28.973 37.1563 30.4144 37.1563 30.4144 35.7275" stroke="black" stroke-width="2" stroke-miterlimit="10" stroke-linecap="round" stroke-linejoin="round"/>
<path id="Vector_24" d="M29.2713 32.2183C30.3277 32.065 31.0334 30.9022 30.8475 29.6212C30.6616 28.3402 29.6545 27.4261 28.5981 27.5794C27.5417 27.7327 26.8361 28.8954 27.022 30.1764C27.2079 31.4574 28.2149 32.3716 29.2713 32.2183Z" stroke="black" stroke-width="2" stroke-miterlimit="10" stroke-linecap="round" stroke-linejoin="round"/>
<path id="Vector_25" d="M37.9989 28.6792C38.0552 27.386 37.2363 26.3 36.1698 26.2535C35.1034 26.2071 34.1932 27.2178 34.1369 28.511C34.0806 29.8042 34.8995 30.8902 35.9659 30.9366C37.0324 30.983 37.9426 29.9723 37.9989 28.6792Z" stroke="black" stroke-width="2" stroke-miterlimit="10" stroke-linecap="round" stroke-linejoin="round"/>
<path id="Vector_26" d="M7.51944 17.5132V23.0769C7.58096 23.0874 8.96475 23.0769 8.96475 23.0769M19.4986 17.5132V23.0769C19.5602 23.0874 20.944 23.0769 20.944 23.0769" stroke="black" stroke-width="2" stroke-miterlimit="10" stroke-linecap="round" stroke-linejoin="round"/>
<path id="Vector_27" d="M13.955 23.0815C15.4926 23.0815 16.7392 21.835 16.7392 20.2974C16.7392 18.7597 15.4926 17.5132 13.955 17.5132C12.4173 17.5132 11.1708 18.7597 11.1708 20.2974C11.1708 21.835 12.4173 23.0815 13.955 23.0815Z" stroke="black" stroke-width="2" stroke-miterlimit="10" stroke-linecap="round" stroke-linejoin="round"/>
<path id="Vector_28" d="M41.9872 16.2417H43.5497M41.9872 19.1714H43.5497M41.9872 22.1011H43.5497M38.9105 37.0605C38.9105 37.0605 37.0876 37.6682 37.1744 39.9902M24.1699 16.6077V24.1774C24.1699 25.4311 23.1537 26.4473 21.9001 26.4473H17.5051C17.3636 26.4474 17.2269 26.4987 17.1203 26.5917C17.0137 26.6848 16.9444 26.8133 16.9252 26.9535C16.8028 27.8361 16.8478 28.907 17.014 29.7798C17.1441 30.4634 16.4714 30.7563 15.8312 30.2029C14.484 29.0384 13.495 27.755 13.1041 26.8697C12.9911 26.6139 12.7403 26.4473 12.4606 26.4473H5.93193C4.67832 26.4473 3.66211 25.4311 3.66211 24.1774V16.6077C3.66211 15.3541 4.67832 14.3379 5.93193 14.3379H21.9001C23.1537 14.3379 24.1699 15.3541 24.1699 16.6077Z" stroke="black" stroke-width="2" stroke-miterlimit="10" stroke-linecap="round" stroke-linejoin="round"/>
</g>
</g>
<defs>
<clipPath id="clip0_193_2584">
<rect width="50" height="50" fill="white"/>
</clipPath>
</defs>
</svg>
