<svg width="220" height="61" viewBox="0 0 220 61" fill="none" xmlns="http://www.w3.org/2000/svg">
<path d="M89.8871 12.6364H97.5753V36.2514C97.5753 38.9029 96.942 41.223 95.6754 43.2116C94.4207 45.2003 92.6629 46.7509 90.402 47.8636C88.1411 48.9645 85.5073 49.5149 82.5007 49.5149C79.4822 49.5149 76.8426 48.9645 74.5817 47.8636C72.3208 46.7509 70.563 45.2003 69.3082 43.2116C68.0535 41.223 67.4261 38.9029 67.4261 36.2514V12.6364H75.1143V35.5945C75.1143 36.9794 75.4162 38.2105 76.0199 39.2876C76.6354 40.3648 77.4995 41.2112 78.6122 41.8267C79.7249 42.4422 81.0211 42.75 82.5007 42.75C83.9922 42.75 85.2884 42.4422 86.3892 41.8267C87.5019 41.2112 88.3601 40.3648 88.9638 39.2876C89.5793 38.2105 89.8871 36.9794 89.8871 35.5945V12.6364ZM111.323 33.233V49H103.759V21.7273H110.968V26.5391H111.287C111.891 24.9529 112.903 23.6982 114.323 22.7749C115.744 21.8397 117.466 21.3722 119.49 21.3722C121.384 21.3722 123.035 21.7865 124.444 22.6151C125.853 23.4437 126.948 24.6274 127.729 26.1662C128.51 27.6932 128.901 29.5161 128.901 31.6349V49H121.337V32.9844C121.349 31.3153 120.923 30.0133 120.058 29.0781C119.194 28.1312 118.005 27.6577 116.49 27.6577C115.472 27.6577 114.572 27.8767 113.791 28.3146C113.021 28.7526 112.418 29.3918 111.98 30.2322C111.553 31.0608 111.334 32.0611 111.323 33.233ZM134.862 49V21.7273H142.426V49H134.862ZM138.662 18.2116C137.537 18.2116 136.573 17.8388 135.768 17.093C134.975 16.3355 134.578 15.4299 134.578 14.3764C134.578 13.3348 134.975 12.4411 135.768 11.6953C136.573 10.9377 137.537 10.5589 138.662 10.5589C139.786 10.5589 140.745 10.9377 141.538 11.6953C142.343 12.4411 142.746 13.3348 142.746 14.3764C142.746 15.4299 142.343 16.3355 141.538 17.093C140.745 17.8388 139.786 18.2116 138.662 18.2116ZM148.485 59.2273V21.7273H155.943V26.3082H156.28C156.611 25.5743 157.091 24.8286 157.718 24.071C158.357 23.3016 159.186 22.6624 160.204 22.1534C161.234 21.6326 162.512 21.3722 164.039 21.3722C166.028 21.3722 167.863 21.893 169.544 22.9347C171.224 23.9645 172.568 25.5211 173.574 27.6044C174.58 29.6759 175.083 32.2741 175.083 35.3991C175.083 38.4413 174.592 41.0099 173.61 43.1051C172.639 45.1884 171.313 46.7687 169.632 47.8459C167.963 48.9112 166.093 49.4439 164.021 49.4439C162.554 49.4439 161.305 49.2012 160.275 48.7159C159.257 48.2306 158.423 47.621 157.771 46.8871C157.12 46.1413 156.623 45.3897 156.28 44.6321H156.049V59.2273H148.485ZM155.889 35.3636C155.889 36.9853 156.114 38.3999 156.564 39.6072C157.014 40.8146 157.665 41.7557 158.517 42.4304C159.369 43.0933 160.405 43.4247 161.624 43.4247C162.856 43.4247 163.897 43.0874 164.749 42.4126C165.602 41.7261 166.247 40.7791 166.685 39.5717C167.135 38.3525 167.36 36.9498 167.36 35.3636C167.36 33.7893 167.141 32.4044 166.703 31.2088C166.265 30.0133 165.619 29.0781 164.767 28.4034C163.915 27.7287 162.867 27.3913 161.624 27.3913C160.393 27.3913 159.352 27.7169 158.499 28.3679C157.659 29.0189 157.014 29.9422 156.564 31.1378C156.114 32.3333 155.889 33.742 155.889 35.3636ZM187.903 49.5149C186.163 49.5149 184.612 49.2131 183.251 48.6094C181.89 47.9938 180.812 47.0883 180.019 45.8928C179.238 44.6854 178.847 43.1821 178.847 41.3828C178.847 39.8677 179.126 38.5952 179.682 37.5653C180.238 36.5355 180.996 35.7069 181.955 35.0795C182.914 34.4522 184.003 33.9787 185.222 33.6591C186.453 33.3395 187.743 33.1146 189.093 32.9844C190.679 32.8187 191.957 32.6648 192.928 32.5227C193.898 32.3688 194.603 32.1439 195.041 31.848C195.479 31.5521 195.698 31.1141 195.698 30.5341V30.4276C195.698 29.303 195.343 28.433 194.632 27.8175C193.934 27.2019 192.94 26.8942 191.649 26.8942C190.288 26.8942 189.205 27.196 188.4 27.7997C187.595 28.3916 187.062 29.1373 186.802 30.0369L179.806 29.4688C180.161 27.8116 180.86 26.3793 181.901 25.1719C182.943 23.9527 184.287 23.0175 185.932 22.3665C187.589 21.7036 189.507 21.3722 191.685 21.3722C193.2 21.3722 194.65 21.5497 196.035 21.9048C197.432 22.2599 198.669 22.8104 199.746 23.5561C200.835 24.3018 201.693 25.2607 202.32 26.4325C202.948 27.5926 203.262 28.9834 203.262 30.6051V49H196.088V45.218H195.875C195.437 46.0703 194.851 46.822 194.117 47.473C193.383 48.1122 192.502 48.6153 191.472 48.9822C190.442 49.3374 189.252 49.5149 187.903 49.5149ZM190.069 44.2947C191.182 44.2947 192.164 44.0758 193.017 43.6378C193.869 43.188 194.538 42.5843 195.023 41.8267C195.508 41.0691 195.751 40.2109 195.751 39.2521V36.358C195.514 36.5118 195.189 36.6539 194.774 36.7841C194.372 36.9025 193.916 37.0149 193.407 37.1214C192.898 37.2161 192.389 37.3049 191.88 37.3878C191.371 37.4588 190.91 37.5239 190.495 37.5831C189.607 37.7133 188.832 37.9205 188.169 38.2045C187.506 38.4886 186.991 38.8733 186.624 39.3587C186.258 39.8321 186.074 40.424 186.074 41.1342C186.074 42.1641 186.447 42.9512 187.193 43.4957C187.95 44.0284 188.909 44.2947 190.069 44.2947ZM216.694 12.6364V49H209.13V12.6364H216.694Z" fill="black"/>
<path d="M33.9825 23.5444C34.9179 23.6127 35.5295 22.5715 35.1095 21.7329C34.5558 20.6274 34.0072 19.5315 33.4594 18.4372C32.1753 15.872 28.5325 15.8231 27.1797 18.3528L25.3461 21.7816C24.9159 22.5862 25.4992 23.5892 26.4111 23.5591C26.8784 23.5386 27.0498 23.6979 27.0542 24.1831C27.0981 30.1022 27.5712 36.0506 27.1289 41.9317C26.3379 52.4545 18.0283 56.4605 10.06 54.5328C8.16898 54.0753 6.39808 53.3212 4.84104 52.1403C1.59512 49.6791 0.228507 46.284 0.187494 42.338C0.0952138 33.3511 0.0790943 24.3614 0.0336867 15.3761C0.019039 12.6479 0.00781206 9.91979 0 7.19164C0 6.64277 0.444951 6.19781 0.993825 6.19781H5.29512C8.21953 6.19781 10.5902 8.56852 10.5902 11.4929V40.894C10.5902 41.0884 10.5902 41.2827 10.5902 41.4786C10.6283 43.3391 11.7108 44.4016 13.5813 44.4016C15.5323 44.4016 16.5577 43.4589 16.5855 41.5341C16.6573 36.4934 16.6983 31.4497 16.7554 26.4105C16.8296 19.8113 16.9063 13.2116 16.9854 6.61142C16.9854 6.31219 17.2435 6.06907 17.5423 6.05314C17.6253 6.04872 17.7081 6.04582 17.791 6.04582C23.5534 6.04582 29.3172 5.92305 35.0752 6.07943C40.5051 6.22558 44.9609 8.35354 47.4788 13.441C49.0988 16.7192 49.383 20.2224 48.5305 23.7739C47.8904 26.4616 46.3509 28.6071 44.1113 30.2045C41.088 32.3617 37.6927 33.3117 33.9708 33.1202C33.3746 33.0895 33.1842 32.8762 33.19 32.2828C33.2164 29.6287 33.2164 26.9736 33.19 24.3176C33.19 23.7037 33.3819 23.5006 33.9825 23.5444Z" fill="url(#paint0_linear_16_1651)"/>
<defs>
<linearGradient id="paint0_linear_16_1651" x1="1.97786" y1="16.323" x2="55.2179" y2="25.894" gradientUnits="userSpaceOnUse">
<stop stop-color="#6A58FB"/>
<stop offset="1" stop-color="#4599F4"/>
</linearGradient>
</defs>
</svg>
