<svg width="48" height="51" viewBox="0 0 48 51" fill="none" xmlns="http://www.w3.org/2000/svg">
<g id="shopping_cart">
<path id="Vector" d="M30.8689 27.2538C32.3338 27.2538 33.623 26.4056 34.2871 25.1229L41.2797 11.6961C42.0025 10.3307 41.0649 8.63426 39.5804 8.63426H10.6721L8.83608 4.49658H2.44892V8.63426H6.35544L13.3872 24.3367L10.7503 29.3847C9.3244 32.157 11.1995 35.5292 14.1685 35.5292H37.6076V31.3915H14.1685L16.3171 27.2538H30.8689ZM12.5277 12.7719H36.2599L30.8689 23.1161H17.157L12.5277 12.7719ZM14.1685 37.598C12.0199 37.598 10.2815 39.46 10.2815 41.7357C10.2815 44.0114 12.0199 45.8734 14.1685 45.8734C16.3171 45.8734 18.075 44.0114 18.075 41.7357C18.075 39.46 16.3171 37.598 14.1685 37.598ZM33.7011 37.598C31.5525 37.598 29.8141 39.46 29.8141 41.7357C29.8141 44.0114 31.5525 45.8734 33.7011 45.8734C35.8497 45.8734 37.6076 44.0114 37.6076 41.7357C37.6076 39.46 35.8497 37.598 33.7011 37.598Z" fill="#323232"/>
</g>
</svg>
