<svg width="51" height="54" viewBox="0 0 51 54" fill="none" xmlns="http://www.w3.org/2000/svg">
<g id="add_shopping_cart" clip-path="url(#clip0_194_2216)">
<path id="Vector" d="M23.3565 20.229H27.513V13.6253H33.7478V9.22285H27.513V2.61914H23.3565V9.22285H17.1217V13.6253H23.3565V20.229ZM15.0435 40.0401C12.7574 40.0401 10.9077 42.0212 10.9077 44.4426C10.9077 46.864 12.7574 48.8451 15.0435 48.8451C17.3296 48.8451 19.2 46.864 19.2 44.4426C19.2 42.0212 17.3296 40.0401 15.0435 40.0401ZM35.8261 40.0401C33.54 40.0401 31.6903 42.0212 31.6903 44.4426C31.6903 46.864 33.54 48.8451 35.8261 48.8451C38.1122 48.8451 39.9826 46.864 39.9826 44.4426C39.9826 42.0212 38.1122 40.0401 35.8261 40.0401ZM17.3296 29.034H32.8126C34.3713 29.034 35.743 28.1315 36.4496 26.7667L44.4716 11.336L40.8555 9.22285L32.8126 24.6315H18.2232L9.36983 4.82038H2.57391V9.22285H6.73043L14.2122 25.9302L11.4065 31.3012C9.88939 34.2509 11.8845 37.8389 15.0435 37.8389H39.9826V33.4364H15.0435L17.3296 29.034Z" fill="#323232"/>
</g>
<defs>
<clipPath id="clip0_194_2216">
<rect width="49.8783" height="52.8296" fill="white" transform="translate(0.495667 0.417969)"/>
</clipPath>
</defs>
</svg>
