<svg width="25" height="25" viewBox="0 0 25 25" fill="none" xmlns="http://www.w3.org/2000/svg">
<g id="notifications" clip-path="url(#clip0_19_1716)">
<path id="Vector" d="M12.5 22.9167C13.6459 22.9167 14.5834 21.9792 14.5834 20.8334H10.4167C10.4167 21.9792 11.3542 22.9167 12.5 22.9167ZM18.7501 16.6667V11.4584C18.7501 8.26044 17.0521 5.58335 14.0626 4.87502V4.16669C14.0626 3.3021 13.3646 2.60419 12.5 2.60419C11.6355 2.60419 10.9375 3.3021 10.9375 4.16669V4.87502C7.95837 5.58335 6.25003 8.25002 6.25003 11.4584V16.6667L4.16669 18.75V19.7917H20.8334V18.75L18.7501 16.6667ZM16.6667 17.7084H8.33337V11.4584C8.33337 8.87502 9.90629 6.77085 12.5 6.77085C15.0938 6.77085 16.6667 8.87502 16.6667 11.4584V17.7084Z" fill="#111111"/>
</g>
<defs>
<clipPath id="clip0_19_1716">
<rect width="25.0001" height="25" fill="white"/>
</clipPath>
</defs>
</svg>
