<svg width="44" height="44" viewBox="0 0 44 44" fill="none" xmlns="http://www.w3.org/2000/svg">
<g id="Frame">
<g id="Group">
<g id="Group_2">
<g id="Group_3">
<path id="Vector" fill-rule="evenodd" clip-rule="evenodd" d="M3.8507 29.7686C3.69288 29.7686 3.54153 29.7059 3.42994 29.5943C3.31834 29.4828 3.25565 29.3314 3.25565 29.1736C3.25565 29.0158 3.31834 28.8644 3.42994 28.7528C3.54153 28.6412 3.69288 28.5785 3.8507 28.5785H17.8801C18.0379 28.5785 18.1893 28.6412 18.3009 28.7528C18.4125 28.8644 18.4752 29.0158 18.4752 29.1736C18.4752 29.3314 18.4125 29.4828 18.3009 29.5943C18.1893 29.7059 18.0379 29.7686 17.8801 29.7686H3.8507ZM3.25415 23.0388C3.17515 23.0402 3.09666 23.0258 3.02328 22.9965C2.94989 22.9672 2.88307 22.9236 2.82672 22.8682C2.77037 22.8128 2.72561 22.7468 2.69506 22.6739C2.66451 22.601 2.64877 22.5228 2.64877 22.4438C2.64877 22.3648 2.66451 22.2865 2.69506 22.2137C2.72561 22.1408 2.77037 22.0747 2.82672 22.0193C2.88307 21.964 2.94989 21.9203 3.02328 21.891C3.09666 21.8617 3.17515 21.8474 3.25415 21.8487H17.2836C17.4414 21.8487 17.5927 21.9114 17.7043 22.023C17.8159 22.1346 17.8786 22.286 17.8786 22.4438C17.8786 22.6016 17.8159 22.753 17.7043 22.8645C17.5927 22.9761 17.4414 23.0388 17.2836 23.0388H3.25415ZM12.1444 36.4984C11.9866 36.4984 11.8353 36.4357 11.7237 36.3241C11.6121 36.2126 11.5494 36.0612 11.5494 35.9034C11.5494 35.7456 11.6121 35.5942 11.7237 35.4826C11.8353 35.371 11.9866 35.3083 12.1444 35.3083H26.1738C26.3317 35.3083 26.483 35.371 26.5946 35.4826C26.7062 35.5942 26.7689 35.7456 26.7689 35.9034C26.7689 36.0612 26.7062 36.2126 26.5946 36.3241C26.483 36.4357 26.3317 36.4984 26.1738 36.4984H12.1444Z" fill="#FFBF31"/>
</g>
<path id="Vector_2" fill-rule="evenodd" clip-rule="evenodd" d="M32.9763 15.0289L36.3797 10.7881L37.6845 11.8353L34.281 16.0761L32.9763 15.0289Z" fill="#D1991F"/>
<path id="Vector_3" fill-rule="evenodd" clip-rule="evenodd" d="M32.5436 9.67237L34.2871 7.5L41.3476 13.1664L39.6041 15.3389L32.5436 9.67237Z" fill="#60B7FE"/>
<path id="Vector_4" fill-rule="evenodd" clip-rule="evenodd" d="M18.7968 11.8333L20.1018 10.7861L23.5053 15.0269L22.2004 16.0741L18.7968 11.8333Z" fill="#D1991F"/>
<path id="Vector_5" fill-rule="evenodd" clip-rule="evenodd" d="M15.1336 13.1645L22.1941 7.49805L23.9376 9.6705L16.8772 15.3369L15.1336 13.1645Z" fill="#60B7FE"/>
<path id="Vector_6" fill-rule="evenodd" clip-rule="evenodd" d="M34.4831 14.196C39.9961 17.9293 40.5491 25.5013 36.9575 30.8049C34.3083 34.7171 29.5997 37.1297 24.8515 36.3536C23.3317 36.1052 21.8922 35.5363 20.6167 34.6725C15.1037 30.9392 14.5507 23.3673 18.1423 18.0636C20.7915 14.1515 25.5001 11.7389 30.2482 12.515C31.7681 12.7633 33.2076 13.3323 34.4831 14.196Z" fill="#FFBF31"/>
<path id="Vector_7" d="M34.4694 29.124C37.3666 24.848 36.6207 19.2849 32.8034 16.6984C28.9861 14.1119 23.5428 15.4815 20.6455 19.7576C17.7483 24.0336 18.4941 29.5968 22.3115 32.1832C26.1288 34.7697 31.5721 33.4001 34.4694 29.124Z" fill="#60B7FE"/>
<path id="Vector_8" fill-rule="evenodd" clip-rule="evenodd" d="M27.7326 15.325C27.7503 15.1698 27.8285 15.0279 27.9502 14.9299C28.0719 14.832 28.2273 14.786 28.3827 14.8019C28.5381 14.8178 28.681 14.8943 28.7803 15.0149C28.8797 15.1354 28.9275 15.2903 28.9135 15.4458L28.7639 16.8987C28.7462 17.0539 28.668 17.1959 28.5463 17.2938C28.4246 17.3917 28.2692 17.4377 28.1138 17.4218C27.9584 17.4059 27.8155 17.3294 27.7162 17.2088C27.6168 17.0883 27.569 16.9335 27.5831 16.7779L27.7326 15.325ZM18.9196 25.0289C18.7618 25.0289 18.6105 24.9662 18.4989 24.8546C18.3873 24.743 18.3246 24.5916 18.3246 24.4338C18.3246 24.276 18.3873 24.1246 18.4989 24.013C18.6105 23.9014 18.7618 23.8387 18.9196 23.8387H20.3861C20.5439 23.8387 20.6952 23.9014 20.8068 24.013C20.9184 24.1246 20.9811 24.276 20.9811 24.4338C20.9811 24.5916 20.9184 24.743 20.8068 24.8546C20.6952 24.9662 20.5439 25.0289 20.3861 25.0289H18.9196ZM34.7136 25.0289C34.5558 25.0289 34.4044 24.9662 34.2929 24.8546C34.1813 24.743 34.1186 24.5916 34.1186 24.4338C34.1186 24.276 34.1813 24.1246 34.2929 24.013C34.4044 23.9014 34.5558 23.8387 34.7136 23.8387H36.18C36.3379 23.8387 36.4892 23.9014 36.6008 24.013C36.7124 24.1246 36.7751 24.276 36.7751 24.4338C36.7751 24.5916 36.7124 24.743 36.6008 24.8546C36.4892 24.9662 36.3379 25.0289 36.18 25.0289H34.7136ZM26.0195 31.9743C26.0372 31.8191 26.1154 31.6772 26.2371 31.5793C26.3588 31.4813 26.5142 31.4354 26.6696 31.4513C26.825 31.4671 26.9679 31.5437 27.0672 31.6642C27.1666 31.7847 27.2144 31.9396 27.2004 32.0952L27.0515 33.5424C27.0337 33.6976 26.9555 33.8396 26.8338 33.9375C26.7121 34.0354 26.5567 34.0814 26.4013 34.0655C26.2459 34.0496 26.1031 33.9731 26.0037 33.8525C25.9044 33.732 25.8565 33.5772 25.8706 33.4216L26.0195 31.9743Z" fill="#847784"/>
<path id="Vector_9" fill-rule="evenodd" clip-rule="evenodd" d="M31.8147 19.494C31.8718 19.4409 31.9388 19.3995 32.0119 19.3723C32.0849 19.3451 32.1627 19.3325 32.2406 19.3353C32.3185 19.3382 32.3951 19.3563 32.466 19.3887C32.5369 19.4211 32.6008 19.4672 32.6539 19.5243C32.707 19.5814 32.7484 19.6484 32.7756 19.7214C32.8028 19.7945 32.8154 19.8722 32.8126 19.9501C32.8097 20.0281 32.7916 20.1047 32.7592 20.1756C32.7268 20.2465 32.6807 20.3103 32.6236 20.3634L27.7965 24.8687C27.6835 24.9739 27.5339 25.0309 27.3796 25.0276C27.2252 25.0244 27.0782 24.9612 26.9697 24.8514L24.8137 22.9195C24.6973 22.8145 24.6273 22.6676 24.6189 22.5111C24.6106 22.3546 24.6645 22.2011 24.7691 22.0843C24.8736 21.9674 25.0202 21.8968 25.1767 21.8878C25.3332 21.8788 25.4869 21.9321 25.6041 22.0362L27.383 23.6302L31.8147 19.494Z" fill="#2B3F4F"/>
</g>
</g>
</g>
</svg>
