<svg width="18" height="19" viewBox="0 0 18 19" fill="none" xmlns="http://www.w3.org/2000/svg">
<g id="Search">
<path id="Path 2" opacity="0.3" d="M10.7828 13.2265C10.4995 12.9173 10.4995 12.416 10.7828 12.1069C11.0662 11.7977 11.5255 11.7977 11.8089 12.1069L14.711 15.2735C14.9943 15.5827 14.9943 16.084 14.711 16.3931C14.4277 16.7023 13.9683 16.7023 13.6849 16.3931L10.7828 13.2265Z" fill="#D6D6E0"/>
<path id="Path" fill-rule="evenodd" clip-rule="evenodd" d="M3.31543 8.70817C3.31543 11.7687 5.58925 14.2498 8.39416 14.2498C11.1991 14.2498 13.4729 11.7687 13.4729 8.70817C13.4729 5.64759 11.1991 3.1665 8.39416 3.1665C5.58925 3.1665 3.31543 5.64759 3.31543 8.70817ZM12.0218 8.70817C12.0218 10.8943 10.3977 12.6665 8.39416 12.6665C6.39065 12.6665 4.76649 10.8943 4.76649 8.70817C4.76649 6.52205 6.39065 4.74984 8.39416 4.74984C10.3977 4.74984 12.0218 6.52205 12.0218 8.70817Z" fill="#D6D6E0"/>
</g>
</svg>
