<svg width="22" height="22" viewBox="0 0 22 22" fill="none" xmlns="http://www.w3.org/2000/svg">
<g id="Search">
<path id="Icon" fill-rule="evenodd" clip-rule="evenodd" d="M8.80001 4.40001C6.36996 4.40001 4.40001 6.36996 4.40001 8.80001C4.40001 11.2301 6.36996 13.2 8.80001 13.2C11.2301 13.2 13.2 11.2301 13.2 8.80001C13.2 6.36996 11.2301 4.40001 8.80001 4.40001ZM2.20001 8.80001C2.20001 5.15493 5.15493 2.20001 8.80001 2.20001C12.4451 2.20001 15.4 5.15493 15.4 8.80001C15.4 10.2254 14.9481 11.5453 14.1798 12.6242L19.4778 17.9222C19.9074 18.3518 19.9074 19.0483 19.4778 19.4778C19.0483 19.9074 18.3518 19.9074 17.9222 19.4778L12.6242 14.1798C11.5453 14.9481 10.2254 15.4 8.80001 15.4C5.15493 15.4 2.20001 12.4451 2.20001 8.80001Z" fill="#666666"/>
</g>
</svg>
