<svg width="25" height="25" viewBox="0 0 25 25" fill="none" xmlns="http://www.w3.org/2000/svg">
<g id="basic / settings">
<path id="coolicon" d="M14.3959 22.9166H10.6042C10.1147 22.9166 9.69124 22.576 9.5865 22.0979L9.16254 20.1354C8.59696 19.8876 8.06068 19.5777 7.56357 19.2114L5.65003 19.8208C5.18336 19.9696 4.67605 19.7732 4.43127 19.3489L2.53127 16.0666C2.28917 15.6422 2.37258 15.1067 2.73231 14.776L4.21669 13.4219C4.14919 12.8084 4.14919 12.1894 4.21669 11.576L2.73231 10.225C2.37205 9.89411 2.28861 9.35802 2.53127 8.93331L4.42711 5.64894C4.67188 5.22466 5.17919 5.02825 5.64586 5.17706L7.55941 5.78644C7.81364 5.59806 8.0783 5.42417 8.35212 5.2656C8.61497 5.11737 8.88549 4.98315 9.16254 4.86352L9.58754 2.9031C9.69178 2.42495 10.1148 2.08383 10.6042 2.08331H14.3959C14.8853 2.08383 15.3083 2.42495 15.4126 2.9031L15.8417 4.86456C16.1342 4.99323 16.4191 5.1386 16.6949 5.29998C16.9521 5.44874 17.2007 5.61185 17.4396 5.78852L19.3542 5.17915C19.8206 5.03089 20.3273 5.22723 20.5719 5.65102L22.4678 8.9354C22.7099 9.35986 22.6265 9.89531 22.2667 10.226L20.7824 11.5802C20.8499 12.1936 20.8499 12.8126 20.7824 13.426L22.2667 14.7802C22.6265 15.1109 22.7099 15.6463 22.4678 16.0708L20.5719 19.3552C20.3273 19.779 19.8206 19.9753 19.3542 19.8271L17.4396 19.2177C17.1974 19.3961 16.9456 19.5613 16.6855 19.7125C16.4124 19.8707 16.1307 20.0136 15.8417 20.1406L15.4126 22.0979C15.3079 22.5756 14.885 22.9162 14.3959 22.9166ZM7.93753 16.9052L8.7917 17.5302C8.98426 17.672 9.18495 17.8024 9.39275 17.9208C9.58827 18.034 9.78959 18.137 9.99587 18.2291L10.9678 18.6552L11.4438 20.8333H13.5584L14.0344 18.6541L15.0063 18.2281C15.4306 18.041 15.8333 17.8084 16.2073 17.5344L17.0626 16.9094L19.1886 17.5864L20.2459 15.7552L18.5969 14.2521L18.7136 13.1979C18.7649 12.7368 18.7649 12.2715 18.7136 11.8104L18.5969 10.7562L20.2469 9.24998L19.1886 7.41769L17.0626 8.09477L16.2073 7.46977C15.8332 7.19447 15.4305 6.96014 15.0063 6.77081L14.0344 6.34477L13.5584 4.16665H11.4438L10.9657 6.34581L9.99587 6.77081C9.78942 6.86148 9.58808 6.96337 9.39275 7.07602C9.18622 7.19407 8.98659 7.3238 8.79483 7.46456L7.93962 8.08956L5.81461 7.41248L4.75523 9.24998L6.4042 10.751L6.28753 11.8062C6.23628 12.2673 6.23628 12.7326 6.28753 13.1937L6.4042 14.2479L4.75523 15.751L5.81253 17.5823L7.93753 16.9052ZM12.4959 16.6666C10.1947 16.6666 8.3292 14.8012 8.3292 12.5C8.3292 10.1988 10.1947 8.33331 12.4959 8.33331C14.7971 8.33331 16.6626 10.1988 16.6626 12.5C16.6597 14.8 14.7959 16.6638 12.4959 16.6666ZM12.4959 10.4166C11.3577 10.4178 10.4312 11.3321 10.4149 12.4701C10.3986 13.6081 11.2985 14.5486 12.4362 14.5824C13.5738 14.6162 14.528 13.7307 14.5792 12.5937V13.0104V12.5C14.5792 11.3494 13.6465 10.4166 12.4959 10.4166Z" fill="#111111"/>
</g>
</svg>
