<svg width="16" height="16" viewBox="0 0 16 16" fill="none" xmlns="http://www.w3.org/2000/svg">
<path d="M8 11.3333H8.00667M8 6V8.66667M6.86001 2.57335C6.97886 2.37742 7.1462 2.21543 7.34588 2.103C7.54557 1.99058 7.77086 1.93152 8.00001 1.93152C8.22917 1.93152 8.45446 1.99058 8.65414 2.103C8.85383 2.21543 9.02117 2.37742 9.14001 2.57335L14.7867 12C14.9031 12.2016 14.9647 12.4302 14.9654 12.663C14.966 12.8958 14.9057 13.1248 14.7904 13.327C14.6751 13.5293 14.5089 13.6978 14.3082 13.8159C14.1076 13.934 13.8795 13.9975 13.6467 14H2.35335C2.12055 13.9975 1.89247 13.934 1.69182 13.8159C1.49116 13.6978 1.32492 13.5293 1.20963 13.327C1.09434 13.1248 1.03402 12.8958 1.03467 12.663C1.03533 12.4302 1.09693 12.2016 1.21335 12L6.00543 4L6.66667 2.89613L6.86001 2.57335Z" stroke="#8A4A01" stroke-width="1.5" stroke-linecap="round" stroke-linejoin="round"/>
</svg>
