<svg width="15" height="15" viewBox="0 0 15 15" fill="none" xmlns="http://www.w3.org/2000/svg">
<path d="M5.36877 8.44376L9.63752 10.9313M9.63127 4.06876L5.36877 6.55626M13.125 3.125C13.125 4.16053 12.2855 5 11.25 5C10.2145 5 9.375 4.16053 9.375 3.125C9.375 2.08947 10.2145 1.25 11.25 1.25C12.2855 1.25 13.125 2.08947 13.125 3.125ZM5.625 7.5C5.625 8.53553 4.78553 9.375 3.75 9.375C2.71447 9.375 1.875 8.53553 1.875 7.5C1.875 6.46447 2.71447 5.625 3.75 5.625C4.78553 5.625 5.625 6.46447 5.625 7.5ZM13.125 11.875C13.125 12.9105 12.2855 13.75 11.25 13.75C10.2145 13.75 9.375 12.9105 9.375 11.875C9.375 10.8395 10.2145 10 11.25 10C12.2855 10 13.125 10.8395 13.125 11.875Z" stroke="white" stroke-width="2" stroke-linecap="round" stroke-linejoin="round"/>
</svg>
