<svg width="16" height="16" viewBox="0 0 16 16" fill="none" xmlns="http://www.w3.org/2000/svg">
<path d="M3 9.66667H2.33333C1.97971 9.66667 1.64057 9.52619 1.39052 9.27614C1.14048 9.02609 1 8.68696 1 8.33333V2.33333C1 1.97971 1.14048 1.64057 1.39052 1.39052C1.64057 1.14048 1.97971 1 2.33333 1H8.33333C8.68696 1 9.02609 1.14048 9.27614 1.39052C9.52619 1.64057 9.66667 1.97971 9.66667 2.33333V3M7 5.66667H13C13.7364 5.66667 14.3333 6.26362 14.3333 7V13C14.3333 13.7364 13.7364 14.3333 13 14.3333H7C6.26362 14.3333 5.66667 13.7364 5.66667 13V7C5.66667 6.26362 6.26362 5.66667 7 5.66667Z" stroke="#64748B" stroke-width="1.5" stroke-linecap="round" stroke-linejoin="round"/>
</svg>
