<svg width="16" height="16" viewBox="0 0 16 16" fill="none" xmlns="http://www.w3.org/2000/svg">
<g clip-path="url(#clip0_292_1034)">
<path d="M3.3335 10H2.66683C2.31321 10 1.97407 9.85952 1.72402 9.60947C1.47397 9.35942 1.3335 9.02028 1.3335 8.66666V2.66666C1.3335 2.31304 1.47397 1.9739 1.72402 1.72385C1.97407 1.4738 2.31321 1.33333 2.66683 1.33333H8.66683C9.02045 1.33333 9.35959 1.4738 9.60964 1.72385C9.85969 1.9739 10.0002 2.31304 10.0002 2.66666V3.33333M7.3335 6H13.3335C14.0699 6 14.6668 6.59695 14.6668 7.33333V13.3333C14.6668 14.0697 14.0699 14.6667 13.3335 14.6667H7.3335C6.59712 14.6667 6.00016 14.0697 6.00016 13.3333V7.33333C6.00016 6.59695 6.59712 6 7.3335 6Z" stroke="#281A39" stroke-width="1.5" stroke-linecap="round" stroke-linejoin="round"/>
</g>
<defs>
<clipPath id="clip0_292_1034">
<rect width="16" height="16" fill="white"/>
</clipPath>
</defs>
</svg>
