<svg width="13" height="15" viewBox="0 0 13 15" fill="none" xmlns="http://www.w3.org/2000/svg">
<path d="M7.75 1.25H2.75C2.41848 1.25 2.10054 1.3817 1.86612 1.61612C1.6317 1.85054 1.5 2.16848 1.5 2.5V12.5C1.5 12.8315 1.6317 13.1495 1.86612 13.3839C2.10054 13.6183 2.41848 13.75 2.75 13.75H10.25C10.5815 13.75 10.8995 13.6183 11.1339 13.3839C11.3683 13.1495 11.5 12.8315 11.5 12.5V5M7.75 1.25V5H11.5M7.75 1.25L11.5 5M9 8.125H4M9 10.625H4M5.25 5.625H4.625H4" stroke="white" stroke-width="2" stroke-linecap="round" stroke-linejoin="round"/>
</svg>
