<svg width="24" height="24" viewBox="0 0 24 24" fill="none" xmlns="http://www.w3.org/2000/svg">
<path d="M7 22H4.18C2.97602 22 2 21.024 2 19.82V17M7 22H17M7 22V17M7 2H4.18C2.97602 2 2 2.97602 2 4.18V7M7 2H17M7 2V7M17 2H19.82C21.024 2 22 2.97602 22 4.18V7M17 2V7M17 22H19.82C21.024 22 22 21.024 22 19.82V17M17 22V17M22 17H17M22 17V12M17 17V12M22 12H17M22 12V7M17 12V7M17 12H7M22 7H17M7 7H2M7 7V12M2 7V12M7 12H2M7 12V17M2 12V17M7 17H2" stroke="#64748B" stroke-width="2" stroke-linecap="round" stroke-linejoin="round"/>
</svg>
