<svg width="16" height="12" viewBox="0 0 16 12" fill="none" xmlns="http://www.w3.org/2000/svg">
<path d="M10.8269 3.17335C11.1988 3.54484 11.4938 3.98599 11.6951 4.47159C11.8964 4.95718 12 5.47769 12 6.00335C12 6.52901 11.8964 7.04952 11.6951 7.53511C11.4938 8.0207 11.1988 8.46186 10.8269 8.83335M5.17354 8.82668C4.80163 8.45519 4.5066 8.01404 4.3053 7.52844C4.104 7.04285 4.00039 6.52234 4.00039 5.99668C4.00039 5.47102 4.104 4.95051 4.3053 4.46492C4.5066 3.97933 4.80163 3.53817 5.17354 3.16668M12.7135 1.28668C13.9633 2.53687 14.6654 4.23225 14.6654 6.00002C14.6654 7.76778 13.9633 9.46316 12.7135 10.7133M3.28687 10.7133C2.03706 9.46316 1.33496 7.76778 1.33496 6.00002C1.33496 4.23225 2.03706 2.53687 3.28687 1.28668M9.33354 6.00002C9.33354 6.7364 8.73658 7.33335 8.0002 7.33335C7.26382 7.33335 6.66687 6.7364 6.66687 6.00002C6.66687 5.26364 7.26382 4.66668 8.0002 4.66668C8.73658 4.66668 9.33354 5.26364 9.33354 6.00002Z" stroke="#F8FAFC" stroke-width="1.5" stroke-linecap="round" stroke-linejoin="round"/>
</svg>
