<svg width="28" height="35" viewBox="0 0 28 35" fill="none" xmlns="http://www.w3.org/2000/svg">
<path fill-rule="evenodd" clip-rule="evenodd" d="M23.3327 22.3077H25.1461C26.3656 22.3077 27.3577 23.2998 27.3577 24.5192V31.9053C27.3577 33.1248 26.3656 34.1169 25.1461 34.1169H11.7885C10.569 34.1169 9.57692 33.1248 9.57692 31.9053V31.5072H4.00384C1.95508 31.5072 0.28846 29.8411 0.28846 27.7923V3.90769C0.28846 1.85892 1.95508 0.192307 4.00384 0.192307H17.9365C18.0599 0.192307 18.1776 0.243615 18.2616 0.334288L23.204 5.67427C23.2867 5.75742 23.3327 5.86977 23.3327 5.98654V22.3077ZM1.17307 27.7927C1.17307 29.3532 2.44294 30.6231 4.00384 30.6231H9.57692V24.5192C9.57692 23.2998 10.569 22.3077 11.7885 22.3077H16.7423V21.7774C16.7423 21.2908 17.1404 20.8927 17.6269 20.8927H19.3519C19.8385 20.8927 20.2365 21.2908 20.2365 21.7774V22.3081H22.4481V6.38506H17.8923C17.6477 6.38506 17.45 6.1869 17.45 5.94275V1.07736H4.00384C2.44294 1.07736 1.17307 2.34723 1.17307 3.90813V27.7927ZM25.1461 33.2327C25.8777 33.2327 26.4731 32.6373 26.4731 31.9058V24.5192C26.4731 23.7877 25.8777 23.1923 25.1461 23.1923H11.7885C11.0569 23.1923 10.4615 23.7877 10.4615 24.5192V31.9058C10.4615 32.6373 11.0569 33.2327 11.7885 33.2327H25.1461ZM4.49038 8.64039H15.15C15.3946 8.64039 15.5923 8.44223 15.5923 8.19808C15.5923 7.95393 15.3946 7.75577 15.15 7.75577H4.49038C4.24623 7.75577 4.04808 7.95393 4.04808 8.19808C4.04808 8.44223 4.24623 8.64039 4.49038 8.64039ZM4.49038 12.4442H11.0808C11.3249 12.4442 11.5231 12.2461 11.5231 12.0019C11.5231 11.7578 11.3249 11.5596 11.0808 11.5596H4.49038C4.24623 11.5596 4.04808 11.7578 4.04808 12.0019C4.04808 12.2461 4.24623 12.4442 4.49038 12.4442ZM16.7423 28.5H15.2385H13.7346C13.2038 28.5 12.7615 28.8981 12.6731 29.4288L12.3635 31.3308H18.1135L17.8038 29.4288C17.7154 28.8981 17.2731 28.5 16.7423 28.5ZM16.6096 26.775C16.5212 27.4385 15.9462 27.925 15.2827 27.925C14.5308 27.925 13.9558 27.3058 13.9558 26.5981V26.3769C14.0442 25.7135 14.6192 25.2269 15.2827 25.2269H15.4154C15.6365 25.2712 15.9019 25.4038 16.1231 25.5808C16.3885 25.8462 16.6096 26.2 16.6096 26.5981V26.775ZM24.2173 25.8904H20.2365C19.9919 25.8904 19.7942 26.0881 19.7942 26.3327C19.7942 26.5773 19.9919 26.775 20.2365 26.775H24.2173C24.4619 26.775 24.6596 26.5773 24.6596 26.3327C24.6596 26.0881 24.4614 25.8904 24.2173 25.8904ZM20.2365 28.0577H24.2173C24.4614 28.0577 24.6596 28.2554 24.6596 28.5C24.6596 28.7446 24.4619 28.9423 24.2173 28.9423H20.2365C19.9919 28.9423 19.7942 28.7446 19.7942 28.5C19.7942 28.2554 19.9919 28.0577 20.2365 28.0577ZM24.2173 30.225H20.2365C19.9919 30.225 19.7942 30.4227 19.7942 30.6673C19.7942 30.9119 19.9919 31.1096 20.2365 31.1096H24.2173C24.4619 31.1096 24.6596 30.9119 24.6596 30.6673C24.6596 30.4227 24.4614 30.225 24.2173 30.225ZM10.3045 19.1717C10.2665 19.1717 10.2289 19.1691 10.1917 19.1651C9.51058 19.074 9.40354 18.2694 9.31817 17.6232C9.29517 17.4485 9.26067 17.1875 9.21689 17.0234C9.01917 17.2114 8.69231 17.717 8.52114 17.9819C8.09298 18.6445 7.80681 19.0833 7.36096 19.032C7.34106 19.0302 7.32204 19.0267 7.30302 19.0218C6.824 18.9024 6.81471 18.3694 6.80189 17.6321C6.79658 17.3233 6.78596 16.7165 6.69662 16.486C6.37019 16.6621 5.70762 17.4826 4.72392 18.9293C4.58681 19.131 4.31169 19.1846 4.10956 19.0466C3.90742 18.909 3.85479 18.6339 3.99235 18.4318C5.39623 16.3671 6.24148 15.3635 6.97483 15.6072C7.65442 15.7876 7.67145 16.7583 7.68649 17.6153L7.6865 17.6161C7.6865 17.6206 7.68661 17.6249 7.68672 17.6292C7.68683 17.6335 7.68694 17.6378 7.68694 17.6422C7.71024 17.6068 7.73261 17.5721 7.7539 17.539C7.76212 17.5263 7.77017 17.5138 7.77806 17.5016C8.25354 16.766 8.70292 16.0712 9.31154 16.0712C10.0046 16.0712 10.1103 16.8673 10.1948 17.5073C10.2231 17.7227 10.2731 18.0983 10.3417 18.2619C10.4934 18.1562 11.0458 17.6082 11.9879 14.7814C12.0653 14.5501 12.3153 14.4244 12.5475 14.5018C12.7792 14.5793 12.9044 14.8296 12.827 15.0614C11.658 18.5684 10.9171 19.1717 10.3045 19.1717Z" fill="#64748B"/>
</svg>
